<mxfile host="65bd71144e">
    <diagram id="il8eSl04GSXHatdaYvry" name="Page-1">
        <mxGraphModel dx="1173" dy="735" grid="1" gridSize="10" guides="1" tooltips="1" connect="1" arrows="1" fold="1" page="1" pageScale="1" pageWidth="827" pageHeight="1169" background="#F1FAEE" math="0" shadow="0">
            <root>
                <mxCell id="0"/>
                <mxCell id="1" parent="0"/>
                <mxCell id="O7eM3cRz2Qc7sRw92bNk-1" value="&lt;font data-font-src=&quot;https://fonts.googleapis.com/css?family=Abel&quot; face=&quot;Abel&quot; style=&quot;font-size: 16px;&quot;&gt;Statement&lt;/font&gt;" style="rounded=1;whiteSpace=wrap;html=1;arcSize=0;fillColor=#A8DADC;strokeColor=#457B9D;fontColor=#1D3557;align=center;" parent="1" vertex="1">
                    <mxGeometry x="440" y="100" width="80" height="40" as="geometry"/>
                </mxCell>
                <mxCell id="O7eM3cRz2Qc7sRw92bNk-2" value="&lt;span style=&quot;font-size: 16px;&quot;&gt;{&lt;/span&gt;" style="ellipse;whiteSpace=wrap;html=1;fillColor=#A8DADC;strokeColor=#457B9D;fontColor=#1D3557;rounded=1;fontFamily=Abel;" parent="1" vertex="1">
                    <mxGeometry x="360" y="40" width="40" height="40" as="geometry"/>
                </mxCell>
                <mxCell id="O7eM3cRz2Qc7sRw92bNk-3" value="&lt;span style=&quot;font-size: 16px;&quot;&gt;}&lt;/span&gt;" style="ellipse;whiteSpace=wrap;html=1;fillColor=#A8DADC;strokeColor=#457B9D;fontColor=#1D3557;rounded=1;fontFamily=Abel;" parent="1" vertex="1">
                    <mxGeometry x="560" y="40" width="40" height="40" as="geometry"/>
                </mxCell>
                <mxCell id="O7eM3cRz2Qc7sRw92bNk-4" value="" style="endArrow=classic;html=1;rounded=1;fontFamily=Verdana;fontSize=15;exitX=1;exitY=0.5;exitDx=0;exitDy=0;entryX=0;entryY=0.5;entryDx=0;entryDy=0;strokeColor=#457B9D;fontColor=#1D3557;labelBackgroundColor=#F1FAEE;" parent="1" source="O7eM3cRz2Qc7sRw92bNk-2" target="O7eM3cRz2Qc7sRw92bNk-3" edge="1">
                    <mxGeometry width="50" height="50" relative="1" as="geometry">
                        <mxPoint x="449" y="170" as="sourcePoint"/>
                        <mxPoint x="499" y="120" as="targetPoint"/>
                        <Array as="points"/>
                    </mxGeometry>
                </mxCell>
                <mxCell id="O7eM3cRz2Qc7sRw92bNk-10" value="" style="endArrow=classic;html=1;rounded=1;fontFamily=Verdana;fontSize=15;entryX=1;entryY=0.5;entryDx=0;entryDy=0;strokeColor=#457B9D;fontColor=#1D3557;labelBackgroundColor=#F1FAEE;" parent="1" target="O7eM3cRz2Qc7sRw92bNk-1" edge="1">
                    <mxGeometry width="50" height="50" relative="1" as="geometry">
                        <mxPoint x="540" y="60" as="sourcePoint"/>
                        <mxPoint x="499" y="120" as="targetPoint"/>
                        <Array as="points">
                            <mxPoint x="540" y="100"/>
                        </Array>
                    </mxGeometry>
                </mxCell>
                <mxCell id="O7eM3cRz2Qc7sRw92bNk-11" value="" style="endArrow=classic;html=1;rounded=1;fontFamily=Verdana;fontSize=15;exitX=0;exitY=0.5;exitDx=0;exitDy=0;strokeColor=#457B9D;fontColor=#1D3557;labelBackgroundColor=#F1FAEE;" parent="1" source="O7eM3cRz2Qc7sRw92bNk-1" edge="1">
                    <mxGeometry width="50" height="50" relative="1" as="geometry">
                        <mxPoint x="409" y="60" as="sourcePoint"/>
                        <mxPoint x="420" y="60" as="targetPoint"/>
                        <Array as="points">
                            <mxPoint x="420" y="100"/>
                        </Array>
                    </mxGeometry>
                </mxCell>
                <mxCell id="O7eM3cRz2Qc7sRw92bNk-12" value="&lt;font data-font-src=&quot;https://fonts.googleapis.com/css?family=Abel&quot; face=&quot;Abel&quot;&gt;&lt;b&gt;Block&lt;/b&gt;&lt;/font&gt;" style="text;html=1;strokeColor=none;fillColor=none;align=left;verticalAlign=middle;whiteSpace=wrap;rounded=0;fontFamily=Abel;fontSize=16;fontColor=#1D3557;" parent="1" vertex="1">
                    <mxGeometry x="320" width="80" height="30" as="geometry"/>
                </mxCell>
                <mxCell id="O7eM3cRz2Qc7sRw92bNk-15" value="&lt;span style=&quot;font-size: 16px;&quot;&gt;;&lt;/span&gt;" style="ellipse;whiteSpace=wrap;html=1;fillColor=#A8DADC;strokeColor=#457B9D;fontColor=#1D3557;rounded=1;fontFamily=Abel;" parent="1" vertex="1">
                    <mxGeometry x="640" y="480" width="40" height="40" as="geometry"/>
                </mxCell>
                <mxCell id="O7eM3cRz2Qc7sRw92bNk-16" value="" style="endArrow=classic;html=1;rounded=1;fontFamily=Verdana;fontSize=15;entryX=0;entryY=0.5;entryDx=0;entryDy=0;strokeColor=#457B9D;fontColor=#1D3557;labelBackgroundColor=#F1FAEE;" parent="1" target="O7eM3cRz2Qc7sRw92bNk-15" edge="1">
                    <mxGeometry width="50" height="50" relative="1" as="geometry">
                        <mxPoint x="10" y="500" as="sourcePoint"/>
                        <mxPoint x="179" y="560" as="targetPoint"/>
                        <Array as="points">
                            <mxPoint x="40" y="500"/>
                        </Array>
                    </mxGeometry>
                </mxCell>
                <mxCell id="O7eM3cRz2Qc7sRw92bNk-19" value="&lt;b&gt;Statement&lt;/b&gt;" style="text;html=1;strokeColor=none;fillColor=none;align=left;verticalAlign=middle;whiteSpace=wrap;rounded=0;fontFamily=Abel;fontSize=16;fontColor=#1D3557;" parent="1" vertex="1">
                    <mxGeometry y="440" width="80" height="30" as="geometry"/>
                </mxCell>
                <mxCell id="O7eM3cRz2Qc7sRw92bNk-20" value="" style="endArrow=classic;html=1;rounded=1;fontFamily=Courier New;fontSize=16;fontColor=#1D3557;strokeColor=#457B9D;fillColor=#A8DADC;entryX=0;entryY=0.5;entryDx=0;entryDy=0;labelBackgroundColor=#F1FAEE;" parent="1" target="O7eM3cRz2Qc7sRw92bNk-2" edge="1">
                    <mxGeometry width="50" height="50" relative="1" as="geometry">
                        <mxPoint x="330" y="60" as="sourcePoint"/>
                        <mxPoint x="620" y="140" as="targetPoint"/>
                    </mxGeometry>
                </mxCell>
                <mxCell id="O7eM3cRz2Qc7sRw92bNk-21" value="" style="endArrow=classic;html=1;rounded=1;fontFamily=Courier New;fontSize=16;fontColor=#1D3557;strokeColor=#457B9D;fillColor=#A8DADC;exitX=1;exitY=0.5;exitDx=0;exitDy=0;labelBackgroundColor=#F1FAEE;" parent="1" source="O7eM3cRz2Qc7sRw92bNk-3" edge="1">
                    <mxGeometry width="50" height="50" relative="1" as="geometry">
                        <mxPoint x="639" y="59.57999999999993" as="sourcePoint"/>
                        <mxPoint x="640" y="60" as="targetPoint"/>
                    </mxGeometry>
                </mxCell>
                <mxCell id="O7eM3cRz2Qc7sRw92bNk-22" value="" style="endArrow=classic;html=1;rounded=1;fontFamily=Courier New;fontSize=16;fontColor=#1D3557;strokeColor=#457B9D;fillColor=#A8DADC;exitX=1;exitY=0.5;exitDx=0;exitDy=0;labelBackgroundColor=#F1FAEE;" parent="1" source="O7eM3cRz2Qc7sRw92bNk-15" edge="1">
                    <mxGeometry width="50" height="50" relative="1" as="geometry">
                        <mxPoint x="920" y="499.5799999999999" as="sourcePoint"/>
                        <mxPoint x="840" y="500" as="targetPoint"/>
                    </mxGeometry>
                </mxCell>
                <mxCell id="O7eM3cRz2Qc7sRw92bNk-44" style="edgeStyle=elbowEdgeStyle;rounded=1;orthogonalLoop=1;jettySize=auto;elbow=vertical;html=1;exitX=1;exitY=0.5;exitDx=0;exitDy=0;entryX=0;entryY=0.5;entryDx=0;entryDy=0;fontFamily=Courier New;fontSize=16;fontColor=#1D3557;strokeColor=#457B9D;fillColor=#A8DADC;labelBackgroundColor=#F1FAEE;" parent="1" source="O7eM3cRz2Qc7sRw92bNk-23" target="O7eM3cRz2Qc7sRw92bNk-35" edge="1">
                    <mxGeometry relative="1" as="geometry"/>
                </mxCell>
                <mxCell id="O7eM3cRz2Qc7sRw92bNk-23" value="&lt;span style=&quot;font-size: 16px;&quot;&gt;&lt;font data-font-src=&quot;https://fonts.googleapis.com/css?family=Abel&quot; face=&quot;Abel&quot;&gt;Identifier&lt;/font&gt;&lt;/span&gt;" style="ellipse;whiteSpace=wrap;html=1;fillColor=#A8DADC;strokeColor=#457B9D;fontColor=#1D3557;rounded=1;" parent="1" vertex="1">
                    <mxGeometry x="80" y="540" width="80" height="40" as="geometry"/>
                </mxCell>
                <mxCell id="O7eM3cRz2Qc7sRw92bNk-24" value="" style="endArrow=classic;html=1;rounded=1;fontFamily=Verdana;fontSize=15;strokeColor=#457B9D;fontColor=#1D3557;entryX=0;entryY=0.5;entryDx=0;entryDy=0;labelBackgroundColor=#F1FAEE;" parent="1" target="O7eM3cRz2Qc7sRw92bNk-23" edge="1">
                    <mxGeometry width="50" height="50" relative="1" as="geometry">
                        <mxPoint x="60" y="500" as="sourcePoint"/>
                        <mxPoint x="70" y="560" as="targetPoint"/>
                        <Array as="points">
                            <mxPoint x="60" y="540"/>
                        </Array>
                    </mxGeometry>
                </mxCell>
                <mxCell id="O7eM3cRz2Qc7sRw92bNk-50" style="edgeStyle=orthogonalEdgeStyle;curved=0;rounded=1;sketch=0;orthogonalLoop=1;jettySize=auto;html=1;exitX=1;exitY=0.5;exitDx=0;exitDy=0;entryX=0;entryY=0.5;entryDx=0;entryDy=0;fontColor=#1D3557;strokeColor=#457B9D;fillColor=#A8DADC;labelBackgroundColor=#F1FAEE;" parent="1" source="O7eM3cRz2Qc7sRw92bNk-35" target="O7eM3cRz2Qc7sRw92bNk-49" edge="1">
                    <mxGeometry relative="1" as="geometry"/>
                </mxCell>
                <mxCell id="O7eM3cRz2Qc7sRw92bNk-35" value="&lt;span style=&quot;font-size: 16px;&quot;&gt;&lt;font data-font-src=&quot;https://fonts.googleapis.com/css?family=Abel&quot; face=&quot;Abel&quot;&gt;=&lt;/font&gt;&lt;/span&gt;" style="ellipse;whiteSpace=wrap;html=1;fillColor=#A8DADC;strokeColor=#457B9D;fontColor=#1D3557;rounded=1;" parent="1" vertex="1">
                    <mxGeometry x="200" y="540" width="40" height="40" as="geometry"/>
                </mxCell>
                <mxCell id="O7eM3cRz2Qc7sRw92bNk-49" value="&lt;font data-font-src=&quot;https://fonts.googleapis.com/css?family=Abel&quot; face=&quot;Abel&quot; style=&quot;font-size: 16px;&quot;&gt;RelExpression&lt;/font&gt;" style="rounded=1;whiteSpace=wrap;html=1;arcSize=0;fillColor=#A8DADC;strokeColor=#457B9D;fontColor=#1D3557;align=center;" parent="1" vertex="1">
                    <mxGeometry x="280" y="540" width="120" height="40" as="geometry"/>
                </mxCell>
                <mxCell id="O7eM3cRz2Qc7sRw92bNk-61" style="edgeStyle=orthogonalEdgeStyle;curved=0;rounded=1;sketch=0;orthogonalLoop=1;jettySize=auto;html=1;exitX=1;exitY=0.5;exitDx=0;exitDy=0;entryX=0;entryY=0.5;entryDx=0;entryDy=0;fontColor=#1D3557;strokeColor=#457B9D;fillColor=#A8DADC;labelBackgroundColor=#F1FAEE;" parent="1" edge="1">
                    <mxGeometry relative="1" as="geometry">
                        <mxPoint x="481" y="500" as="sourcePoint"/>
                    </mxGeometry>
                </mxCell>
                <mxCell id="O7eM3cRz2Qc7sRw92bNk-60" style="edgeStyle=orthogonalEdgeStyle;curved=0;rounded=1;sketch=0;orthogonalLoop=1;jettySize=auto;html=1;exitX=1;exitY=0.5;exitDx=0;exitDy=0;entryX=0;entryY=0.5;entryDx=0;entryDy=0;fontColor=#1D3557;strokeColor=#457B9D;fillColor=#A8DADC;labelBackgroundColor=#F1FAEE;" parent="1" edge="1">
                    <mxGeometry relative="1" as="geometry">
                        <mxPoint x="481" y="560" as="sourcePoint"/>
                    </mxGeometry>
                </mxCell>
                <mxCell id="O7eM3cRz2Qc7sRw92bNk-72" value="" style="endArrow=classic;html=1;rounded=1;fontFamily=Verdana;fontSize=15;strokeColor=#457B9D;fontColor=#1D3557;labelBackgroundColor=#F1FAEE;exitX=1;exitY=0.5;exitDx=0;exitDy=0;" parent="1" source="O7eM3cRz2Qc7sRw92bNk-49" edge="1">
                    <mxGeometry width="50" height="50" relative="1" as="geometry">
                        <mxPoint x="510" y="560" as="sourcePoint"/>
                        <mxPoint x="600" y="500" as="targetPoint"/>
                        <Array as="points">
                            <mxPoint x="580" y="560"/>
                            <mxPoint x="600" y="540"/>
                        </Array>
                    </mxGeometry>
                </mxCell>
                <mxCell id="O7eM3cRz2Qc7sRw92bNk-98" value="&lt;b&gt;Expression&lt;/b&gt;" style="text;html=1;strokeColor=none;fillColor=none;align=left;verticalAlign=middle;whiteSpace=wrap;rounded=0;fontFamily=Abel;fontSize=16;fontColor=#1D3557;" parent="1" vertex="1">
                    <mxGeometry x="240" y="1200" width="80" height="30" as="geometry"/>
                </mxCell>
                <mxCell id="O7eM3cRz2Qc7sRw92bNk-115" style="edgeStyle=elbowEdgeStyle;rounded=1;sketch=0;orthogonalLoop=1;jettySize=auto;elbow=vertical;html=1;entryX=0;entryY=0.5;entryDx=0;entryDy=0;fontColor=#1D3557;strokeColor=#457B9D;fillColor=#A8DADC;labelBackgroundColor=#F1FAEE;" parent="1" target="O7eM3cRz2Qc7sRw92bNk-117" edge="1">
                    <mxGeometry relative="1" as="geometry">
                        <mxPoint x="250" y="1260" as="sourcePoint"/>
                    </mxGeometry>
                </mxCell>
                <mxCell id="O7eM3cRz2Qc7sRw92bNk-116" style="edgeStyle=elbowEdgeStyle;rounded=1;sketch=0;orthogonalLoop=1;jettySize=auto;elbow=vertical;html=1;exitX=1;exitY=0.5;exitDx=0;exitDy=0;fontColor=#1D3557;strokeColor=#457B9D;fillColor=#A8DADC;labelBackgroundColor=#F1FAEE;" parent="1" source="O7eM3cRz2Qc7sRw92bNk-117" edge="1">
                    <mxGeometry relative="1" as="geometry">
                        <mxPoint x="400" y="1260" as="targetPoint"/>
                    </mxGeometry>
                </mxCell>
                <mxCell id="O7eM3cRz2Qc7sRw92bNk-117" value="&lt;font data-font-src=&quot;https://fonts.googleapis.com/css?family=Abel&quot; face=&quot;Abel&quot; style=&quot;font-size: 16px;&quot;&gt;Term&lt;/font&gt;" style="rounded=1;whiteSpace=wrap;html=1;arcSize=0;fillColor=#A8DADC;strokeColor=#457B9D;fontColor=#1D3557;align=center;" parent="1" vertex="1">
                    <mxGeometry x="280" y="1240" width="80" height="40" as="geometry"/>
                </mxCell>
                <mxCell id="O7eM3cRz2Qc7sRw92bNk-118" value="&lt;span style=&quot;font-size: 16px;&quot;&gt;&lt;font data-font-src=&quot;https://fonts.googleapis.com/css?family=Abel&quot; face=&quot;Abel&quot;&gt;+&lt;/font&gt;&lt;/span&gt;" style="ellipse;whiteSpace=wrap;html=1;fillColor=#A8DADC;strokeColor=#457B9D;fontColor=#1D3557;rounded=1;" parent="1" vertex="1">
                    <mxGeometry x="300" y="1300" width="40" height="40" as="geometry"/>
                </mxCell>
                <mxCell id="O7eM3cRz2Qc7sRw92bNk-119" value="&lt;span style=&quot;font-size: 16px;&quot;&gt;&lt;font data-font-src=&quot;https://fonts.googleapis.com/css?family=Abel&quot; face=&quot;Abel&quot;&gt;-&lt;/font&gt;&lt;/span&gt;" style="ellipse;whiteSpace=wrap;html=1;fillColor=#A8DADC;strokeColor=#457B9D;fontColor=#1D3557;rounded=1;" parent="1" vertex="1">
                    <mxGeometry x="300" y="1360" width="40" height="40" as="geometry"/>
                </mxCell>
                <mxCell id="O7eM3cRz2Qc7sRw92bNk-121" value="" style="endArrow=classic;html=1;rounded=1;fontFamily=Verdana;fontSize=15;entryX=1;entryY=0.5;entryDx=0;entryDy=0;strokeColor=#457B9D;fontColor=#1D3557;labelBackgroundColor=#F1FAEE;" parent="1" target="O7eM3cRz2Qc7sRw92bNk-118" edge="1">
                    <mxGeometry width="50" height="50" relative="1" as="geometry">
                        <mxPoint x="380" y="1260" as="sourcePoint"/>
                        <mxPoint x="400" y="1320" as="targetPoint"/>
                        <Array as="points">
                            <mxPoint x="380" y="1300"/>
                            <mxPoint x="360" y="1320"/>
                        </Array>
                    </mxGeometry>
                </mxCell>
                <mxCell id="O7eM3cRz2Qc7sRw92bNk-122" value="" style="endArrow=classic;html=1;rounded=1;fontFamily=Verdana;fontSize=15;entryX=1;entryY=0.5;entryDx=0;entryDy=0;strokeColor=#457B9D;fontColor=#1D3557;labelBackgroundColor=#F1FAEE;" parent="1" target="O7eM3cRz2Qc7sRw92bNk-119" edge="1">
                    <mxGeometry width="50" height="50" relative="1" as="geometry">
                        <mxPoint x="380" y="1260" as="sourcePoint"/>
                        <mxPoint x="360" y="1380" as="targetPoint"/>
                        <Array as="points">
                            <mxPoint x="380" y="1360"/>
                            <mxPoint x="360" y="1380"/>
                        </Array>
                    </mxGeometry>
                </mxCell>
                <mxCell id="O7eM3cRz2Qc7sRw92bNk-124" value="" style="endArrow=classic;html=1;rounded=1;fontFamily=Verdana;fontSize=15;strokeColor=#457B9D;fontColor=#1D3557;labelBackgroundColor=#F1FAEE;exitX=0;exitY=0.5;exitDx=0;exitDy=0;" parent="1" source="O7eM3cRz2Qc7sRw92bNk-118" edge="1">
                    <mxGeometry width="50" height="50" relative="1" as="geometry">
                        <mxPoint x="310" y="1320" as="sourcePoint"/>
                        <mxPoint x="260" y="1260" as="targetPoint"/>
                        <Array as="points">
                            <mxPoint x="280" y="1320"/>
                            <mxPoint x="260" y="1300"/>
                        </Array>
                    </mxGeometry>
                </mxCell>
                <mxCell id="O7eM3cRz2Qc7sRw92bNk-125" value="" style="endArrow=classic;html=1;rounded=1;fontFamily=Verdana;fontSize=15;strokeColor=#457B9D;fontColor=#1D3557;labelBackgroundColor=#F1FAEE;exitX=0;exitY=0.5;exitDx=0;exitDy=0;" parent="1" source="O7eM3cRz2Qc7sRw92bNk-119" edge="1">
                    <mxGeometry width="50" height="50" relative="1" as="geometry">
                        <mxPoint x="320" y="1380" as="sourcePoint"/>
                        <mxPoint x="260" y="1260" as="targetPoint"/>
                        <Array as="points">
                            <mxPoint x="280" y="1380"/>
                            <mxPoint x="260" y="1360"/>
                        </Array>
                    </mxGeometry>
                </mxCell>
                <mxCell id="O7eM3cRz2Qc7sRw92bNk-127" value="&lt;b&gt;Term&lt;/b&gt;" style="text;html=1;strokeColor=none;fillColor=none;align=left;verticalAlign=middle;whiteSpace=wrap;rounded=0;fontFamily=Abel;fontSize=16;fontColor=#1D3557;" parent="1" vertex="1">
                    <mxGeometry x="480" y="1200" width="80" height="30" as="geometry"/>
                </mxCell>
                <mxCell id="O7eM3cRz2Qc7sRw92bNk-128" style="edgeStyle=elbowEdgeStyle;rounded=1;sketch=0;orthogonalLoop=1;jettySize=auto;elbow=vertical;html=1;entryX=0;entryY=0.5;entryDx=0;entryDy=0;fontColor=#1D3557;strokeColor=#457B9D;fillColor=#A8DADC;labelBackgroundColor=#F1FAEE;" parent="1" target="O7eM3cRz2Qc7sRw92bNk-130" edge="1">
                    <mxGeometry relative="1" as="geometry">
                        <mxPoint x="490" y="1260" as="sourcePoint"/>
                    </mxGeometry>
                </mxCell>
                <mxCell id="O7eM3cRz2Qc7sRw92bNk-129" style="edgeStyle=elbowEdgeStyle;rounded=1;sketch=0;orthogonalLoop=1;jettySize=auto;elbow=vertical;html=1;exitX=1;exitY=0.5;exitDx=0;exitDy=0;fontColor=#1D3557;strokeColor=#457B9D;fillColor=#A8DADC;labelBackgroundColor=#F1FAEE;" parent="1" source="O7eM3cRz2Qc7sRw92bNk-130" edge="1">
                    <mxGeometry relative="1" as="geometry">
                        <mxPoint x="640" y="1260" as="targetPoint"/>
                    </mxGeometry>
                </mxCell>
                <mxCell id="O7eM3cRz2Qc7sRw92bNk-130" value="&lt;font data-font-src=&quot;https://fonts.googleapis.com/css?family=Abel&quot; face=&quot;Abel&quot; style=&quot;font-size: 16px;&quot;&gt;Factor&lt;/font&gt;" style="rounded=1;whiteSpace=wrap;html=1;arcSize=0;fillColor=#A8DADC;strokeColor=#457B9D;fontColor=#1D3557;align=center;" parent="1" vertex="1">
                    <mxGeometry x="520" y="1240" width="80" height="40" as="geometry"/>
                </mxCell>
                <mxCell id="O7eM3cRz2Qc7sRw92bNk-131" value="&lt;span style=&quot;font-size: 16px;&quot;&gt;&lt;font data-font-src=&quot;https://fonts.googleapis.com/css?family=Abel&quot; face=&quot;Abel&quot;&gt;*&lt;/font&gt;&lt;/span&gt;" style="ellipse;whiteSpace=wrap;html=1;fillColor=#A8DADC;strokeColor=#457B9D;fontColor=#1D3557;rounded=1;" parent="1" vertex="1">
                    <mxGeometry x="540" y="1300" width="40" height="40" as="geometry"/>
                </mxCell>
                <mxCell id="O7eM3cRz2Qc7sRw92bNk-132" value="&lt;span style=&quot;font-size: 16px;&quot;&gt;&lt;font data-font-src=&quot;https://fonts.googleapis.com/css?family=Abel&quot; face=&quot;Abel&quot;&gt;/&lt;/font&gt;&lt;/span&gt;" style="ellipse;whiteSpace=wrap;html=1;fillColor=#A8DADC;strokeColor=#457B9D;fontColor=#1D3557;rounded=1;" parent="1" vertex="1">
                    <mxGeometry x="540" y="1360" width="40" height="40" as="geometry"/>
                </mxCell>
                <mxCell id="O7eM3cRz2Qc7sRw92bNk-134" value="" style="endArrow=classic;html=1;rounded=1;fontFamily=Verdana;fontSize=15;entryX=1;entryY=0.5;entryDx=0;entryDy=0;strokeColor=#457B9D;fontColor=#1D3557;labelBackgroundColor=#F1FAEE;" parent="1" target="O7eM3cRz2Qc7sRw92bNk-131" edge="1">
                    <mxGeometry width="50" height="50" relative="1" as="geometry">
                        <mxPoint x="620" y="1260" as="sourcePoint"/>
                        <mxPoint x="640" y="1320" as="targetPoint"/>
                        <Array as="points">
                            <mxPoint x="620" y="1300"/>
                            <mxPoint x="600" y="1320"/>
                        </Array>
                    </mxGeometry>
                </mxCell>
                <mxCell id="O7eM3cRz2Qc7sRw92bNk-135" value="" style="endArrow=classic;html=1;rounded=1;fontFamily=Verdana;fontSize=15;entryX=1;entryY=0.5;entryDx=0;entryDy=0;strokeColor=#457B9D;fontColor=#1D3557;labelBackgroundColor=#F1FAEE;" parent="1" target="O7eM3cRz2Qc7sRw92bNk-132" edge="1">
                    <mxGeometry width="50" height="50" relative="1" as="geometry">
                        <mxPoint x="620" y="1260" as="sourcePoint"/>
                        <mxPoint x="600" y="1380" as="targetPoint"/>
                        <Array as="points">
                            <mxPoint x="620" y="1360"/>
                            <mxPoint x="600" y="1380"/>
                        </Array>
                    </mxGeometry>
                </mxCell>
                <mxCell id="O7eM3cRz2Qc7sRw92bNk-137" value="" style="endArrow=classic;html=1;rounded=1;fontFamily=Verdana;fontSize=15;strokeColor=#457B9D;fontColor=#1D3557;labelBackgroundColor=#F1FAEE;exitX=0;exitY=0.5;exitDx=0;exitDy=0;" parent="1" source="O7eM3cRz2Qc7sRw92bNk-131" edge="1">
                    <mxGeometry width="50" height="50" relative="1" as="geometry">
                        <mxPoint x="550" y="1320" as="sourcePoint"/>
                        <mxPoint x="500" y="1260" as="targetPoint"/>
                        <Array as="points">
                            <mxPoint x="520" y="1320"/>
                            <mxPoint x="500" y="1300"/>
                        </Array>
                    </mxGeometry>
                </mxCell>
                <mxCell id="O7eM3cRz2Qc7sRw92bNk-138" value="" style="endArrow=classic;html=1;rounded=1;fontFamily=Verdana;fontSize=15;strokeColor=#457B9D;fontColor=#1D3557;labelBackgroundColor=#F1FAEE;exitX=0;exitY=0.5;exitDx=0;exitDy=0;" parent="1" source="O7eM3cRz2Qc7sRw92bNk-132" edge="1">
                    <mxGeometry width="50" height="50" relative="1" as="geometry">
                        <mxPoint x="560" y="1380" as="sourcePoint"/>
                        <mxPoint x="500" y="1260" as="targetPoint"/>
                        <Array as="points">
                            <mxPoint x="520" y="1380"/>
                            <mxPoint x="500" y="1360"/>
                        </Array>
                    </mxGeometry>
                </mxCell>
                <mxCell id="O7eM3cRz2Qc7sRw92bNk-190" value="" style="endArrow=classic;html=1;rounded=1;fontFamily=Verdana;fontSize=15;strokeColor=#457B9D;fontColor=#1D3557;labelBackgroundColor=#F1FAEE;entryX=0;entryY=0.5;entryDx=0;entryDy=0;" parent="1" target="O7eM3cRz2Qc7sRw92bNk-196" edge="1">
                    <mxGeometry width="50" height="50" relative="1" as="geometry">
                        <mxPoint x="730" y="1260" as="sourcePoint"/>
                        <mxPoint x="940" y="1260" as="targetPoint"/>
                    </mxGeometry>
                </mxCell>
                <mxCell id="O7eM3cRz2Qc7sRw92bNk-191" value="" style="endArrow=classic;html=1;rounded=1;fontFamily=Verdana;fontSize=15;strokeColor=#457B9D;fontColor=#1D3557;entryX=0;entryY=0.5;entryDx=0;entryDy=0;labelBackgroundColor=#F1FAEE;" parent="1" target="O7eM3cRz2Qc7sRw92bNk-200" edge="1">
                    <mxGeometry width="50" height="50" relative="1" as="geometry">
                        <mxPoint x="780" y="1260" as="sourcePoint"/>
                        <mxPoint x="790.0000000000016" y="1680" as="targetPoint"/>
                        <Array as="points">
                            <mxPoint x="780" y="1660"/>
                        </Array>
                    </mxGeometry>
                </mxCell>
                <mxCell id="O7eM3cRz2Qc7sRw92bNk-192" value="" style="endArrow=classic;html=1;rounded=1;fontFamily=Verdana;fontSize=15;entryX=0;entryY=0.5;entryDx=0;entryDy=0;strokeColor=#457B9D;fontColor=#1D3557;labelBackgroundColor=#F1FAEE;" parent="1" target="O7eM3cRz2Qc7sRw92bNk-199" edge="1">
                    <mxGeometry width="50" height="50" relative="1" as="geometry">
                        <mxPoint x="780" y="1260" as="sourcePoint"/>
                        <mxPoint x="790.0000000000016" y="1620" as="targetPoint"/>
                        <Array as="points">
                            <mxPoint x="780" y="1600"/>
                        </Array>
                    </mxGeometry>
                </mxCell>
                <mxCell id="O7eM3cRz2Qc7sRw92bNk-195" value="&lt;b&gt;Factor&lt;/b&gt;" style="text;html=1;strokeColor=none;fillColor=none;align=left;verticalAlign=middle;whiteSpace=wrap;rounded=0;fontFamily=Abel;fontSize=16;fontColor=#1D3557;" parent="1" vertex="1">
                    <mxGeometry x="720" y="1200" width="80" height="30" as="geometry"/>
                </mxCell>
                <mxCell id="O7eM3cRz2Qc7sRw92bNk-219" style="edgeStyle=elbowEdgeStyle;rounded=1;sketch=0;orthogonalLoop=1;jettySize=auto;elbow=vertical;html=1;exitX=1;exitY=0.5;exitDx=0;exitDy=0;fontColor=#1D3557;strokeColor=#457B9D;fillColor=#A8DADC;labelBackgroundColor=#F1FAEE;" parent="1" source="O7eM3cRz2Qc7sRw92bNk-196" edge="1">
                    <mxGeometry relative="1" as="geometry">
                        <mxPoint x="1360" y="1260" as="targetPoint"/>
                        <Array as="points"/>
                    </mxGeometry>
                </mxCell>
                <mxCell id="O7eM3cRz2Qc7sRw92bNk-196" value="&lt;span style=&quot;font-size: 16px;&quot;&gt;&lt;font data-font-src=&quot;https://fonts.googleapis.com/css?family=Abel&quot; face=&quot;Abel&quot;&gt;Number&lt;/font&gt;&lt;/span&gt;" style="ellipse;whiteSpace=wrap;html=1;fillColor=#A8DADC;strokeColor=#457B9D;fontColor=#1D3557;rounded=1;" parent="1" vertex="1">
                    <mxGeometry x="880" y="1240" width="80" height="40" as="geometry"/>
                </mxCell>
                <mxCell id="O7eM3cRz2Qc7sRw92bNk-197" value="&lt;font face=&quot;Abel&quot;&gt;&lt;span style=&quot;font-size: 16px;&quot;&gt;String&lt;/span&gt;&lt;/font&gt;" style="ellipse;whiteSpace=wrap;html=1;fillColor=#A8DADC;strokeColor=#457B9D;fontColor=#1D3557;rounded=1;" parent="1" vertex="1">
                    <mxGeometry x="880" y="1300" width="80" height="40" as="geometry"/>
                </mxCell>
                <mxCell id="O7eM3cRz2Qc7sRw92bNk-198" value="" style="endArrow=classic;html=1;rounded=1;fontFamily=Verdana;fontSize=15;strokeColor=#457B9D;fontColor=#1D3557;labelBackgroundColor=#F1FAEE;entryX=0;entryY=0.5;entryDx=0;entryDy=0;" parent="1" target="O7eM3cRz2Qc7sRw92bNk-197" edge="1">
                    <mxGeometry width="50" height="50" relative="1" as="geometry">
                        <mxPoint x="780" y="1260" as="sourcePoint"/>
                        <mxPoint x="960" y="1320" as="targetPoint"/>
                        <Array as="points">
                            <mxPoint x="780" y="1300"/>
                            <mxPoint x="800" y="1320"/>
                        </Array>
                    </mxGeometry>
                </mxCell>
                <mxCell id="O7eM3cRz2Qc7sRw92bNk-206" style="edgeStyle=elbowEdgeStyle;rounded=1;sketch=0;orthogonalLoop=1;jettySize=auto;elbow=vertical;html=1;exitX=1;exitY=0.5;exitDx=0;exitDy=0;entryX=0;entryY=0.5;entryDx=0;entryDy=0;fontColor=#1D3557;strokeColor=#457B9D;fillColor=#A8DADC;labelBackgroundColor=#F1FAEE;" parent="1" source="O7eM3cRz2Qc7sRw92bNk-199" target="O7eM3cRz2Qc7sRw92bNk-205" edge="1">
                    <mxGeometry relative="1" as="geometry"/>
                </mxCell>
                <mxCell id="O7eM3cRz2Qc7sRw92bNk-199" value="&lt;span style=&quot;font-size: 16px;&quot;&gt;&lt;font data-font-src=&quot;https://fonts.googleapis.com/css?family=Abel&quot; face=&quot;Abel&quot;&gt;+&lt;/font&gt;&lt;/span&gt;" style="ellipse;whiteSpace=wrap;html=1;fillColor=#A8DADC;strokeColor=#457B9D;fontColor=#1D3557;rounded=1;" parent="1" vertex="1">
                    <mxGeometry x="800" y="1600" width="40" height="40" as="geometry"/>
                </mxCell>
                <mxCell id="O7eM3cRz2Qc7sRw92bNk-200" value="&lt;span style=&quot;font-size: 16px;&quot;&gt;&lt;font data-font-src=&quot;https://fonts.googleapis.com/css?family=Abel&quot; face=&quot;Abel&quot;&gt;-&lt;/font&gt;&lt;/span&gt;" style="ellipse;whiteSpace=wrap;html=1;fillColor=#A8DADC;strokeColor=#457B9D;fontColor=#1D3557;rounded=1;" parent="1" vertex="1">
                    <mxGeometry x="800" y="1660" width="40" height="40" as="geometry"/>
                </mxCell>
                <mxCell id="O7eM3cRz2Qc7sRw92bNk-212" style="edgeStyle=elbowEdgeStyle;rounded=1;sketch=0;orthogonalLoop=1;jettySize=auto;elbow=vertical;html=1;entryX=0;entryY=0.5;entryDx=0;entryDy=0;fontColor=#1D3557;strokeColor=#457B9D;fillColor=#A8DADC;labelBackgroundColor=#F1FAEE;exitX=1;exitY=0.5;exitDx=0;exitDy=0;" parent="1" source="K5DylDMR5U2sn6sFDK5y-489" target="O7eM3cRz2Qc7sRw92bNk-214" edge="1">
                    <mxGeometry relative="1" as="geometry">
                        <mxPoint x="870" y="1800" as="targetPoint"/>
                        <mxPoint x="850" y="1810" as="sourcePoint"/>
                    </mxGeometry>
                </mxCell>
                <mxCell id="O7eM3cRz2Qc7sRw92bNk-205" value="&lt;font data-font-src=&quot;https://fonts.googleapis.com/css?family=Abel&quot; face=&quot;Abel&quot; style=&quot;font-size: 16px;&quot;&gt;Factor&lt;/font&gt;" style="rounded=1;whiteSpace=wrap;html=1;arcSize=0;fillColor=#A8DADC;strokeColor=#457B9D;fontColor=#1D3557;align=center;" parent="1" vertex="1">
                    <mxGeometry x="880" y="1600" width="80" height="40" as="geometry"/>
                </mxCell>
                <mxCell id="O7eM3cRz2Qc7sRw92bNk-207" value="" style="endArrow=classic;html=1;rounded=1;fontFamily=Verdana;fontSize=15;strokeColor=#457B9D;fontColor=#1D3557;labelBackgroundColor=#F1FAEE;exitX=1;exitY=0.5;exitDx=0;exitDy=0;" parent="1" source="O7eM3cRz2Qc7sRw92bNk-200" edge="1">
                    <mxGeometry width="50" height="50" relative="1" as="geometry">
                        <mxPoint x="690" y="1680" as="sourcePoint"/>
                        <mxPoint x="860" y="1620" as="targetPoint"/>
                        <Array as="points">
                            <mxPoint x="850" y="1680"/>
                            <mxPoint x="860" y="1670"/>
                        </Array>
                    </mxGeometry>
                </mxCell>
                <mxCell id="O7eM3cRz2Qc7sRw92bNk-213" style="edgeStyle=elbowEdgeStyle;rounded=1;sketch=0;orthogonalLoop=1;jettySize=auto;elbow=vertical;html=1;exitX=1;exitY=0.5;exitDx=0;exitDy=0;entryX=0;entryY=0.5;entryDx=0;entryDy=0;fontColor=#1D3557;strokeColor=#457B9D;fillColor=#A8DADC;labelBackgroundColor=#F1FAEE;" parent="1" source="O7eM3cRz2Qc7sRw92bNk-214" target="O7eM3cRz2Qc7sRw92bNk-211" edge="1">
                    <mxGeometry relative="1" as="geometry">
                        <mxPoint x="990" y="1800" as="sourcePoint"/>
                    </mxGeometry>
                </mxCell>
                <mxCell id="O7eM3cRz2Qc7sRw92bNk-211" value="&lt;span style=&quot;font-size: 16px;&quot;&gt;&lt;font data-font-src=&quot;https://fonts.googleapis.com/css?family=Abel&quot; face=&quot;Abel&quot;&gt;)&lt;/font&gt;&lt;/span&gt;" style="ellipse;whiteSpace=wrap;html=1;fillColor=#A8DADC;strokeColor=#457B9D;fontColor=#1D3557;rounded=1;" parent="1" vertex="1">
                    <mxGeometry x="1040" y="1780" width="40" height="40" as="geometry"/>
                </mxCell>
                <mxCell id="O7eM3cRz2Qc7sRw92bNk-214" value="&lt;span style=&quot;font-family: Abel; font-size: 16px;&quot;&gt;RelExpression&lt;/span&gt;" style="rounded=1;whiteSpace=wrap;html=1;arcSize=0;fillColor=#A8DADC;strokeColor=#457B9D;fontColor=#1D3557;align=center;" parent="1" vertex="1">
                    <mxGeometry x="880" y="1780" width="120" height="40" as="geometry"/>
                </mxCell>
                <mxCell id="O7eM3cRz2Qc7sRw92bNk-220" value="" style="endArrow=classic;html=1;rounded=1;fontFamily=Verdana;fontSize=15;strokeColor=#457B9D;fontColor=#1D3557;labelBackgroundColor=#F1FAEE;exitX=1;exitY=0.5;exitDx=0;exitDy=0;" parent="1" source="O7eM3cRz2Qc7sRw92bNk-197" edge="1">
                    <mxGeometry width="50" height="50" relative="1" as="geometry">
                        <mxPoint x="1280" y="1320" as="sourcePoint"/>
                        <mxPoint x="1320" y="1260" as="targetPoint"/>
                        <Array as="points">
                            <mxPoint x="1300" y="1320"/>
                            <mxPoint x="1320" y="1300"/>
                        </Array>
                    </mxGeometry>
                </mxCell>
                <mxCell id="O7eM3cRz2Qc7sRw92bNk-221" value="" style="endArrow=classic;html=1;rounded=1;fontFamily=Verdana;fontSize=15;strokeColor=#457B9D;fontColor=#1D3557;labelBackgroundColor=#F1FAEE;exitX=1;exitY=0.5;exitDx=0;exitDy=0;" parent="1" source="O7eM3cRz2Qc7sRw92bNk-205" edge="1">
                    <mxGeometry width="50" height="50" relative="1" as="geometry">
                        <mxPoint x="1281" y="1620" as="sourcePoint"/>
                        <mxPoint x="1320" y="1260" as="targetPoint"/>
                        <Array as="points">
                            <mxPoint x="1300" y="1620"/>
                            <mxPoint x="1320" y="1600"/>
                        </Array>
                    </mxGeometry>
                </mxCell>
                <mxCell id="O7eM3cRz2Qc7sRw92bNk-235" value="EBNF" style="shape=table;startSize=40;container=1;collapsible=0;childLayout=tableLayout;fontStyle=1;align=center;rounded=0;sketch=0;fontColor=#1D3557;strokeColor=#457B9D;fillColor=#A8DADC;rowLines=1;columnLines=0;swimlaneLine=1;fontFamily=Abel;" parent="1" vertex="1">
                    <mxGeometry x="1160" width="840" height="930" as="geometry"/>
                </mxCell>
                <mxCell id="O7eM3cRz2Qc7sRw92bNk-236" value="" style="shape=tableRow;horizontal=0;startSize=0;swimlaneHead=0;swimlaneBody=0;top=0;left=0;bottom=0;right=0;collapsible=0;dropTarget=0;fillColor=none;points=[[0,0.5],[1,0.5]];portConstraint=eastwest;rounded=0;sketch=0;fontColor=#1D3557;strokeColor=#457B9D;" parent="O7eM3cRz2Qc7sRw92bNk-235" vertex="1">
                    <mxGeometry y="40" width="840" height="40" as="geometry"/>
                </mxCell>
                <mxCell id="O7eM3cRz2Qc7sRw92bNk-277" value="&lt;font style=&quot;font-size: 14px;&quot;&gt;PROGRAM =&lt;/font&gt;" style="shape=partialRectangle;html=1;whiteSpace=wrap;connectable=0;fillColor=#FFFFFF;top=0;left=0;bottom=0;right=0;overflow=hidden;rounded=0;sketch=0;fontColor=#3867A8;strokeColor=#457B9D;align=left;spacingLeft=5;fontFamily=Abel;" parent="O7eM3cRz2Qc7sRw92bNk-236" vertex="1">
                    <mxGeometry width="164" height="40" as="geometry">
                        <mxRectangle width="164" height="40" as="alternateBounds"/>
                    </mxGeometry>
                </mxCell>
                <mxCell id="O7eM3cRz2Qc7sRw92bNk-291" value="&lt;span style=&quot;color: rgb(29, 53, 87); font-style: normal; font-variant-ligatures: normal; font-variant-caps: normal; letter-spacing: normal; orphans: 2; text-align: left; text-indent: 0px; text-transform: none; widows: 2; word-spacing: 0px; -webkit-text-stroke-width: 0px; background-color: rgb(248, 249, 250); text-decoration-thickness: initial; text-decoration-style: initial; text-decoration-color: initial; float: none; display: inline !important;&quot;&gt;&lt;font style=&quot;font-size: 14px;&quot;&gt;&lt;b style=&quot;&quot;&gt;{ &lt;/b&gt;DECLARATION &lt;b&gt;}&lt;/b&gt;&lt;span style=&quot;font-weight: bold; white-space: pre;&quot;&gt;&#9;&lt;/span&gt;&lt;b&gt;;&lt;/b&gt;&lt;/font&gt;&lt;/span&gt;" style="shape=partialRectangle;html=1;whiteSpace=wrap;connectable=0;fillColor=#FCFCFC;top=0;left=0;bottom=0;right=0;overflow=hidden;rounded=0;sketch=0;fontColor=#1D3557;strokeColor=#457B9D;align=left;fontFamily=Abel;" parent="O7eM3cRz2Qc7sRw92bNk-236" vertex="1">
                    <mxGeometry x="164" width="676" height="40" as="geometry">
                        <mxRectangle width="676" height="40" as="alternateBounds"/>
                    </mxGeometry>
                </mxCell>
                <mxCell id="O7eM3cRz2Qc7sRw92bNk-240" value="" style="shape=tableRow;horizontal=0;startSize=0;swimlaneHead=0;swimlaneBody=0;top=0;left=0;bottom=0;right=0;collapsible=0;dropTarget=0;fillColor=none;points=[[0,0.5],[1,0.5]];portConstraint=eastwest;rounded=0;sketch=0;fontColor=#1D3557;strokeColor=#457B9D;" parent="O7eM3cRz2Qc7sRw92bNk-235" vertex="1">
                    <mxGeometry y="80" width="840" height="40" as="geometry"/>
                </mxCell>
                <mxCell id="O7eM3cRz2Qc7sRw92bNk-278" value="&lt;font style=&quot;font-size: 14px;&quot;&gt;DECLARATION =&lt;/font&gt;" style="shape=partialRectangle;html=1;whiteSpace=wrap;connectable=0;fillColor=#FFFFFF;top=0;left=0;bottom=0;right=0;overflow=hidden;rounded=0;sketch=0;fontColor=#3867A8;strokeColor=#457B9D;align=left;spacingLeft=5;fontFamily=Abel;" parent="O7eM3cRz2Qc7sRw92bNk-240" vertex="1">
                    <mxGeometry width="164" height="40" as="geometry">
                        <mxRectangle width="164" height="40" as="alternateBounds"/>
                    </mxGeometry>
                </mxCell>
                <mxCell id="O7eM3cRz2Qc7sRw92bNk-292" value="&lt;font style=&quot;font-size: 14px;&quot;&gt;'funcao',&amp;nbsp; IDENTIFIER, '(', &lt;b style=&quot;&quot;&gt;(&lt;/b&gt;&amp;nbsp;')'&amp;nbsp;&lt;b style=&quot;color: rgb(56, 103, 168);&quot;&gt;|&lt;/b&gt;&lt;span style=&quot;color: rgb(56, 103, 168);&quot;&gt;&amp;nbsp;&lt;/span&gt;&amp;nbsp;&lt;span style=&quot;color: rgb(56, 103, 168);&quot;&gt;FUNC_INDENT&lt;/span&gt;, &lt;b style=&quot;&quot;&gt;{&lt;/b&gt;&amp;nbsp;',',&amp;nbsp;&lt;span style=&quot;color: rgb(56, 103, 168);&quot;&gt;FUNC_INDENT &lt;b&gt;}&lt;/b&gt;,&amp;nbsp;&lt;/span&gt;')'&amp;nbsp;&lt;b style=&quot;&quot;&gt;)&lt;/b&gt;,&amp;nbsp;&lt;b&gt;(&lt;/b&gt;&amp;nbsp;λ&amp;nbsp;&lt;b&gt;|&amp;nbsp;&lt;/b&gt;&lt;b style=&quot;&quot;&gt;(&lt;/b&gt; '-&amp;gt;', TYPE &lt;b style=&quot;&quot;&gt;)&lt;/b&gt;&amp;nbsp;&lt;b&gt;)&lt;/b&gt;, BLOCK&lt;span style=&quot;white-space: pre;&quot;&gt;&#9;&lt;/span&gt;&lt;b&gt;;&lt;/b&gt;&lt;/font&gt;" style="shape=partialRectangle;html=1;whiteSpace=wrap;connectable=0;fillColor=#FCFCFC;top=0;left=0;bottom=0;right=0;overflow=hidden;rounded=0;sketch=0;fontColor=#1D3557;strokeColor=#457B9D;align=left;fontFamily=Abel;" parent="O7eM3cRz2Qc7sRw92bNk-240" vertex="1">
                    <mxGeometry x="164" width="676" height="40" as="geometry">
                        <mxRectangle width="676" height="40" as="alternateBounds"/>
                    </mxGeometry>
                </mxCell>
                <mxCell id="O7eM3cRz2Qc7sRw92bNk-283" style="shape=tableRow;horizontal=0;startSize=0;swimlaneHead=0;swimlaneBody=0;top=0;left=0;bottom=0;right=0;collapsible=0;dropTarget=0;fillColor=none;points=[[0,0.5],[1,0.5]];portConstraint=eastwest;rounded=0;sketch=0;fontColor=#1D3557;strokeColor=#457B9D;" parent="O7eM3cRz2Qc7sRw92bNk-235" vertex="1">
                    <mxGeometry y="120" width="840" height="40" as="geometry"/>
                </mxCell>
                <mxCell id="O7eM3cRz2Qc7sRw92bNk-284" value="&lt;span style=&quot;font-size: 14px;&quot;&gt;BLOCK =&lt;/span&gt;" style="shape=partialRectangle;html=1;whiteSpace=wrap;connectable=0;fillColor=#FFFFFF;top=0;left=0;bottom=0;right=0;overflow=hidden;rounded=0;sketch=0;fontColor=#3867A8;strokeColor=#457B9D;align=left;spacingLeft=5;fontFamily=Abel;" parent="O7eM3cRz2Qc7sRw92bNk-283" vertex="1">
                    <mxGeometry width="164" height="40" as="geometry">
                        <mxRectangle width="164" height="40" as="alternateBounds"/>
                    </mxGeometry>
                </mxCell>
                <mxCell id="O7eM3cRz2Qc7sRw92bNk-293" value="&lt;span style=&quot;font-size: 14px;&quot;&gt;'{',&amp;nbsp;&lt;/span&gt;&lt;b style=&quot;font-size: 14px;&quot;&gt;{&lt;/b&gt;&lt;span style=&quot;font-size: 14px;&quot;&gt;&amp;nbsp;STATEMENT&amp;nbsp;&lt;/span&gt;&lt;b style=&quot;font-size: 14px;&quot;&gt;}&lt;/b&gt;&lt;span style=&quot;font-size: 14px;&quot;&gt;, '}'&lt;span style=&quot;white-space: pre;&quot;&gt;&#9;&lt;/span&gt;&lt;/span&gt;&lt;span style=&quot;font-size: 14px;&quot;&gt;&lt;b&gt;;&lt;/b&gt;&lt;/span&gt;" style="shape=partialRectangle;html=1;whiteSpace=wrap;connectable=0;fillColor=#FCFCFC;top=0;left=0;bottom=0;right=0;overflow=hidden;rounded=0;sketch=0;fontColor=#1D3557;strokeColor=#457B9D;align=left;fontFamily=Abel;" parent="O7eM3cRz2Qc7sRw92bNk-283" vertex="1">
                    <mxGeometry x="164" width="676" height="40" as="geometry">
                        <mxRectangle width="676" height="40" as="alternateBounds"/>
                    </mxGeometry>
                </mxCell>
                <mxCell id="O7eM3cRz2Qc7sRw92bNk-285" style="shape=tableRow;horizontal=0;startSize=0;swimlaneHead=0;swimlaneBody=0;top=0;left=0;bottom=0;right=0;collapsible=0;dropTarget=0;fillColor=none;points=[[0,0.5],[1,0.5]];portConstraint=eastwest;rounded=0;sketch=0;fontColor=#1D3557;strokeColor=#457B9D;" parent="O7eM3cRz2Qc7sRw92bNk-235" vertex="1">
                    <mxGeometry y="160" width="840" height="40" as="geometry"/>
                </mxCell>
                <mxCell id="O7eM3cRz2Qc7sRw92bNk-286" value="&lt;span style=&quot;font-size: 14px;&quot;&gt;STATEMENT =&amp;nbsp;&lt;/span&gt;" style="shape=partialRectangle;html=1;whiteSpace=wrap;connectable=0;fillColor=#FFFFFF;top=0;left=0;bottom=0;right=0;overflow=hidden;rounded=0;sketch=0;fontColor=#3867A8;strokeColor=#457B9D;align=left;spacingLeft=5;fontFamily=Abel;" parent="O7eM3cRz2Qc7sRw92bNk-285" vertex="1">
                    <mxGeometry width="164" height="40" as="geometry">
                        <mxRectangle width="164" height="40" as="alternateBounds"/>
                    </mxGeometry>
                </mxCell>
                <mxCell id="O7eM3cRz2Qc7sRw92bNk-294" value="&lt;font style=&quot;font-size: 14px;&quot;&gt;&lt;b style=&quot;&quot;&gt;(&lt;/b&gt; λ &lt;b style=&quot;&quot;&gt;|&lt;/b&gt; ASSIGNMENT &lt;b style=&quot;&quot;&gt;|&lt;/b&gt; PRINT&amp;nbsp;&lt;b style=&quot;&quot;&gt;|&lt;/b&gt;&amp;nbsp;TYPE_ASSIGN&amp;nbsp;&lt;b&gt;|&lt;/b&gt;&amp;nbsp;RETURN&amp;nbsp;&lt;b style=&quot;&quot;&gt;)&lt;/b&gt;, ';' &lt;b style=&quot;&quot;&gt;|&lt;/b&gt;&amp;nbsp;BLOCK &lt;b style=&quot;&quot;&gt;|&lt;/b&gt; WHILE &lt;b style=&quot;&quot;&gt;|&lt;/b&gt; IF&lt;span style=&quot;&quot;&gt;&#9;&lt;/span&gt;&lt;b&gt;;&lt;/b&gt;&lt;/font&gt;" style="shape=partialRectangle;html=1;whiteSpace=wrap;connectable=0;fillColor=#FCFCFC;top=0;left=0;bottom=0;right=0;overflow=hidden;rounded=0;sketch=0;fontColor=#1D3557;strokeColor=#457B9D;align=left;fontFamily=Abel;" parent="O7eM3cRz2Qc7sRw92bNk-285" vertex="1">
                    <mxGeometry x="164" width="676" height="40" as="geometry">
                        <mxRectangle width="676" height="40" as="alternateBounds"/>
                    </mxGeometry>
                </mxCell>
                <mxCell id="O7eM3cRz2Qc7sRw92bNk-306" style="shape=tableRow;horizontal=0;startSize=0;swimlaneHead=0;swimlaneBody=0;top=0;left=0;bottom=0;right=0;collapsible=0;dropTarget=0;fillColor=none;points=[[0,0.5],[1,0.5]];portConstraint=eastwest;rounded=0;sketch=0;fontColor=#1D3557;strokeColor=#457B9D;" parent="O7eM3cRz2Qc7sRw92bNk-235" vertex="1">
                    <mxGeometry y="200" width="840" height="40" as="geometry"/>
                </mxCell>
                <mxCell id="O7eM3cRz2Qc7sRw92bNk-307" value="&lt;font style=&quot;font-size: 14px;&quot;&gt;RELEXPRESSION =&lt;/font&gt;" style="shape=partialRectangle;html=1;whiteSpace=wrap;connectable=0;fillColor=#FFFFFF;top=0;left=0;bottom=0;right=0;overflow=hidden;rounded=0;sketch=0;fontColor=#3867A8;strokeColor=#457B9D;align=left;spacingLeft=5;fontFamily=Abel;" parent="O7eM3cRz2Qc7sRw92bNk-306" vertex="1">
                    <mxGeometry width="164" height="40" as="geometry">
                        <mxRectangle width="164" height="40" as="alternateBounds"/>
                    </mxGeometry>
                </mxCell>
                <mxCell id="O7eM3cRz2Qc7sRw92bNk-308" value="&lt;font style=&quot;font-size: 14px;&quot;&gt;EXPRESSION, &lt;b&gt;{&lt;/b&gt; &lt;b&gt;(&lt;/b&gt; '&amp;lt;' &lt;b&gt;|&lt;/b&gt; '&amp;gt;' &lt;b&gt;|&lt;/b&gt;&amp;nbsp;'=='&amp;nbsp;&lt;b&gt;)&lt;/b&gt;, EXPRESSION &lt;b&gt;}&lt;span style=&quot;white-space: pre;&quot;&gt;&#9;&lt;/span&gt;;&lt;/b&gt;&lt;/font&gt;" style="shape=partialRectangle;html=1;whiteSpace=wrap;connectable=0;fillColor=#FCFCFC;top=0;left=0;bottom=0;right=0;overflow=hidden;rounded=0;sketch=0;fontColor=#1D3557;strokeColor=#457B9D;align=left;fontFamily=Abel;" parent="O7eM3cRz2Qc7sRw92bNk-306" vertex="1">
                    <mxGeometry x="164" width="676" height="40" as="geometry">
                        <mxRectangle width="676" height="40" as="alternateBounds"/>
                    </mxGeometry>
                </mxCell>
                <mxCell id="K5DylDMR5U2sn6sFDK5y-140" style="shape=tableRow;horizontal=0;startSize=0;swimlaneHead=0;swimlaneBody=0;top=0;left=0;bottom=0;right=0;collapsible=0;dropTarget=0;fillColor=none;points=[[0,0.5],[1,0.5]];portConstraint=eastwest;rounded=0;sketch=0;fontColor=#1D3557;strokeColor=#457B9D;" parent="O7eM3cRz2Qc7sRw92bNk-235" vertex="1">
                    <mxGeometry y="240" width="840" height="40" as="geometry"/>
                </mxCell>
                <mxCell id="K5DylDMR5U2sn6sFDK5y-141" value="&lt;span style=&quot;font-size: 14px;&quot;&gt;EXPRESSION =&lt;/span&gt;" style="shape=partialRectangle;html=1;whiteSpace=wrap;connectable=0;fillColor=#FFFFFF;top=0;left=0;bottom=0;right=0;overflow=hidden;rounded=0;sketch=0;fontColor=#3867A8;strokeColor=#457B9D;align=left;spacingLeft=5;fontFamily=Abel;" parent="K5DylDMR5U2sn6sFDK5y-140" vertex="1">
                    <mxGeometry width="164" height="40" as="geometry">
                        <mxRectangle width="164" height="40" as="alternateBounds"/>
                    </mxGeometry>
                </mxCell>
                <mxCell id="K5DylDMR5U2sn6sFDK5y-142" value="&lt;font style=&quot;font-size: 14px;&quot;&gt;TERM, &lt;b&gt;{ ( &lt;/b&gt;'+' &lt;b&gt;|&lt;/b&gt; '-' &lt;b&gt;|&lt;/b&gt; '||'&amp;nbsp;&lt;b&gt;|&lt;/b&gt;&amp;nbsp;'.'&amp;nbsp;&lt;b&gt;)&lt;/b&gt;, TERM &lt;b&gt;}&lt;span style=&quot;white-space: pre;&quot;&gt;&#9;&lt;/span&gt;;&lt;/b&gt;&lt;/font&gt;" style="shape=partialRectangle;html=1;whiteSpace=wrap;connectable=0;fillColor=#FCFCFC;top=0;left=0;bottom=0;right=0;overflow=hidden;rounded=0;sketch=0;fontColor=#1D3557;strokeColor=#457B9D;align=left;fontFamily=Abel;" parent="K5DylDMR5U2sn6sFDK5y-140" vertex="1">
                    <mxGeometry x="164" width="676" height="40" as="geometry">
                        <mxRectangle width="676" height="40" as="alternateBounds"/>
                    </mxGeometry>
                </mxCell>
                <mxCell id="K5DylDMR5U2sn6sFDK5y-440" style="shape=tableRow;horizontal=0;startSize=0;swimlaneHead=0;swimlaneBody=0;top=0;left=0;bottom=0;right=0;collapsible=0;dropTarget=0;fillColor=none;points=[[0,0.5],[1,0.5]];portConstraint=eastwest;rounded=0;sketch=0;fontColor=#1D3557;strokeColor=#457B9D;" parent="O7eM3cRz2Qc7sRw92bNk-235" vertex="1">
                    <mxGeometry y="280" width="840" height="40" as="geometry"/>
                </mxCell>
                <mxCell id="K5DylDMR5U2sn6sFDK5y-441" value="&lt;span style=&quot;font-size: 14px;&quot;&gt;TERM =&lt;/span&gt;" style="shape=partialRectangle;html=1;whiteSpace=wrap;connectable=0;fillColor=#FFFFFF;top=0;left=0;bottom=0;right=0;overflow=hidden;rounded=0;sketch=0;fontColor=#3867A8;strokeColor=#457B9D;align=left;spacingLeft=5;fontFamily=Abel;" parent="K5DylDMR5U2sn6sFDK5y-440" vertex="1">
                    <mxGeometry width="164" height="40" as="geometry">
                        <mxRectangle width="164" height="40" as="alternateBounds"/>
                    </mxGeometry>
                </mxCell>
                <mxCell id="K5DylDMR5U2sn6sFDK5y-442" value="&lt;font style=&quot;font-size: 14px;&quot;&gt;FACTOR, &lt;b&gt;{&lt;/b&gt; &lt;b&gt;(&lt;/b&gt; '*' &lt;b&gt;|&lt;/b&gt; '/' &lt;b&gt;|&lt;/b&gt; '&amp;amp;&amp;amp;' &lt;b&gt;)&lt;/b&gt;, FACTOR &lt;b&gt;}&lt;span style=&quot;white-space: pre;&quot;&gt;&#9;&lt;/span&gt;;&lt;/b&gt;&lt;/font&gt;" style="shape=partialRectangle;html=1;whiteSpace=wrap;connectable=0;fillColor=#FCFCFC;top=0;left=0;bottom=0;right=0;overflow=hidden;rounded=0;sketch=0;fontColor=#1D3557;strokeColor=#457B9D;align=left;fontFamily=Abel;" parent="K5DylDMR5U2sn6sFDK5y-440" vertex="1">
                    <mxGeometry x="164" width="676" height="40" as="geometry">
                        <mxRectangle width="676" height="40" as="alternateBounds"/>
                    </mxGeometry>
                </mxCell>
                <mxCell id="K5DylDMR5U2sn6sFDK5y-143" style="shape=tableRow;horizontal=0;startSize=0;swimlaneHead=0;swimlaneBody=0;top=0;left=0;bottom=0;right=0;collapsible=0;dropTarget=0;fillColor=none;points=[[0,0.5],[1,0.5]];portConstraint=eastwest;rounded=0;sketch=0;fontColor=#1D3557;strokeColor=#457B9D;" parent="O7eM3cRz2Qc7sRw92bNk-235" vertex="1">
                    <mxGeometry y="320" width="840" height="40" as="geometry"/>
                </mxCell>
                <mxCell id="K5DylDMR5U2sn6sFDK5y-144" value="&lt;font style=&quot;font-size: 14px;&quot;&gt;FACTOR =&lt;/font&gt;" style="shape=partialRectangle;html=1;whiteSpace=wrap;connectable=0;fillColor=#FFFFFF;top=0;left=0;bottom=0;right=0;overflow=hidden;rounded=0;sketch=0;fontColor=#3867A8;strokeColor=#457B9D;align=left;spacingLeft=5;fontFamily=Abel;" parent="K5DylDMR5U2sn6sFDK5y-143" vertex="1">
                    <mxGeometry width="164" height="40" as="geometry">
                        <mxRectangle width="164" height="40" as="alternateBounds"/>
                    </mxGeometry>
                </mxCell>
                <mxCell id="K5DylDMR5U2sn6sFDK5y-145" value="&lt;font style=&quot;font-size: 14px&quot;&gt;NUMBER &lt;b&gt;| &lt;/b&gt;STRING&amp;nbsp;&lt;b&gt;|&lt;/b&gt;&amp;nbsp;IDENTIF_EXPRESSION&amp;nbsp;&lt;b&gt;|&lt;/b&gt;&amp;nbsp;&lt;b&gt;( (&lt;/b&gt; '+' &lt;b&gt;|&lt;/b&gt; '-' &lt;b&gt;|&lt;/b&gt; '!' &lt;b&gt;)&lt;/b&gt;, FACTOR&amp;nbsp;&lt;b&gt;)&lt;/b&gt;&amp;nbsp;&lt;b&gt;|&lt;/b&gt;&amp;nbsp;&lt;b&gt;(&amp;nbsp;&lt;/b&gt;'(', RELEXPRESSION, ')' &lt;b&gt;)&lt;/b&gt;&amp;nbsp;&lt;b&gt;| ( '&lt;/b&gt;leia', '(', ')' &lt;b&gt;)&lt;span style=&quot;white-space: pre&quot;&gt;&#9;&lt;/span&gt;&lt;/b&gt;&lt;b&gt;;&lt;/b&gt;&lt;/font&gt;" style="shape=partialRectangle;html=1;whiteSpace=wrap;connectable=0;fillColor=#FCFCFC;top=0;left=0;bottom=0;right=0;overflow=hidden;rounded=0;sketch=0;fontColor=#1D3557;strokeColor=#457B9D;align=left;fontFamily=Abel;" parent="K5DylDMR5U2sn6sFDK5y-143" vertex="1">
                    <mxGeometry x="164" width="676" height="40" as="geometry">
                        <mxRectangle width="676" height="40" as="alternateBounds"/>
                    </mxGeometry>
                </mxCell>
                <mxCell id="K5DylDMR5U2sn6sFDK5y-152" value="" style="shape=tableRow;horizontal=0;startSize=0;swimlaneHead=0;swimlaneBody=0;top=0;left=0;bottom=0;right=0;collapsible=0;dropTarget=0;fillColor=none;points=[[0,0.5],[1,0.5]];portConstraint=eastwest;rounded=0;sketch=0;fontColor=#1D3557;strokeColor=#457B9D;" parent="O7eM3cRz2Qc7sRw92bNk-235" vertex="1">
                    <mxGeometry y="360" width="840" height="40" as="geometry"/>
                </mxCell>
                <mxCell id="K5DylDMR5U2sn6sFDK5y-153" value="&lt;span style=&quot;color: rgb(29, 53, 87); font-size: 14px;&quot;&gt;IDENTIFIER =&lt;/span&gt;" style="shape=partialRectangle;html=1;whiteSpace=wrap;connectable=0;fillColor=#FFFFFF;top=0;left=0;bottom=0;right=0;overflow=hidden;rounded=0;sketch=0;fontColor=#3867A8;strokeColor=#457B9D;align=left;spacingLeft=5;fontFamily=Abel;" parent="K5DylDMR5U2sn6sFDK5y-152" vertex="1">
                    <mxGeometry width="164" height="40" as="geometry">
                        <mxRectangle width="164" height="40" as="alternateBounds"/>
                    </mxGeometry>
                </mxCell>
                <mxCell id="K5DylDMR5U2sn6sFDK5y-154" value="&lt;font style=&quot;font-size: 14px;&quot;&gt;LETTER, &lt;b&gt;{&lt;/b&gt; LETTER &lt;b&gt;|&lt;/b&gt; DIGIT &lt;b&gt;|&lt;/b&gt; &quot;_&quot; &lt;b&gt;}&lt;span style=&quot;white-space: pre;&quot;&gt;&#9;&lt;/span&gt;&lt;/b&gt;&lt;b&gt;;&lt;/b&gt;&lt;/font&gt;" style="shape=partialRectangle;html=1;whiteSpace=wrap;connectable=0;fillColor=#FCFCFC;top=0;left=0;bottom=0;right=0;overflow=hidden;rounded=0;sketch=0;fontColor=#1D3557;strokeColor=#457B9D;align=left;fontFamily=Abel;" parent="K5DylDMR5U2sn6sFDK5y-152" vertex="1">
                    <mxGeometry x="164" width="676" height="40" as="geometry">
                        <mxRectangle width="676" height="40" as="alternateBounds"/>
                    </mxGeometry>
                </mxCell>
                <mxCell id="K5DylDMR5U2sn6sFDK5y-146" style="shape=tableRow;horizontal=0;startSize=0;swimlaneHead=0;swimlaneBody=0;top=0;left=0;bottom=0;right=0;collapsible=0;dropTarget=0;fillColor=none;points=[[0,0.5],[1,0.5]];portConstraint=eastwest;rounded=0;sketch=0;fontColor=#1D3557;strokeColor=#457B9D;" parent="O7eM3cRz2Qc7sRw92bNk-235" vertex="1">
                    <mxGeometry y="400" width="840" height="40" as="geometry"/>
                </mxCell>
                <mxCell id="K5DylDMR5U2sn6sFDK5y-147" value="&lt;span style=&quot;font-size: 14px;&quot;&gt;FUNC_INDENT =&lt;/span&gt;" style="shape=partialRectangle;html=1;whiteSpace=wrap;connectable=0;fillColor=#FFFFFF;top=0;left=0;bottom=0;right=0;overflow=hidden;rounded=0;sketch=0;fontColor=#3867A8;strokeColor=#457B9D;align=left;spacingLeft=5;fontFamily=Abel;" parent="K5DylDMR5U2sn6sFDK5y-146" vertex="1">
                    <mxGeometry width="164" height="40" as="geometry">
                        <mxRectangle width="164" height="40" as="alternateBounds"/>
                    </mxGeometry>
                </mxCell>
                <mxCell id="K5DylDMR5U2sn6sFDK5y-148" value="&lt;font style=&quot;font-size: 14px;&quot;&gt;IDENTIFIER,&amp;nbsp;&lt;b style=&quot;&quot;&gt;{&lt;/b&gt;&amp;nbsp;',',&amp;nbsp;IDENTIFIER&amp;nbsp;&lt;b style=&quot;&quot;&gt;}&lt;/b&gt;, ':'&amp;nbsp;,&amp;nbsp;TYPE&lt;span style=&quot;white-space: pre;&quot;&gt;&#9;&lt;/span&gt;&lt;b style=&quot;&quot;&gt;;&lt;/b&gt;&lt;/font&gt;" style="shape=partialRectangle;html=1;whiteSpace=wrap;connectable=0;fillColor=#FCFCFC;top=0;left=0;bottom=0;right=0;overflow=hidden;rounded=0;sketch=0;fontColor=#1D3557;strokeColor=#457B9D;align=left;fontFamily=Abel;" parent="K5DylDMR5U2sn6sFDK5y-146" vertex="1">
                    <mxGeometry x="164" width="676" height="40" as="geometry">
                        <mxRectangle width="676" height="40" as="alternateBounds"/>
                    </mxGeometry>
                </mxCell>
                <mxCell id="K5DylDMR5U2sn6sFDK5y-137" style="shape=tableRow;horizontal=0;startSize=0;swimlaneHead=0;swimlaneBody=0;top=0;left=0;bottom=0;right=0;collapsible=0;dropTarget=0;fillColor=none;points=[[0,0.5],[1,0.5]];portConstraint=eastwest;rounded=0;sketch=0;fontColor=#1D3557;strokeColor=#457B9D;" parent="O7eM3cRz2Qc7sRw92bNk-235" vertex="1">
                    <mxGeometry y="440" width="840" height="40" as="geometry"/>
                </mxCell>
                <mxCell id="K5DylDMR5U2sn6sFDK5y-138" value="&lt;span style=&quot;color: rgb(29, 53, 87); font-size: 14px;&quot;&gt;TYPE =&lt;/span&gt;" style="shape=partialRectangle;html=1;whiteSpace=wrap;connectable=0;fillColor=#FFFFFF;top=0;left=0;bottom=0;right=0;overflow=hidden;rounded=0;sketch=0;fontColor=#3867A8;strokeColor=#457B9D;align=left;spacingLeft=5;fontFamily=Abel;" parent="K5DylDMR5U2sn6sFDK5y-137" vertex="1">
                    <mxGeometry width="164" height="40" as="geometry">
                        <mxRectangle width="164" height="40" as="alternateBounds"/>
                    </mxGeometry>
                </mxCell>
                <mxCell id="K5DylDMR5U2sn6sFDK5y-139" value="&lt;font style=&quot;font-size: 14px;&quot;&gt;'inteiro' &lt;b&gt;|&lt;/b&gt; 'palavra' &lt;b&gt;| &lt;/b&gt;'vazio'&lt;span style=&quot;white-space: pre;&quot;&gt;&#9;&lt;/span&gt;&lt;b&gt;;&lt;/b&gt;&lt;/font&gt;" style="shape=partialRectangle;html=1;whiteSpace=wrap;connectable=0;fillColor=#FCFCFC;top=0;left=0;bottom=0;right=0;overflow=hidden;rounded=0;sketch=0;fontColor=#1D3557;strokeColor=#457B9D;align=left;fontFamily=Abel;" parent="K5DylDMR5U2sn6sFDK5y-137" vertex="1">
                    <mxGeometry x="164" width="676" height="40" as="geometry">
                        <mxRectangle width="676" height="40" as="alternateBounds"/>
                    </mxGeometry>
                </mxCell>
                <mxCell id="K5DylDMR5U2sn6sFDK5y-134" style="shape=tableRow;horizontal=0;startSize=0;swimlaneHead=0;swimlaneBody=0;top=0;left=0;bottom=0;right=0;collapsible=0;dropTarget=0;fillColor=none;points=[[0,0.5],[1,0.5]];portConstraint=eastwest;rounded=0;sketch=0;fontColor=#1D3557;strokeColor=#457B9D;" parent="O7eM3cRz2Qc7sRw92bNk-235" vertex="1">
                    <mxGeometry y="480" width="840" height="40" as="geometry"/>
                </mxCell>
                <mxCell id="K5DylDMR5U2sn6sFDK5y-135" value="&lt;span style=&quot;color: rgb(29, 53, 87); font-size: 14px;&quot;&gt;ASSIGNMENT =&lt;/span&gt;" style="shape=partialRectangle;html=1;whiteSpace=wrap;connectable=0;fillColor=#FFFFFF;top=0;left=0;bottom=0;right=0;overflow=hidden;rounded=0;sketch=0;fontColor=#3867A8;strokeColor=#457B9D;align=left;spacingLeft=5;fontFamily=Abel;" parent="K5DylDMR5U2sn6sFDK5y-134" vertex="1">
                    <mxGeometry width="164" height="40" as="geometry">
                        <mxRectangle width="164" height="40" as="alternateBounds"/>
                    </mxGeometry>
                </mxCell>
                <mxCell id="K5DylDMR5U2sn6sFDK5y-136" value="&lt;font style=&quot;font-size: 14px;&quot;&gt;IDENTIFIER,&amp;nbsp;&lt;b&gt;(&lt;/b&gt;&amp;nbsp;'=', RELEXPRESSION &lt;b&gt;) | ( &lt;/b&gt;'(', &lt;b&gt;(&amp;nbsp;&lt;/b&gt;λ&lt;b&gt;&amp;nbsp;|&amp;nbsp;&lt;/b&gt;RELEXPRESSION,&amp;nbsp;&lt;b&gt;{&amp;nbsp;&lt;/b&gt;',',&amp;nbsp;RELEXPRESSION&lt;b&gt;&amp;nbsp;}&lt;/b&gt;&lt;b&gt;&amp;nbsp;)&lt;/b&gt;,&amp;nbsp;')'&lt;b&gt; )&lt;span style=&quot;&quot;&gt;&#9;&lt;/span&gt;;&lt;/b&gt;&lt;/font&gt;" style="shape=partialRectangle;html=1;whiteSpace=wrap;connectable=0;fillColor=#FCFCFC;top=0;left=0;bottom=0;right=0;overflow=hidden;rounded=0;sketch=0;fontColor=#1D3557;strokeColor=#457B9D;align=left;fontFamily=Abel;" parent="K5DylDMR5U2sn6sFDK5y-134" vertex="1">
                    <mxGeometry x="164" width="676" height="40" as="geometry">
                        <mxRectangle width="676" height="40" as="alternateBounds"/>
                    </mxGeometry>
                </mxCell>
                <mxCell id="K5DylDMR5U2sn6sFDK5y-131" style="shape=tableRow;horizontal=0;startSize=0;swimlaneHead=0;swimlaneBody=0;top=0;left=0;bottom=0;right=0;collapsible=0;dropTarget=0;fillColor=none;points=[[0,0.5],[1,0.5]];portConstraint=eastwest;rounded=0;sketch=0;fontColor=#1D3557;strokeColor=#457B9D;" parent="O7eM3cRz2Qc7sRw92bNk-235" vertex="1">
                    <mxGeometry y="520" width="840" height="40" as="geometry"/>
                </mxCell>
                <mxCell id="K5DylDMR5U2sn6sFDK5y-132" value="&lt;span style=&quot;color: rgb(29, 53, 87); font-size: 14px;&quot;&gt;PRINT =&lt;/span&gt;" style="shape=partialRectangle;html=1;whiteSpace=wrap;connectable=0;fillColor=#FFFFFF;top=0;left=0;bottom=0;right=0;overflow=hidden;rounded=0;sketch=0;fontColor=#3867A8;strokeColor=#457B9D;align=left;spacingLeft=5;fontFamily=Abel;" parent="K5DylDMR5U2sn6sFDK5y-131" vertex="1">
                    <mxGeometry width="164" height="40" as="geometry">
                        <mxRectangle width="164" height="40" as="alternateBounds"/>
                    </mxGeometry>
                </mxCell>
                <mxCell id="K5DylDMR5U2sn6sFDK5y-133" value="&lt;font style=&quot;font-size: 14px&quot;&gt;'escreva', '(', RELEXPRESSION, ')'&lt;span style=&quot;white-space: pre&quot;&gt;&#9;&lt;/span&gt;&lt;b&gt;;&lt;/b&gt;&lt;/font&gt;" style="shape=partialRectangle;html=1;whiteSpace=wrap;connectable=0;fillColor=#FCFCFC;top=0;left=0;bottom=0;right=0;overflow=hidden;rounded=0;sketch=0;fontColor=#1D3557;strokeColor=#457B9D;align=left;fontFamily=Abel;" parent="K5DylDMR5U2sn6sFDK5y-131" vertex="1">
                    <mxGeometry x="164" width="676" height="40" as="geometry">
                        <mxRectangle width="676" height="40" as="alternateBounds"/>
                    </mxGeometry>
                </mxCell>
                <mxCell id="K5DylDMR5U2sn6sFDK5y-128" style="shape=tableRow;horizontal=0;startSize=0;swimlaneHead=0;swimlaneBody=0;top=0;left=0;bottom=0;right=0;collapsible=0;dropTarget=0;fillColor=none;points=[[0,0.5],[1,0.5]];portConstraint=eastwest;rounded=0;sketch=0;fontColor=#1D3557;strokeColor=#457B9D;" parent="O7eM3cRz2Qc7sRw92bNk-235" vertex="1">
                    <mxGeometry y="560" width="840" height="40" as="geometry"/>
                </mxCell>
                <mxCell id="K5DylDMR5U2sn6sFDK5y-129" value="&lt;span style=&quot;color: rgb(29, 53, 87); font-size: 14px;&quot;&gt;TYPE_ASSIGN =&lt;/span&gt;" style="shape=partialRectangle;html=1;whiteSpace=wrap;connectable=0;fillColor=#FFFFFF;top=0;left=0;bottom=0;right=0;overflow=hidden;rounded=0;sketch=0;fontColor=#3867A8;strokeColor=#457B9D;align=left;spacingLeft=5;fontFamily=Abel;" parent="K5DylDMR5U2sn6sFDK5y-128" vertex="1">
                    <mxGeometry width="164" height="40" as="geometry">
                        <mxRectangle width="164" height="40" as="alternateBounds"/>
                    </mxGeometry>
                </mxCell>
                <mxCell id="K5DylDMR5U2sn6sFDK5y-130" value="&lt;font style=&quot;font-size: 14px;&quot;&gt;&lt;font style=&quot;&quot;&gt;'variavel', &lt;b style=&quot;&quot;&gt;(&lt;/b&gt;&amp;nbsp;&lt;/font&gt;IDENTIFIER,&amp;nbsp;&lt;b style=&quot;&quot;&gt;{&amp;nbsp;&lt;/b&gt;',',&amp;nbsp;IDENTIFIER&amp;nbsp;&lt;b style=&quot;&quot;&gt;}&lt;/b&gt;&lt;b style=&quot;&quot;&gt;&amp;nbsp;)&lt;/b&gt;, ':', TYPE&lt;span style=&quot;white-space: pre;&quot;&gt;&#9;&lt;/span&gt;&lt;b style=&quot;&quot;&gt;;&lt;/b&gt;&lt;/font&gt;" style="shape=partialRectangle;html=1;whiteSpace=wrap;connectable=0;fillColor=#FCFCFC;top=0;left=0;bottom=0;right=0;overflow=hidden;rounded=0;sketch=0;fontColor=#1D3557;strokeColor=#457B9D;align=left;fontFamily=Abel;" parent="K5DylDMR5U2sn6sFDK5y-128" vertex="1">
                    <mxGeometry x="164" width="676" height="40" as="geometry">
                        <mxRectangle width="676" height="40" as="alternateBounds"/>
                    </mxGeometry>
                </mxCell>
                <mxCell id="K5DylDMR5U2sn6sFDK5y-125" style="shape=tableRow;horizontal=0;startSize=0;swimlaneHead=0;swimlaneBody=0;top=0;left=0;bottom=0;right=0;collapsible=0;dropTarget=0;fillColor=none;points=[[0,0.5],[1,0.5]];portConstraint=eastwest;rounded=0;sketch=0;fontColor=#1D3557;strokeColor=#457B9D;" parent="O7eM3cRz2Qc7sRw92bNk-235" vertex="1">
                    <mxGeometry y="600" width="840" height="40" as="geometry"/>
                </mxCell>
                <mxCell id="K5DylDMR5U2sn6sFDK5y-126" value="&lt;span style=&quot;color: rgb(29, 53, 87); font-size: 14px;&quot;&gt;RETURN =&lt;/span&gt;" style="shape=partialRectangle;html=1;whiteSpace=wrap;connectable=0;fillColor=#FFFFFF;top=0;left=0;bottom=0;right=0;overflow=hidden;rounded=0;sketch=0;fontColor=#3867A8;strokeColor=#457B9D;align=left;spacingLeft=5;fontFamily=Abel;" parent="K5DylDMR5U2sn6sFDK5y-125" vertex="1">
                    <mxGeometry width="164" height="40" as="geometry">
                        <mxRectangle width="164" height="40" as="alternateBounds"/>
                    </mxGeometry>
                </mxCell>
                <mxCell id="K5DylDMR5U2sn6sFDK5y-127" value="&lt;font style=&quot;font-size: 14px&quot;&gt;'retorne',&amp;nbsp;RELEXPRESSION&lt;span style=&quot;white-space: pre&quot;&gt;&#9;&lt;/span&gt;&lt;b&gt;;&lt;/b&gt;&lt;/font&gt;" style="shape=partialRectangle;html=1;whiteSpace=wrap;connectable=0;fillColor=#FCFCFC;top=0;left=0;bottom=0;right=0;overflow=hidden;rounded=0;sketch=0;fontColor=#1D3557;strokeColor=#457B9D;align=left;fontFamily=Abel;" parent="K5DylDMR5U2sn6sFDK5y-125" vertex="1">
                    <mxGeometry x="164" width="676" height="40" as="geometry">
                        <mxRectangle width="676" height="40" as="alternateBounds"/>
                    </mxGeometry>
                </mxCell>
                <mxCell id="K5DylDMR5U2sn6sFDK5y-122" style="shape=tableRow;horizontal=0;startSize=0;swimlaneHead=0;swimlaneBody=0;top=0;left=0;bottom=0;right=0;collapsible=0;dropTarget=0;fillColor=none;points=[[0,0.5],[1,0.5]];portConstraint=eastwest;rounded=0;sketch=0;fontColor=#1D3557;strokeColor=#457B9D;" parent="O7eM3cRz2Qc7sRw92bNk-235" vertex="1">
                    <mxGeometry y="640" width="840" height="40" as="geometry"/>
                </mxCell>
                <mxCell id="K5DylDMR5U2sn6sFDK5y-123" value="&lt;font style=&quot;font-size: 14px;&quot;&gt;WHILE =&amp;nbsp;&lt;/font&gt;" style="shape=partialRectangle;html=1;whiteSpace=wrap;connectable=0;fillColor=#FFFFFF;top=0;left=0;bottom=0;right=0;overflow=hidden;rounded=0;sketch=0;fontColor=#3867A8;strokeColor=#457B9D;align=left;spacingLeft=5;fontFamily=Abel;" parent="K5DylDMR5U2sn6sFDK5y-122" vertex="1">
                    <mxGeometry width="164" height="40" as="geometry">
                        <mxRectangle width="164" height="40" as="alternateBounds"/>
                    </mxGeometry>
                </mxCell>
                <mxCell id="K5DylDMR5U2sn6sFDK5y-124" value="&lt;font style=&quot;font-size: 14px;&quot;&gt;'enquanto', '(', RELEXPRESSION, ')', STATEMENT&lt;span style=&quot;white-space: pre;&quot;&gt;&#9;&lt;span style=&quot;white-space: pre;&quot;&gt;&#9;&lt;/span&gt;&lt;b&gt;;&lt;/b&gt;&lt;/span&gt;&lt;/font&gt;" style="shape=partialRectangle;html=1;whiteSpace=wrap;connectable=0;fillColor=#FCFCFC;top=0;left=0;bottom=0;right=0;overflow=hidden;rounded=0;sketch=0;fontColor=#1D3557;strokeColor=#457B9D;align=left;fontFamily=Abel;" parent="K5DylDMR5U2sn6sFDK5y-122" vertex="1">
                    <mxGeometry x="164" width="676" height="40" as="geometry">
                        <mxRectangle width="676" height="40" as="alternateBounds"/>
                    </mxGeometry>
                </mxCell>
                <mxCell id="O7eM3cRz2Qc7sRw92bNk-300" style="shape=tableRow;horizontal=0;startSize=0;swimlaneHead=0;swimlaneBody=0;top=0;left=0;bottom=0;right=0;collapsible=0;dropTarget=0;fillColor=none;points=[[0,0.5],[1,0.5]];portConstraint=eastwest;rounded=0;sketch=0;fontColor=#1D3557;strokeColor=#457B9D;" parent="O7eM3cRz2Qc7sRw92bNk-235" vertex="1">
                    <mxGeometry y="680" width="840" height="40" as="geometry"/>
                </mxCell>
                <mxCell id="O7eM3cRz2Qc7sRw92bNk-301" value="&lt;font style=&quot;font-size: 14px;&quot;&gt;IF =&amp;nbsp;&lt;/font&gt;" style="shape=partialRectangle;html=1;whiteSpace=wrap;connectable=0;fillColor=#FFFFFF;top=0;left=0;bottom=0;right=0;overflow=hidden;rounded=0;sketch=0;fontColor=#3867A8;strokeColor=#457B9D;align=left;spacingLeft=5;fontFamily=Abel;" parent="O7eM3cRz2Qc7sRw92bNk-300" vertex="1">
                    <mxGeometry width="164" height="40" as="geometry">
                        <mxRectangle width="164" height="40" as="alternateBounds"/>
                    </mxGeometry>
                </mxCell>
                <mxCell id="O7eM3cRz2Qc7sRw92bNk-302" value="&lt;font style=&quot;font-size: 14px;&quot;&gt;'se', '(', RELEXPRESSION, ')', STATEMENT, &lt;b style=&quot;&quot;&gt;(&lt;/b&gt; λ&amp;nbsp;&lt;b style=&quot;&quot;&gt;|&lt;/b&gt; &lt;b style=&quot;&quot;&gt;(&lt;/b&gt; 'senao', STATEMENT &lt;b style=&quot;&quot;&gt;)&lt;/b&gt; &lt;b style=&quot;&quot;&gt;)&lt;span style=&quot;white-space: pre;&quot;&gt;&#9;&lt;/span&gt;&lt;/b&gt;&lt;b style=&quot;&quot;&gt;;&lt;/b&gt;&lt;/font&gt;" style="shape=partialRectangle;html=1;whiteSpace=wrap;connectable=0;fillColor=#FCFCFC;top=0;left=0;bottom=0;right=0;overflow=hidden;rounded=0;sketch=0;fontColor=#1D3557;strokeColor=#457B9D;align=left;fontFamily=Abel;" parent="O7eM3cRz2Qc7sRw92bNk-300" vertex="1">
                    <mxGeometry x="164" width="676" height="40" as="geometry">
                        <mxRectangle width="676" height="40" as="alternateBounds"/>
                    </mxGeometry>
                </mxCell>
                <mxCell id="O7eM3cRz2Qc7sRw92bNk-309" style="shape=tableRow;horizontal=0;startSize=0;swimlaneHead=0;swimlaneBody=0;top=0;left=0;bottom=0;right=0;collapsible=0;dropTarget=0;fillColor=none;points=[[0,0.5],[1,0.5]];portConstraint=eastwest;rounded=0;sketch=0;fontColor=#1D3557;strokeColor=#457B9D;" parent="O7eM3cRz2Qc7sRw92bNk-235" vertex="1">
                    <mxGeometry y="720" width="840" height="40" as="geometry"/>
                </mxCell>
                <mxCell id="O7eM3cRz2Qc7sRw92bNk-310" value="&lt;span style=&quot;color: rgb(29, 53, 87); font-size: 14px;&quot;&gt;NUMBER =&lt;/span&gt;" style="shape=partialRectangle;html=1;whiteSpace=wrap;connectable=0;fillColor=#FFFFFF;top=0;left=0;bottom=0;right=0;overflow=hidden;rounded=0;sketch=0;fontColor=#3867A8;strokeColor=#457B9D;align=left;spacingLeft=5;fontFamily=Abel;" parent="O7eM3cRz2Qc7sRw92bNk-309" vertex="1">
                    <mxGeometry width="164" height="40" as="geometry">
                        <mxRectangle width="164" height="40" as="alternateBounds"/>
                    </mxGeometry>
                </mxCell>
                <mxCell id="O7eM3cRz2Qc7sRw92bNk-311" value="&lt;font style=&quot;font-size: 14px;&quot;&gt;DIGIT, &lt;b&gt;{&lt;/b&gt; DIGIT &lt;b&gt;}&lt;span style=&quot;white-space: pre;&quot;&gt;&#9;&lt;/span&gt;&lt;/b&gt;&lt;b&gt;;&lt;/b&gt;&lt;/font&gt;" style="shape=partialRectangle;html=1;whiteSpace=wrap;connectable=0;fillColor=#FCFCFC;top=0;left=0;bottom=0;right=0;overflow=hidden;rounded=0;sketch=0;fontColor=#1D3557;strokeColor=#457B9D;align=left;fontFamily=Abel;" parent="O7eM3cRz2Qc7sRw92bNk-309" vertex="1">
                    <mxGeometry x="164" width="676" height="40" as="geometry">
                        <mxRectangle width="676" height="40" as="alternateBounds"/>
                    </mxGeometry>
                </mxCell>
                <mxCell id="O7eM3cRz2Qc7sRw92bNk-321" style="shape=tableRow;horizontal=0;startSize=0;swimlaneHead=0;swimlaneBody=0;top=0;left=0;bottom=0;right=0;collapsible=0;dropTarget=0;fillColor=none;points=[[0,0.5],[1,0.5]];portConstraint=eastwest;rounded=0;sketch=0;fontColor=#1D3557;strokeColor=#457B9D;" parent="O7eM3cRz2Qc7sRw92bNk-235" vertex="1">
                    <mxGeometry y="760" width="840" height="40" as="geometry"/>
                </mxCell>
                <mxCell id="O7eM3cRz2Qc7sRw92bNk-322" value="&lt;span style=&quot;color: rgb(29, 53, 87); font-size: 14px;&quot;&gt;STRING =&lt;/span&gt;" style="shape=partialRectangle;html=1;whiteSpace=wrap;connectable=0;fillColor=#FFFFFF;top=0;left=0;bottom=0;right=0;overflow=hidden;rounded=0;sketch=0;fontColor=#3867A8;strokeColor=#457B9D;align=left;spacingLeft=5;fontFamily=Abel;" parent="O7eM3cRz2Qc7sRw92bNk-321" vertex="1">
                    <mxGeometry width="164" height="40" as="geometry">
                        <mxRectangle width="164" height="40" as="alternateBounds"/>
                    </mxGeometry>
                </mxCell>
                <mxCell id="O7eM3cRz2Qc7sRw92bNk-323" value="&lt;font style=&quot;font-size: 14px;&quot;&gt;' &quot; ', ASCII ,' &quot; '&lt;span style=&quot;white-space: pre;&quot;&gt;&#9;&lt;/span&gt;&lt;b&gt;;&lt;/b&gt;&lt;/font&gt;" style="shape=partialRectangle;html=1;whiteSpace=wrap;connectable=0;fillColor=#FCFCFC;top=0;left=0;bottom=0;right=0;overflow=hidden;rounded=0;sketch=0;fontColor=#1D3557;strokeColor=#457B9D;align=left;fontFamily=Abel;" parent="O7eM3cRz2Qc7sRw92bNk-321" vertex="1">
                    <mxGeometry x="164" width="676" height="40" as="geometry">
                        <mxRectangle width="676" height="40" as="alternateBounds"/>
                    </mxGeometry>
                </mxCell>
                <mxCell id="K5DylDMR5U2sn6sFDK5y-149" value="" style="shape=tableRow;horizontal=0;startSize=0;swimlaneHead=0;swimlaneBody=0;top=0;left=0;bottom=0;right=0;collapsible=0;dropTarget=0;fillColor=none;points=[[0,0.5],[1,0.5]];portConstraint=eastwest;rounded=0;sketch=0;fontColor=#1D3557;strokeColor=#457B9D;" parent="O7eM3cRz2Qc7sRw92bNk-235" vertex="1">
                    <mxGeometry y="800" width="840" height="38" as="geometry"/>
                </mxCell>
                <mxCell id="K5DylDMR5U2sn6sFDK5y-150" value="&lt;span style=&quot;color: rgb(29, 53, 87); font-size: 14px;&quot;&gt;IDENTIF_EXPRESSION =&lt;/span&gt;" style="shape=partialRectangle;html=1;whiteSpace=wrap;connectable=0;fillColor=#FFFFFF;top=0;left=0;bottom=0;right=0;overflow=hidden;rounded=0;sketch=0;fontColor=#3867A8;strokeColor=#457B9D;align=left;spacingLeft=5;fontFamily=Abel;" parent="K5DylDMR5U2sn6sFDK5y-149" vertex="1">
                    <mxGeometry width="164" height="38" as="geometry">
                        <mxRectangle width="164" height="38" as="alternateBounds"/>
                    </mxGeometry>
                </mxCell>
                <mxCell id="K5DylDMR5U2sn6sFDK5y-151" value="&lt;font style=&quot;font-size: 14px;&quot;&gt;IDENTIFIER, &lt;b style=&quot;&quot;&gt;(&amp;nbsp;&lt;/b&gt;λ&amp;nbsp;&lt;b style=&quot;&quot;&gt;|&amp;nbsp;&lt;/b&gt;'(', λ&lt;b&gt;&amp;nbsp;|&amp;nbsp;&lt;/b&gt;RELEXPRESSION, &lt;b&gt;{ &lt;/b&gt;',',&amp;nbsp;RELEXPRESSION&lt;b&gt;&amp;nbsp;}&lt;/b&gt;, ')'&lt;b style=&quot;&quot;&gt;&amp;nbsp;&lt;/b&gt;&lt;b style=&quot;&quot;&gt;)&lt;/b&gt;&lt;span style=&quot;font-weight: bold; white-space: pre;&quot;&gt;&#9;&lt;/span&gt;&lt;b style=&quot;&quot;&gt;;&lt;/b&gt;&lt;/font&gt;" style="shape=partialRectangle;html=1;whiteSpace=wrap;connectable=0;fillColor=#FCFCFC;top=0;left=0;bottom=0;right=0;overflow=hidden;rounded=0;sketch=0;fontColor=#1D3557;strokeColor=#457B9D;align=left;fontFamily=Abel;" parent="K5DylDMR5U2sn6sFDK5y-149" vertex="1">
                    <mxGeometry x="164" width="676" height="38" as="geometry">
                        <mxRectangle width="676" height="38" as="alternateBounds"/>
                    </mxGeometry>
                </mxCell>
                <mxCell id="O7eM3cRz2Qc7sRw92bNk-318" style="shape=tableRow;horizontal=0;startSize=0;swimlaneHead=0;swimlaneBody=0;top=0;left=0;bottom=0;right=0;collapsible=0;dropTarget=0;fillColor=none;points=[[0,0.5],[1,0.5]];portConstraint=eastwest;rounded=0;sketch=0;fontColor=#1D3557;strokeColor=#457B9D;" parent="O7eM3cRz2Qc7sRw92bNk-235" vertex="1">
                    <mxGeometry y="838" width="840" height="48" as="geometry"/>
                </mxCell>
                <mxCell id="O7eM3cRz2Qc7sRw92bNk-319" value="&lt;span style=&quot;color: rgb(29, 53, 87); font-size: 14px;&quot;&gt;LETTER =&lt;/span&gt;" style="shape=partialRectangle;html=1;whiteSpace=wrap;connectable=0;fillColor=#FFFFFF;top=0;left=0;bottom=0;right=0;overflow=hidden;rounded=0;sketch=0;fontColor=#3867A8;strokeColor=#457B9D;align=left;spacingLeft=5;fontFamily=Abel;" parent="O7eM3cRz2Qc7sRw92bNk-318" vertex="1">
                    <mxGeometry width="164" height="48" as="geometry">
                        <mxRectangle width="164" height="48" as="alternateBounds"/>
                    </mxGeometry>
                </mxCell>
                <mxCell id="O7eM3cRz2Qc7sRw92bNk-320" value="&lt;font style=&quot;font-size: 14px;&quot;&gt;a &lt;b&gt;|&lt;/b&gt; ... &lt;b&gt;|&lt;/b&gt; z &lt;b&gt;|&lt;/b&gt; A &lt;b&gt;|&lt;/b&gt; ... &lt;b&gt;|&lt;/b&gt; Z&lt;span style=&quot;white-space: pre;&quot;&gt;&#9;&lt;/span&gt;&lt;b&gt;;&lt;/b&gt;&lt;/font&gt;" style="shape=partialRectangle;html=1;whiteSpace=wrap;connectable=0;fillColor=#FCFCFC;top=0;left=0;bottom=0;right=0;overflow=hidden;rounded=0;sketch=0;fontColor=#1D3557;strokeColor=#457B9D;align=left;fontFamily=Abel;" parent="O7eM3cRz2Qc7sRw92bNk-318" vertex="1">
                    <mxGeometry x="164" width="676" height="48" as="geometry">
                        <mxRectangle width="676" height="48" as="alternateBounds"/>
                    </mxGeometry>
                </mxCell>
                <mxCell id="K5DylDMR5U2sn6sFDK5y-508" style="shape=tableRow;horizontal=0;startSize=0;swimlaneHead=0;swimlaneBody=0;top=0;left=0;bottom=0;right=0;collapsible=0;dropTarget=0;fillColor=none;points=[[0,0.5],[1,0.5]];portConstraint=eastwest;rounded=0;sketch=0;fontColor=#1D3557;strokeColor=#457B9D;" parent="O7eM3cRz2Qc7sRw92bNk-235" vertex="1">
                    <mxGeometry y="886" width="840" height="44" as="geometry"/>
                </mxCell>
                <mxCell id="K5DylDMR5U2sn6sFDK5y-509" value="&lt;span style=&quot;color: rgb(29, 53, 87); font-size: 14px;&quot;&gt;DIGIT&amp;nbsp;&lt;/span&gt;&lt;span style=&quot;color: rgb(29, 53, 87); font-size: 14px;&quot;&gt;=&lt;/span&gt;" style="shape=partialRectangle;html=1;whiteSpace=wrap;connectable=0;fillColor=#FFFFFF;top=0;left=0;bottom=0;right=0;overflow=hidden;rounded=0;sketch=0;fontColor=#3867A8;strokeColor=#457B9D;align=left;spacingLeft=5;fontFamily=Abel;" parent="K5DylDMR5U2sn6sFDK5y-508" vertex="1">
                    <mxGeometry width="164" height="44" as="geometry">
                        <mxRectangle width="164" height="44" as="alternateBounds"/>
                    </mxGeometry>
                </mxCell>
                <mxCell id="K5DylDMR5U2sn6sFDK5y-510" value="&lt;font style=&quot;font-size: 14px;&quot;&gt;1 &lt;b style=&quot;&quot;&gt;|&lt;/b&gt; 2 &lt;b style=&quot;&quot;&gt;|&lt;/b&gt; 3 &lt;b style=&quot;&quot;&gt;|&lt;/b&gt; 4 &lt;b style=&quot;&quot;&gt;|&lt;/b&gt; 5 &lt;b style=&quot;&quot;&gt;|&lt;/b&gt; 6 &lt;b style=&quot;&quot;&gt;|&lt;/b&gt; 7 &lt;b style=&quot;&quot;&gt;|&lt;/b&gt; 8 &lt;b style=&quot;&quot;&gt;|&lt;/b&gt; 9 &lt;b style=&quot;&quot;&gt;|&lt;/b&gt; 0&lt;span style=&quot;white-space: pre;&quot;&gt;&#9;&lt;/span&gt;&lt;b style=&quot;&quot;&gt;;&lt;/b&gt;&lt;/font&gt;" style="shape=partialRectangle;html=1;whiteSpace=wrap;connectable=0;fillColor=#FCFCFC;top=0;left=0;bottom=0;right=0;overflow=hidden;rounded=0;sketch=0;fontColor=#1D3557;strokeColor=#457B9D;align=left;fontFamily=Abel;" parent="K5DylDMR5U2sn6sFDK5y-508" vertex="1">
                    <mxGeometry x="164" width="676" height="44" as="geometry">
                        <mxRectangle width="676" height="44" as="alternateBounds"/>
                    </mxGeometry>
                </mxCell>
                <mxCell id="K5DylDMR5U2sn6sFDK5y-6" value="&lt;font data-font-src=&quot;https://fonts.googleapis.com/css?family=Abel&quot; face=&quot;Abel&quot; style=&quot;font-size: 16px;&quot;&gt;Declaration&lt;/font&gt;" style="rounded=1;whiteSpace=wrap;html=1;arcSize=0;fillColor=#A8DADC;strokeColor=#457B9D;fontColor=#1D3557;align=center;" parent="1" vertex="1">
                    <mxGeometry x="80" y="80" width="80" height="40" as="geometry"/>
                </mxCell>
                <mxCell id="K5DylDMR5U2sn6sFDK5y-9" value="" style="endArrow=classic;html=1;rounded=1;fontFamily=Verdana;fontSize=15;strokeColor=#457B9D;fontColor=#1D3557;labelBackgroundColor=#F1FAEE;" parent="1" edge="1">
                    <mxGeometry width="50" height="50" relative="1" as="geometry">
                        <mxPoint x="10" y="40" as="sourcePoint"/>
                        <mxPoint x="240" y="40" as="targetPoint"/>
                        <Array as="points"/>
                    </mxGeometry>
                </mxCell>
                <mxCell id="K5DylDMR5U2sn6sFDK5y-10" value="" style="endArrow=classic;html=1;rounded=1;fontFamily=Verdana;fontSize=15;entryX=1;entryY=0.5;entryDx=0;entryDy=0;strokeColor=#457B9D;fontColor=#1D3557;labelBackgroundColor=#F1FAEE;" parent="1" target="K5DylDMR5U2sn6sFDK5y-6" edge="1">
                    <mxGeometry width="50" height="50" relative="1" as="geometry">
                        <mxPoint x="180" y="40" as="sourcePoint"/>
                        <mxPoint x="139" y="100" as="targetPoint"/>
                        <Array as="points">
                            <mxPoint x="180" y="80"/>
                        </Array>
                    </mxGeometry>
                </mxCell>
                <mxCell id="K5DylDMR5U2sn6sFDK5y-11" value="" style="endArrow=classic;html=1;rounded=1;fontFamily=Verdana;fontSize=15;exitX=0;exitY=0.5;exitDx=0;exitDy=0;strokeColor=#457B9D;fontColor=#1D3557;labelBackgroundColor=#F1FAEE;" parent="1" source="K5DylDMR5U2sn6sFDK5y-6" edge="1">
                    <mxGeometry width="50" height="50" relative="1" as="geometry">
                        <mxPoint x="49" y="40" as="sourcePoint"/>
                        <mxPoint x="60" y="40" as="targetPoint"/>
                        <Array as="points">
                            <mxPoint x="60" y="80"/>
                        </Array>
                    </mxGeometry>
                </mxCell>
                <mxCell id="K5DylDMR5U2sn6sFDK5y-12" value="&lt;font data-font-src=&quot;https://fonts.googleapis.com/css?family=Abel&quot; face=&quot;Abel&quot;&gt;&lt;b&gt;Program&lt;/b&gt;&lt;/font&gt;" style="text;html=1;strokeColor=none;fillColor=none;align=left;verticalAlign=middle;whiteSpace=wrap;rounded=0;fontFamily=Abel;fontSize=16;fontColor=#1D3557;" parent="1" vertex="1">
                    <mxGeometry width="80" height="30" as="geometry"/>
                </mxCell>
                <mxCell id="K5DylDMR5U2sn6sFDK5y-223" value="&lt;span style=&quot;font-size: 16px;&quot;&gt;funcao&lt;/span&gt;" style="ellipse;whiteSpace=wrap;html=1;fillColor=#A8DADC;strokeColor=#457B9D;fontColor=#1D3557;rounded=1;fontFamily=Abel;" parent="1" vertex="1">
                    <mxGeometry x="40" y="200" width="80" height="40" as="geometry"/>
                </mxCell>
                <mxCell id="K5DylDMR5U2sn6sFDK5y-224" value="&lt;span style=&quot;font-size: 16px;&quot;&gt;(&lt;/span&gt;" style="ellipse;whiteSpace=wrap;html=1;fillColor=#A8DADC;strokeColor=#457B9D;fontColor=#1D3557;rounded=1;fontFamily=Abel;" parent="1" vertex="1">
                    <mxGeometry x="280" y="200" width="40" height="40" as="geometry"/>
                </mxCell>
                <mxCell id="K5DylDMR5U2sn6sFDK5y-225" value="" style="endArrow=classic;html=1;rounded=1;fontFamily=Verdana;fontSize=15;exitX=1;exitY=0.5;exitDx=0;exitDy=0;entryX=0;entryY=0.5;entryDx=0;entryDy=0;strokeColor=#457B9D;fontColor=#1D3557;labelBackgroundColor=#F1FAEE;startArrow=none;" parent="1" source="K5DylDMR5U2sn6sFDK5y-228" target="K5DylDMR5U2sn6sFDK5y-224" edge="1">
                    <mxGeometry width="50" height="50" relative="1" as="geometry">
                        <mxPoint x="169" y="330" as="sourcePoint"/>
                        <mxPoint x="219" y="280" as="targetPoint"/>
                        <Array as="points"/>
                    </mxGeometry>
                </mxCell>
                <mxCell id="K5DylDMR5U2sn6sFDK5y-226" value="" style="endArrow=classic;html=1;rounded=1;fontFamily=Courier New;fontSize=16;fontColor=#1D3557;strokeColor=#457B9D;fillColor=#A8DADC;entryX=0;entryY=0.5;entryDx=0;entryDy=0;labelBackgroundColor=#F1FAEE;" parent="1" target="K5DylDMR5U2sn6sFDK5y-223" edge="1">
                    <mxGeometry width="50" height="50" relative="1" as="geometry">
                        <mxPoint x="10" y="220" as="sourcePoint"/>
                        <mxPoint x="300" y="300" as="targetPoint"/>
                    </mxGeometry>
                </mxCell>
                <mxCell id="K5DylDMR5U2sn6sFDK5y-227" value="" style="endArrow=classic;html=1;rounded=1;fontFamily=Courier New;fontSize=16;fontColor=#1D3557;strokeColor=#457B9D;fillColor=#A8DADC;labelBackgroundColor=#F1FAEE;exitX=1;exitY=0.5;exitDx=0;exitDy=0;entryX=0;entryY=0.5;entryDx=0;entryDy=0;" parent="1" source="K5DylDMR5U2sn6sFDK5y-224" target="K5DylDMR5U2sn6sFDK5y-231" edge="1">
                    <mxGeometry width="50" height="50" relative="1" as="geometry">
                        <mxPoint x="320" y="220" as="sourcePoint"/>
                        <mxPoint x="360" y="219.58" as="targetPoint"/>
                    </mxGeometry>
                </mxCell>
                <mxCell id="K5DylDMR5U2sn6sFDK5y-228" value="&lt;span style=&quot;font-size: 16px;&quot;&gt;&lt;font data-font-src=&quot;https://fonts.googleapis.com/css?family=Abel&quot; face=&quot;Abel&quot;&gt;Identifier&lt;/font&gt;&lt;/span&gt;" style="ellipse;whiteSpace=wrap;html=1;fillColor=#A8DADC;strokeColor=#457B9D;fontColor=#1D3557;rounded=1;" parent="1" vertex="1">
                    <mxGeometry x="160" y="200" width="80" height="40" as="geometry"/>
                </mxCell>
                <mxCell id="K5DylDMR5U2sn6sFDK5y-230" value="" style="endArrow=classic;html=1;rounded=1;fontFamily=Courier New;fontSize=16;fontColor=#1D3557;strokeColor=#457B9D;fillColor=#A8DADC;entryX=0;entryY=0.5;entryDx=0;entryDy=0;labelBackgroundColor=#F1FAEE;exitX=1;exitY=0.5;exitDx=0;exitDy=0;" parent="1" source="K5DylDMR5U2sn6sFDK5y-223" target="K5DylDMR5U2sn6sFDK5y-228" edge="1">
                    <mxGeometry width="50" height="50" relative="1" as="geometry">
                        <mxPoint x="20" y="230" as="sourcePoint"/>
                        <mxPoint x="50" y="230" as="targetPoint"/>
                    </mxGeometry>
                </mxCell>
                <mxCell id="K5DylDMR5U2sn6sFDK5y-231" value="&lt;span style=&quot;font-size: 16px;&quot;&gt;)&lt;/span&gt;" style="ellipse;whiteSpace=wrap;html=1;fillColor=#A8DADC;strokeColor=#457B9D;fontColor=#1D3557;rounded=1;fontFamily=Abel;" parent="1" vertex="1">
                    <mxGeometry x="680" y="200" width="40" height="40" as="geometry"/>
                </mxCell>
                <mxCell id="K5DylDMR5U2sn6sFDK5y-232" value="&lt;font data-font-src=&quot;https://fonts.googleapis.com/css?family=Abel&quot; face=&quot;Abel&quot;&gt;&lt;b&gt;Declaration&lt;/b&gt;&lt;/font&gt;" style="text;html=1;strokeColor=none;fillColor=none;align=left;verticalAlign=middle;whiteSpace=wrap;rounded=0;fontFamily=Abel;fontSize=16;fontColor=#1D3557;" parent="1" vertex="1">
                    <mxGeometry y="160" width="80" height="30" as="geometry"/>
                </mxCell>
                <mxCell id="K5DylDMR5U2sn6sFDK5y-233" style="edgeStyle=elbowEdgeStyle;rounded=1;orthogonalLoop=1;jettySize=auto;elbow=vertical;html=1;exitX=1;exitY=0.5;exitDx=0;exitDy=0;entryX=0;entryY=0.5;entryDx=0;entryDy=0;fontFamily=Courier New;fontSize=16;fontColor=#1D3557;strokeColor=#457B9D;fillColor=#A8DADC;labelBackgroundColor=#F1FAEE;" parent="1" source="K5DylDMR5U2sn6sFDK5y-234" target="K5DylDMR5U2sn6sFDK5y-236" edge="1">
                    <mxGeometry relative="1" as="geometry"/>
                </mxCell>
                <mxCell id="K5DylDMR5U2sn6sFDK5y-234" value="&lt;span style=&quot;font-size: 16px;&quot;&gt;&lt;font data-font-src=&quot;https://fonts.googleapis.com/css?family=Abel&quot; face=&quot;Abel&quot;&gt;Identifier&lt;/font&gt;&lt;/span&gt;" style="ellipse;whiteSpace=wrap;html=1;fillColor=#A8DADC;strokeColor=#457B9D;fontColor=#1D3557;rounded=1;" parent="1" vertex="1">
                    <mxGeometry x="360" y="260" width="80" height="40" as="geometry"/>
                </mxCell>
                <mxCell id="K5DylDMR5U2sn6sFDK5y-235" value="" style="endArrow=classic;html=1;rounded=1;fontFamily=Verdana;fontSize=15;strokeColor=#457B9D;fontColor=#1D3557;entryX=0;entryY=0.5;entryDx=0;entryDy=0;labelBackgroundColor=#F1FAEE;" parent="1" target="K5DylDMR5U2sn6sFDK5y-234" edge="1">
                    <mxGeometry width="50" height="50" relative="1" as="geometry">
                        <mxPoint x="340" y="220" as="sourcePoint"/>
                        <mxPoint x="350" y="280" as="targetPoint"/>
                        <Array as="points">
                            <mxPoint x="340" y="280"/>
                        </Array>
                    </mxGeometry>
                </mxCell>
                <mxCell id="K5DylDMR5U2sn6sFDK5y-236" value="&lt;span style=&quot;font-size: 16px;&quot;&gt;&lt;font data-font-src=&quot;https://fonts.googleapis.com/css?family=Abel&quot; face=&quot;Abel&quot;&gt;:&lt;/font&gt;&lt;/span&gt;" style="ellipse;whiteSpace=wrap;html=1;fillColor=#A8DADC;strokeColor=#457B9D;fontColor=#1D3557;rounded=1;" parent="1" vertex="1">
                    <mxGeometry x="480" y="260" width="40" height="40" as="geometry"/>
                </mxCell>
                <mxCell id="K5DylDMR5U2sn6sFDK5y-237" style="edgeStyle=elbowEdgeStyle;rounded=1;orthogonalLoop=1;jettySize=auto;elbow=vertical;html=1;entryX=0;entryY=0.5;entryDx=0;entryDy=0;fontFamily=Courier New;fontSize=16;fontColor=#1D3557;strokeColor=#457B9D;fillColor=#A8DADC;labelBackgroundColor=#F1FAEE;exitX=1;exitY=0.5;exitDx=0;exitDy=0;" parent="1" source="K5DylDMR5U2sn6sFDK5y-236" target="K5DylDMR5U2sn6sFDK5y-238" edge="1">
                    <mxGeometry relative="1" as="geometry">
                        <mxPoint x="530" y="280" as="sourcePoint"/>
                        <mxPoint x="560" y="279.72" as="targetPoint"/>
                    </mxGeometry>
                </mxCell>
                <mxCell id="K5DylDMR5U2sn6sFDK5y-238" value="&lt;span style=&quot;font-size: 16px;&quot;&gt;&lt;font data-font-src=&quot;https://fonts.googleapis.com/css?family=Abel&quot; face=&quot;Abel&quot;&gt;Type&lt;/font&gt;&lt;/span&gt;" style="ellipse;whiteSpace=wrap;html=1;fillColor=#A8DADC;strokeColor=#457B9D;fontColor=#1D3557;rounded=1;" parent="1" vertex="1">
                    <mxGeometry x="560" y="260" width="80" height="40" as="geometry"/>
                </mxCell>
                <mxCell id="K5DylDMR5U2sn6sFDK5y-240" value="" style="endArrow=classic;html=1;rounded=1;fontFamily=Verdana;fontSize=15;strokeColor=#457B9D;fontColor=#1D3557;entryX=0;entryY=0.5;entryDx=0;entryDy=0;labelBackgroundColor=#F1FAEE;exitX=1;exitY=0.5;exitDx=0;exitDy=0;" parent="1" source="K5DylDMR5U2sn6sFDK5y-238" edge="1">
                    <mxGeometry width="50" height="50" relative="1" as="geometry">
                        <mxPoint x="680" y="280" as="sourcePoint"/>
                        <mxPoint x="660" y="220" as="targetPoint"/>
                        <Array as="points">
                            <mxPoint x="660" y="280"/>
                            <mxPoint x="660" y="260"/>
                        </Array>
                    </mxGeometry>
                </mxCell>
                <mxCell id="K5DylDMR5U2sn6sFDK5y-241" value="&lt;span style=&quot;font-size: 16px;&quot;&gt;&lt;font data-font-src=&quot;https://fonts.googleapis.com/css?family=Abel&quot; face=&quot;Abel&quot;&gt;,&lt;/font&gt;&lt;/span&gt;" style="ellipse;whiteSpace=wrap;html=1;fillColor=#A8DADC;strokeColor=#457B9D;fontColor=#1D3557;rounded=1;" parent="1" vertex="1">
                    <mxGeometry x="480" y="380" width="40" height="40" as="geometry"/>
                </mxCell>
                <mxCell id="K5DylDMR5U2sn6sFDK5y-242" value="&lt;span style=&quot;font-size: 16px;&quot;&gt;&lt;font data-font-src=&quot;https://fonts.googleapis.com/css?family=Abel&quot; face=&quot;Abel&quot;&gt;,&lt;/font&gt;&lt;/span&gt;" style="ellipse;whiteSpace=wrap;html=1;fillColor=#A8DADC;strokeColor=#457B9D;fontColor=#1D3557;rounded=1;" parent="1" vertex="1">
                    <mxGeometry x="380" y="320" width="40" height="40" as="geometry"/>
                </mxCell>
                <mxCell id="K5DylDMR5U2sn6sFDK5y-244" value="" style="endArrow=classic;html=1;rounded=1;fontFamily=Verdana;fontSize=15;entryX=1;entryY=0.5;entryDx=0;entryDy=0;strokeColor=#457B9D;fontColor=#1D3557;labelBackgroundColor=#F1FAEE;" parent="1" target="K5DylDMR5U2sn6sFDK5y-242" edge="1">
                    <mxGeometry width="50" height="50" relative="1" as="geometry">
                        <mxPoint x="460" y="280" as="sourcePoint"/>
                        <mxPoint x="420" y="340" as="targetPoint"/>
                        <Array as="points">
                            <mxPoint x="460" y="320"/>
                            <mxPoint x="440" y="340"/>
                        </Array>
                    </mxGeometry>
                </mxCell>
                <mxCell id="K5DylDMR5U2sn6sFDK5y-245" value="" style="endArrow=classic;html=1;rounded=1;fontFamily=Verdana;fontSize=15;strokeColor=#457B9D;fontColor=#1D3557;labelBackgroundColor=#F1FAEE;exitX=0;exitY=0.5;exitDx=0;exitDy=0;" parent="1" source="K5DylDMR5U2sn6sFDK5y-242" edge="1">
                    <mxGeometry width="50" height="50" relative="1" as="geometry">
                        <mxPoint x="350" y="310" as="sourcePoint"/>
                        <mxPoint x="340" y="280" as="targetPoint"/>
                        <Array as="points">
                            <mxPoint x="360" y="340"/>
                            <mxPoint x="340" y="320"/>
                        </Array>
                    </mxGeometry>
                </mxCell>
                <mxCell id="K5DylDMR5U2sn6sFDK5y-246" value="" style="endArrow=classic;html=1;rounded=1;fontFamily=Verdana;fontSize=15;entryX=1;entryY=0.5;entryDx=0;entryDy=0;strokeColor=#457B9D;fontColor=#1D3557;labelBackgroundColor=#F1FAEE;" parent="1" target="K5DylDMR5U2sn6sFDK5y-241" edge="1">
                    <mxGeometry width="50" height="50" relative="1" as="geometry">
                        <mxPoint x="640" y="280" as="sourcePoint"/>
                        <mxPoint x="620" y="280" as="targetPoint"/>
                        <Array as="points">
                            <mxPoint x="660" y="280"/>
                            <mxPoint x="660" y="300"/>
                            <mxPoint x="660" y="380"/>
                            <mxPoint x="640" y="400"/>
                        </Array>
                    </mxGeometry>
                </mxCell>
                <mxCell id="K5DylDMR5U2sn6sFDK5y-247" value="" style="endArrow=classic;html=1;rounded=1;fontFamily=Verdana;fontSize=15;strokeColor=#457B9D;fontColor=#1D3557;labelBackgroundColor=#F1FAEE;exitX=0;exitY=0.5;exitDx=0;exitDy=0;" parent="1" source="K5DylDMR5U2sn6sFDK5y-241" edge="1">
                    <mxGeometry width="50" height="50" relative="1" as="geometry">
                        <mxPoint x="380" y="340" as="sourcePoint"/>
                        <mxPoint x="340" y="280" as="targetPoint"/>
                        <Array as="points">
                            <mxPoint x="360" y="400"/>
                            <mxPoint x="340" y="380"/>
                        </Array>
                    </mxGeometry>
                </mxCell>
                <mxCell id="K5DylDMR5U2sn6sFDK5y-248" value="" style="endArrow=classic;html=1;rounded=1;fontFamily=Verdana;fontSize=15;entryX=0;entryY=0.5;entryDx=0;entryDy=0;strokeColor=#457B9D;fontColor=#1D3557;labelBackgroundColor=#F1FAEE;startArrow=none;exitX=1;exitY=0.5;exitDx=0;exitDy=0;" parent="1" source="K5DylDMR5U2sn6sFDK5y-231" target="K5DylDMR5U2sn6sFDK5y-250" edge="1">
                    <mxGeometry width="50" height="50" relative="1" as="geometry">
                        <mxPoint x="730" y="220" as="sourcePoint"/>
                        <mxPoint x="760" y="219.66" as="targetPoint"/>
                        <Array as="points"/>
                    </mxGeometry>
                </mxCell>
                <mxCell id="K5DylDMR5U2sn6sFDK5y-250" value="&lt;font data-font-src=&quot;https://fonts.googleapis.com/css?family=Abel&quot; face=&quot;Abel&quot; style=&quot;font-size: 16px;&quot;&gt;Block&lt;/font&gt;" style="rounded=1;whiteSpace=wrap;html=1;arcSize=0;fillColor=#A8DADC;strokeColor=#457B9D;fontColor=#1D3557;align=center;" parent="1" vertex="1">
                    <mxGeometry x="1000" y="200" width="80" height="40" as="geometry"/>
                </mxCell>
                <mxCell id="K5DylDMR5U2sn6sFDK5y-251" value="" style="endArrow=classic;html=1;rounded=1;fontFamily=Verdana;fontSize=15;strokeColor=#457B9D;fontColor=#1D3557;entryX=0;entryY=0.5;entryDx=0;entryDy=0;labelBackgroundColor=#F1FAEE;" parent="1" target="K5DylDMR5U2sn6sFDK5y-252" edge="1">
                    <mxGeometry width="50" height="50" relative="1" as="geometry">
                        <mxPoint x="740" y="220" as="sourcePoint"/>
                        <mxPoint x="760" y="280" as="targetPoint"/>
                        <Array as="points">
                            <mxPoint x="740" y="260"/>
                        </Array>
                    </mxGeometry>
                </mxCell>
                <mxCell id="K5DylDMR5U2sn6sFDK5y-252" value="&lt;span style=&quot;font-size: 16px;&quot;&gt;&lt;font data-font-src=&quot;https://fonts.googleapis.com/css?family=Abel&quot; face=&quot;Abel&quot;&gt;-&amp;gt;&lt;/font&gt;&lt;/span&gt;" style="ellipse;whiteSpace=wrap;html=1;fillColor=#A8DADC;strokeColor=#457B9D;fontColor=#1D3557;rounded=1;" parent="1" vertex="1">
                    <mxGeometry x="760" y="260" width="80" height="40" as="geometry"/>
                </mxCell>
                <mxCell id="K5DylDMR5U2sn6sFDK5y-253" style="edgeStyle=elbowEdgeStyle;rounded=1;orthogonalLoop=1;jettySize=auto;elbow=vertical;html=1;entryX=0;entryY=0.5;entryDx=0;entryDy=0;fontFamily=Courier New;fontSize=16;fontColor=#1D3557;strokeColor=#457B9D;fillColor=#A8DADC;labelBackgroundColor=#F1FAEE;exitX=1;exitY=0.5;exitDx=0;exitDy=0;" parent="1" source="K5DylDMR5U2sn6sFDK5y-252" target="K5DylDMR5U2sn6sFDK5y-254" edge="1">
                    <mxGeometry relative="1" as="geometry">
                        <mxPoint x="850" y="280" as="sourcePoint"/>
                        <mxPoint x="880" y="279.86" as="targetPoint"/>
                    </mxGeometry>
                </mxCell>
                <mxCell id="K5DylDMR5U2sn6sFDK5y-254" value="&lt;span style=&quot;font-size: 16px;&quot;&gt;&lt;font data-font-src=&quot;https://fonts.googleapis.com/css?family=Abel&quot; face=&quot;Abel&quot;&gt;Type&lt;/font&gt;&lt;/span&gt;" style="ellipse;whiteSpace=wrap;html=1;fillColor=#A8DADC;strokeColor=#457B9D;fontColor=#1D3557;rounded=1;" parent="1" vertex="1">
                    <mxGeometry x="880" y="260" width="80" height="40" as="geometry"/>
                </mxCell>
                <mxCell id="K5DylDMR5U2sn6sFDK5y-255" value="" style="endArrow=classic;html=1;rounded=1;fontFamily=Courier New;fontSize=16;fontColor=#1D3557;strokeColor=#457B9D;fillColor=#A8DADC;labelBackgroundColor=#F1FAEE;exitX=1;exitY=0.5;exitDx=0;exitDy=0;" parent="1" source="K5DylDMR5U2sn6sFDK5y-250" edge="1">
                    <mxGeometry width="50" height="50" relative="1" as="geometry">
                        <mxPoint x="1130" y="220" as="sourcePoint"/>
                        <mxPoint x="1120" y="220" as="targetPoint"/>
                    </mxGeometry>
                </mxCell>
                <mxCell id="K5DylDMR5U2sn6sFDK5y-256" value="" style="endArrow=classic;html=1;rounded=1;fontFamily=Verdana;fontSize=15;strokeColor=#457B9D;fontColor=#1D3557;entryX=0;entryY=0.5;entryDx=0;entryDy=0;labelBackgroundColor=#F1FAEE;exitX=1;exitY=0.5;exitDx=0;exitDy=0;" parent="1" source="K5DylDMR5U2sn6sFDK5y-254" edge="1">
                    <mxGeometry width="50" height="50" relative="1" as="geometry">
                        <mxPoint x="960" y="280" as="sourcePoint"/>
                        <mxPoint x="980" y="220" as="targetPoint"/>
                        <Array as="points">
                            <mxPoint x="980" y="260"/>
                        </Array>
                    </mxGeometry>
                </mxCell>
                <mxCell id="K5DylDMR5U2sn6sFDK5y-318" value="" style="endArrow=classic;html=1;rounded=1;fontFamily=Verdana;fontSize=15;strokeColor=#457B9D;fontColor=#1D3557;entryX=0;entryY=0.5;entryDx=0;entryDy=0;labelBackgroundColor=#F1FAEE;" parent="1" target="K5DylDMR5U2sn6sFDK5y-319" edge="1">
                    <mxGeometry width="50" height="50" relative="1" as="geometry">
                        <mxPoint x="180" y="560" as="sourcePoint"/>
                        <mxPoint x="200.0000000000009" y="620" as="targetPoint"/>
                        <Array as="points">
                            <mxPoint x="180" y="600"/>
                        </Array>
                    </mxGeometry>
                </mxCell>
                <mxCell id="K5DylDMR5U2sn6sFDK5y-319" value="&lt;span style=&quot;font-size: 16px;&quot;&gt;(&lt;/span&gt;" style="ellipse;whiteSpace=wrap;html=1;fillColor=#A8DADC;strokeColor=#457B9D;fontColor=#1D3557;rounded=1;fontFamily=Abel;" parent="1" vertex="1">
                    <mxGeometry x="200" y="600" width="40" height="40" as="geometry"/>
                </mxCell>
                <mxCell id="K5DylDMR5U2sn6sFDK5y-320" value="&lt;span style=&quot;font-size: 16px;&quot;&gt;)&lt;/span&gt;" style="ellipse;whiteSpace=wrap;html=1;fillColor=#A8DADC;strokeColor=#457B9D;fontColor=#1D3557;rounded=1;fontFamily=Abel;" parent="1" vertex="1">
                    <mxGeometry x="520" y="600" width="40" height="40" as="geometry"/>
                </mxCell>
                <mxCell id="K5DylDMR5U2sn6sFDK5y-323" value="" style="endArrow=classic;html=1;rounded=1;fontFamily=Verdana;fontSize=15;exitX=1;exitY=0.5;exitDx=0;exitDy=0;entryX=0;entryY=0.5;entryDx=0;entryDy=0;strokeColor=#457B9D;fontColor=#1D3557;labelBackgroundColor=#F1FAEE;startArrow=none;" parent="1" source="K5DylDMR5U2sn6sFDK5y-319" target="K5DylDMR5U2sn6sFDK5y-320" edge="1">
                    <mxGeometry width="50" height="50" relative="1" as="geometry">
                        <mxPoint x="309.99999999999795" y="619.6199999999999" as="sourcePoint"/>
                        <mxPoint x="350.00000000000387" y="619.6199999999999" as="targetPoint"/>
                        <Array as="points"/>
                    </mxGeometry>
                </mxCell>
                <mxCell id="K5DylDMR5U2sn6sFDK5y-324" value="&lt;font data-font-src=&quot;https://fonts.googleapis.com/css?family=Abel&quot; face=&quot;Abel&quot; style=&quot;font-size: 16px;&quot;&gt;RelExpression&lt;/font&gt;" style="rounded=1;whiteSpace=wrap;html=1;arcSize=0;fillColor=#A8DADC;strokeColor=#457B9D;fontColor=#1D3557;align=center;" parent="1" vertex="1">
                    <mxGeometry x="320" y="660" width="120" height="40" as="geometry"/>
                </mxCell>
                <mxCell id="K5DylDMR5U2sn6sFDK5y-327" value="" style="endArrow=classic;html=1;rounded=1;fontFamily=Verdana;fontSize=15;strokeColor=#457B9D;fontColor=#1D3557;labelBackgroundColor=#F1FAEE;entryX=0;entryY=0.5;entryDx=0;entryDy=0;" parent="1" target="K5DylDMR5U2sn6sFDK5y-324" edge="1">
                    <mxGeometry width="50" height="50" relative="1" as="geometry">
                        <mxPoint x="260" y="619.9999999999998" as="sourcePoint"/>
                        <mxPoint x="360" y="679.9999999999998" as="targetPoint"/>
                        <Array as="points">
                            <mxPoint x="260" y="660"/>
                            <mxPoint x="280" y="680"/>
                        </Array>
                    </mxGeometry>
                </mxCell>
                <mxCell id="K5DylDMR5U2sn6sFDK5y-328" value="" style="endArrow=classic;html=1;rounded=1;fontFamily=Verdana;fontSize=15;strokeColor=#457B9D;fontColor=#1D3557;labelBackgroundColor=#F1FAEE;exitX=1;exitY=0.5;exitDx=0;exitDy=0;" parent="1" source="K5DylDMR5U2sn6sFDK5y-324" edge="1">
                    <mxGeometry width="50" height="50" relative="1" as="geometry">
                        <mxPoint x="380" y="680" as="sourcePoint"/>
                        <mxPoint x="500" y="620" as="targetPoint"/>
                        <Array as="points">
                            <mxPoint x="480" y="680"/>
                            <mxPoint x="500" y="660"/>
                        </Array>
                    </mxGeometry>
                </mxCell>
                <mxCell id="K5DylDMR5U2sn6sFDK5y-329" value="" style="endArrow=classic;html=1;rounded=1;fontFamily=Verdana;fontSize=15;entryX=1;entryY=0.5;entryDx=0;entryDy=0;strokeColor=#457B9D;fontColor=#1D3557;labelBackgroundColor=#F1FAEE;" parent="1" target="K5DylDMR5U2sn6sFDK5y-331" edge="1">
                    <mxGeometry width="50" height="50" relative="1" as="geometry">
                        <mxPoint x="460" y="680" as="sourcePoint"/>
                        <mxPoint x="420" y="740" as="targetPoint"/>
                        <Array as="points">
                            <mxPoint x="460" y="720"/>
                            <mxPoint x="440" y="740"/>
                        </Array>
                    </mxGeometry>
                </mxCell>
                <mxCell id="K5DylDMR5U2sn6sFDK5y-330" value="" style="endArrow=classic;html=1;rounded=1;fontFamily=Verdana;fontSize=15;strokeColor=#457B9D;fontColor=#1D3557;labelBackgroundColor=#F1FAEE;exitX=0;exitY=0.5;exitDx=0;exitDy=0;" parent="1" source="K5DylDMR5U2sn6sFDK5y-331" edge="1">
                    <mxGeometry width="50" height="50" relative="1" as="geometry">
                        <mxPoint x="340" y="740" as="sourcePoint"/>
                        <mxPoint x="300" y="680" as="targetPoint"/>
                        <Array as="points">
                            <mxPoint x="320" y="740"/>
                            <mxPoint x="300" y="720"/>
                        </Array>
                    </mxGeometry>
                </mxCell>
                <mxCell id="K5DylDMR5U2sn6sFDK5y-331" value="&lt;span style=&quot;font-size: 16px;&quot;&gt;,&lt;/span&gt;" style="ellipse;whiteSpace=wrap;html=1;fillColor=#A8DADC;strokeColor=#457B9D;fontColor=#1D3557;rounded=1;fontFamily=Abel;" parent="1" vertex="1">
                    <mxGeometry x="360" y="720" width="40" height="40" as="geometry"/>
                </mxCell>
                <mxCell id="K5DylDMR5U2sn6sFDK5y-333" value="" style="endArrow=classic;html=1;rounded=1;fontFamily=Verdana;fontSize=15;strokeColor=#457B9D;fontColor=#1D3557;labelBackgroundColor=#F1FAEE;exitX=1;exitY=0.5;exitDx=0;exitDy=0;" parent="1" source="K5DylDMR5U2sn6sFDK5y-320" edge="1">
                    <mxGeometry width="50" height="50" relative="1" as="geometry">
                        <mxPoint x="570" y="620" as="sourcePoint"/>
                        <mxPoint x="600" y="500" as="targetPoint"/>
                        <Array as="points">
                            <mxPoint x="580" y="620"/>
                            <mxPoint x="600" y="600"/>
                        </Array>
                    </mxGeometry>
                </mxCell>
                <mxCell id="K5DylDMR5U2sn6sFDK5y-334" value="" style="endArrow=classic;html=1;rounded=1;fontFamily=Verdana;fontSize=15;strokeColor=#457B9D;fontColor=#1D3557;entryX=0;entryY=0.5;entryDx=0;entryDy=0;labelBackgroundColor=#F1FAEE;" parent="1" target="K5DylDMR5U2sn6sFDK5y-335" edge="1">
                    <mxGeometry width="50" height="50" relative="1" as="geometry">
                        <mxPoint x="60" y="500" as="sourcePoint"/>
                        <mxPoint x="80" y="800" as="targetPoint"/>
                        <Array as="points">
                            <mxPoint x="60" y="780"/>
                        </Array>
                    </mxGeometry>
                </mxCell>
                <mxCell id="K5DylDMR5U2sn6sFDK5y-335" value="&lt;span style=&quot;font-size: 16px;&quot;&gt;&lt;font data-font-src=&quot;https://fonts.googleapis.com/css?family=Abel&quot; face=&quot;Abel&quot;&gt;saida&lt;/font&gt;&lt;/span&gt;" style="ellipse;whiteSpace=wrap;html=1;fillColor=#A8DADC;strokeColor=#457B9D;fontColor=#1D3557;rounded=1;" parent="1" vertex="1">
                    <mxGeometry x="80" y="780" width="80" height="40" as="geometry"/>
                </mxCell>
                <mxCell id="K5DylDMR5U2sn6sFDK5y-336" style="edgeStyle=elbowEdgeStyle;rounded=1;orthogonalLoop=1;jettySize=auto;elbow=vertical;html=1;exitX=1;exitY=0.5;exitDx=0;exitDy=0;entryX=0;entryY=0.5;entryDx=0;entryDy=0;fontFamily=Courier New;fontSize=16;fontColor=#1D3557;strokeColor=#457B9D;fillColor=#A8DADC;labelBackgroundColor=#F1FAEE;" parent="1" source="K5DylDMR5U2sn6sFDK5y-335" target="K5DylDMR5U2sn6sFDK5y-337" edge="1">
                    <mxGeometry relative="1" as="geometry">
                        <mxPoint x="160.00000000000023" y="799.8199999999999" as="sourcePoint"/>
                        <mxPoint x="200.00000000000546" y="799.8199999999999" as="targetPoint"/>
                    </mxGeometry>
                </mxCell>
                <mxCell id="K5DylDMR5U2sn6sFDK5y-337" value="&lt;span style=&quot;font-size: 16px;&quot;&gt;(&lt;/span&gt;" style="ellipse;whiteSpace=wrap;html=1;fillColor=#A8DADC;strokeColor=#457B9D;fontColor=#1D3557;rounded=1;fontFamily=Abel;" parent="1" vertex="1">
                    <mxGeometry x="200" y="780" width="40" height="40" as="geometry"/>
                </mxCell>
                <mxCell id="K5DylDMR5U2sn6sFDK5y-338" style="edgeStyle=elbowEdgeStyle;rounded=1;orthogonalLoop=1;jettySize=auto;elbow=vertical;html=1;entryX=0;entryY=0.5;entryDx=0;entryDy=0;fontFamily=Courier New;fontSize=16;fontColor=#1D3557;strokeColor=#457B9D;fillColor=#A8DADC;labelBackgroundColor=#F1FAEE;exitX=1;exitY=0.5;exitDx=0;exitDy=0;" parent="1" source="K5DylDMR5U2sn6sFDK5y-337" target="K5DylDMR5U2sn6sFDK5y-339" edge="1">
                    <mxGeometry relative="1" as="geometry">
                        <mxPoint x="250" y="800" as="sourcePoint"/>
                        <mxPoint x="280.00000000000546" y="799.8199999999999" as="targetPoint"/>
                    </mxGeometry>
                </mxCell>
                <mxCell id="K5DylDMR5U2sn6sFDK5y-339" value="&lt;font data-font-src=&quot;https://fonts.googleapis.com/css?family=Abel&quot; face=&quot;Abel&quot; style=&quot;font-size: 16px;&quot;&gt;RelExpression&lt;/font&gt;" style="rounded=1;whiteSpace=wrap;html=1;arcSize=0;fillColor=#A8DADC;strokeColor=#457B9D;fontColor=#1D3557;align=center;" parent="1" vertex="1">
                    <mxGeometry x="280" y="780" width="120" height="40" as="geometry"/>
                </mxCell>
                <mxCell id="K5DylDMR5U2sn6sFDK5y-340" style="edgeStyle=elbowEdgeStyle;rounded=1;orthogonalLoop=1;jettySize=auto;elbow=vertical;html=1;entryX=0;entryY=0.5;entryDx=0;entryDy=0;fontFamily=Courier New;fontSize=16;fontColor=#1D3557;strokeColor=#457B9D;fillColor=#A8DADC;labelBackgroundColor=#F1FAEE;exitX=1;exitY=0.5;exitDx=0;exitDy=0;" parent="1" source="K5DylDMR5U2sn6sFDK5y-339" target="K5DylDMR5U2sn6sFDK5y-341" edge="1">
                    <mxGeometry relative="1" as="geometry">
                        <mxPoint x="410" y="800" as="sourcePoint"/>
                        <mxPoint x="440.00000000000546" y="799.7499999999999" as="targetPoint"/>
                    </mxGeometry>
                </mxCell>
                <mxCell id="K5DylDMR5U2sn6sFDK5y-341" value="&lt;span style=&quot;font-size: 16px;&quot;&gt;)&lt;/span&gt;" style="ellipse;whiteSpace=wrap;html=1;fillColor=#A8DADC;strokeColor=#457B9D;fontColor=#1D3557;rounded=1;fontFamily=Abel;" parent="1" vertex="1">
                    <mxGeometry x="440" y="780" width="40" height="40" as="geometry"/>
                </mxCell>
                <mxCell id="K5DylDMR5U2sn6sFDK5y-342" value="" style="endArrow=classic;html=1;rounded=1;fontFamily=Verdana;fontSize=15;strokeColor=#457B9D;fontColor=#1D3557;labelBackgroundColor=#F1FAEE;exitX=1;exitY=0.5;exitDx=0;exitDy=0;" parent="1" source="K5DylDMR5U2sn6sFDK5y-341" edge="1">
                    <mxGeometry width="50" height="50" relative="1" as="geometry">
                        <mxPoint x="560" y="800" as="sourcePoint"/>
                        <mxPoint x="600" y="500" as="targetPoint"/>
                        <Array as="points">
                            <mxPoint x="580" y="800"/>
                            <mxPoint x="600" y="780"/>
                        </Array>
                    </mxGeometry>
                </mxCell>
                <mxCell id="K5DylDMR5U2sn6sFDK5y-343" value="" style="endArrow=classic;html=1;rounded=1;fontFamily=Verdana;fontSize=15;strokeColor=#457B9D;fontColor=#1D3557;entryX=0;entryY=0.5;entryDx=0;entryDy=0;labelBackgroundColor=#F1FAEE;" parent="1" target="K5DylDMR5U2sn6sFDK5y-344" edge="1">
                    <mxGeometry width="50" height="50" relative="1" as="geometry">
                        <mxPoint x="60" y="500" as="sourcePoint"/>
                        <mxPoint x="80.00000000000011" y="860" as="targetPoint"/>
                        <Array as="points">
                            <mxPoint x="60" y="840"/>
                        </Array>
                    </mxGeometry>
                </mxCell>
                <mxCell id="K5DylDMR5U2sn6sFDK5y-344" value="&lt;span style=&quot;font-size: 16px;&quot;&gt;&lt;font data-font-src=&quot;https://fonts.googleapis.com/css?family=Abel&quot; face=&quot;Abel&quot;&gt;variavel&lt;/font&gt;&lt;/span&gt;" style="ellipse;whiteSpace=wrap;html=1;fillColor=#A8DADC;strokeColor=#457B9D;fontColor=#1D3557;rounded=1;" parent="1" vertex="1">
                    <mxGeometry x="80" y="840" width="80" height="40" as="geometry"/>
                </mxCell>
                <mxCell id="K5DylDMR5U2sn6sFDK5y-345" style="edgeStyle=elbowEdgeStyle;rounded=1;orthogonalLoop=1;jettySize=auto;elbow=vertical;html=1;entryX=0;entryY=0.5;entryDx=0;entryDy=0;fontFamily=Courier New;fontSize=16;fontColor=#1D3557;strokeColor=#457B9D;fillColor=#A8DADC;labelBackgroundColor=#F1FAEE;exitX=1;exitY=0.5;exitDx=0;exitDy=0;" parent="1" source="K5DylDMR5U2sn6sFDK5y-344" target="K5DylDMR5U2sn6sFDK5y-346" edge="1">
                    <mxGeometry relative="1" as="geometry">
                        <mxPoint x="170" y="860" as="sourcePoint"/>
                        <mxPoint x="200.0000000000001" y="859.57" as="targetPoint"/>
                    </mxGeometry>
                </mxCell>
                <mxCell id="K5DylDMR5U2sn6sFDK5y-346" value="&lt;span style=&quot;font-family: Abel; font-size: 16px;&quot;&gt;Identifier&lt;/span&gt;" style="ellipse;whiteSpace=wrap;html=1;fillColor=#A8DADC;strokeColor=#457B9D;fontColor=#1D3557;rounded=1;" parent="1" vertex="1">
                    <mxGeometry x="200" y="840" width="80" height="40" as="geometry"/>
                </mxCell>
                <mxCell id="K5DylDMR5U2sn6sFDK5y-348" style="edgeStyle=elbowEdgeStyle;rounded=1;orthogonalLoop=1;jettySize=auto;elbow=vertical;html=1;entryX=0;entryY=0.5;entryDx=0;entryDy=0;fontFamily=Courier New;fontSize=16;fontColor=#1D3557;strokeColor=#457B9D;fillColor=#A8DADC;labelBackgroundColor=#F1FAEE;exitX=1;exitY=0.5;exitDx=0;exitDy=0;" parent="1" source="K5DylDMR5U2sn6sFDK5y-346" target="K5DylDMR5U2sn6sFDK5y-349" edge="1">
                    <mxGeometry relative="1" as="geometry">
                        <mxPoint x="290" y="860" as="sourcePoint"/>
                        <mxPoint x="320.0000000000001" y="859.7" as="targetPoint"/>
                    </mxGeometry>
                </mxCell>
                <mxCell id="K5DylDMR5U2sn6sFDK5y-349" value="&lt;span style=&quot;font-size: 16px;&quot;&gt;:&lt;/span&gt;" style="ellipse;whiteSpace=wrap;html=1;fillColor=#A8DADC;strokeColor=#457B9D;fontColor=#1D3557;rounded=1;fontFamily=Abel;" parent="1" vertex="1">
                    <mxGeometry x="320" y="840" width="40" height="40" as="geometry"/>
                </mxCell>
                <mxCell id="K5DylDMR5U2sn6sFDK5y-350" value="&lt;span style=&quot;font-family: Abel; font-size: 16px;&quot;&gt;Type&lt;/span&gt;" style="ellipse;whiteSpace=wrap;html=1;fillColor=#A8DADC;strokeColor=#457B9D;fontColor=#1D3557;rounded=1;" parent="1" vertex="1">
                    <mxGeometry x="400" y="840" width="80" height="40" as="geometry"/>
                </mxCell>
                <mxCell id="K5DylDMR5U2sn6sFDK5y-352" style="edgeStyle=elbowEdgeStyle;rounded=1;orthogonalLoop=1;jettySize=auto;elbow=vertical;html=1;fontFamily=Courier New;fontSize=16;fontColor=#1D3557;strokeColor=#457B9D;fillColor=#A8DADC;labelBackgroundColor=#F1FAEE;exitX=1;exitY=0.5;exitDx=0;exitDy=0;entryX=0;entryY=0.5;entryDx=0;entryDy=0;" parent="1" source="K5DylDMR5U2sn6sFDK5y-349" target="K5DylDMR5U2sn6sFDK5y-350" edge="1">
                    <mxGeometry relative="1" as="geometry">
                        <mxPoint x="370" y="860" as="sourcePoint"/>
                        <mxPoint x="390" y="860" as="targetPoint"/>
                    </mxGeometry>
                </mxCell>
                <mxCell id="K5DylDMR5U2sn6sFDK5y-353" value="" style="endArrow=classic;html=1;rounded=1;fontFamily=Verdana;fontSize=15;strokeColor=#457B9D;fontColor=#1D3557;labelBackgroundColor=#F1FAEE;exitX=1;exitY=0.5;exitDx=0;exitDy=0;" parent="1" source="K5DylDMR5U2sn6sFDK5y-350" edge="1">
                    <mxGeometry width="50" height="50" relative="1" as="geometry">
                        <mxPoint x="490" y="860" as="sourcePoint"/>
                        <mxPoint x="600" y="500" as="targetPoint"/>
                        <Array as="points">
                            <mxPoint x="580" y="860"/>
                            <mxPoint x="600" y="840"/>
                        </Array>
                    </mxGeometry>
                </mxCell>
                <mxCell id="K5DylDMR5U2sn6sFDK5y-354" value="&lt;span style=&quot;font-size: 16px;&quot;&gt;,&lt;/span&gt;" style="ellipse;whiteSpace=wrap;html=1;fillColor=#A8DADC;strokeColor=#457B9D;fontColor=#1D3557;rounded=1;fontFamily=Abel;" parent="1" vertex="1">
                    <mxGeometry x="220" y="900" width="40" height="40" as="geometry"/>
                </mxCell>
                <mxCell id="K5DylDMR5U2sn6sFDK5y-355" value="" style="endArrow=classic;html=1;rounded=1;fontFamily=Verdana;fontSize=15;entryX=1;entryY=0.5;entryDx=0;entryDy=0;strokeColor=#457B9D;fontColor=#1D3557;labelBackgroundColor=#F1FAEE;" parent="1" target="K5DylDMR5U2sn6sFDK5y-354" edge="1">
                    <mxGeometry width="50" height="50" relative="1" as="geometry">
                        <mxPoint x="300" y="860" as="sourcePoint"/>
                        <mxPoint x="240" y="920" as="targetPoint"/>
                        <Array as="points">
                            <mxPoint x="300" y="910"/>
                            <mxPoint x="290" y="920"/>
                        </Array>
                    </mxGeometry>
                </mxCell>
                <mxCell id="K5DylDMR5U2sn6sFDK5y-356" value="" style="endArrow=classic;html=1;rounded=1;fontFamily=Verdana;fontSize=15;strokeColor=#457B9D;fontColor=#1D3557;labelBackgroundColor=#F1FAEE;exitX=0;exitY=0.5;exitDx=0;exitDy=0;" parent="1" source="K5DylDMR5U2sn6sFDK5y-354" edge="1">
                    <mxGeometry width="50" height="50" relative="1" as="geometry">
                        <mxPoint x="210" y="920" as="sourcePoint"/>
                        <mxPoint x="180" y="860" as="targetPoint"/>
                        <Array as="points">
                            <mxPoint x="190" y="920"/>
                            <mxPoint x="180" y="910"/>
                        </Array>
                    </mxGeometry>
                </mxCell>
                <mxCell id="K5DylDMR5U2sn6sFDK5y-357" value="" style="endArrow=classic;html=1;rounded=1;fontFamily=Verdana;fontSize=15;strokeColor=#457B9D;fontColor=#1D3557;entryX=0;entryY=0.5;entryDx=0;entryDy=0;labelBackgroundColor=#F1FAEE;" parent="1" target="K5DylDMR5U2sn6sFDK5y-358" edge="1">
                    <mxGeometry width="50" height="50" relative="1" as="geometry">
                        <mxPoint x="60" y="500" as="sourcePoint"/>
                        <mxPoint x="80.00000000000023" y="980" as="targetPoint"/>
                        <Array as="points">
                            <mxPoint x="60" y="960"/>
                        </Array>
                    </mxGeometry>
                </mxCell>
                <mxCell id="K5DylDMR5U2sn6sFDK5y-358" value="&lt;span style=&quot;font-size: 16px;&quot;&gt;&lt;font data-font-src=&quot;https://fonts.googleapis.com/css?family=Abel&quot; face=&quot;Abel&quot;&gt;retorno&lt;/font&gt;&lt;/span&gt;" style="ellipse;whiteSpace=wrap;html=1;fillColor=#A8DADC;strokeColor=#457B9D;fontColor=#1D3557;rounded=1;" parent="1" vertex="1">
                    <mxGeometry x="80" y="960" width="80" height="40" as="geometry"/>
                </mxCell>
                <mxCell id="K5DylDMR5U2sn6sFDK5y-359" style="edgeStyle=elbowEdgeStyle;rounded=1;orthogonalLoop=1;jettySize=auto;elbow=vertical;html=1;entryX=0;entryY=0.5;entryDx=0;entryDy=0;fontFamily=Courier New;fontSize=16;fontColor=#1D3557;strokeColor=#457B9D;fillColor=#A8DADC;labelBackgroundColor=#F1FAEE;exitX=1;exitY=0.5;exitDx=0;exitDy=0;" parent="1" source="K5DylDMR5U2sn6sFDK5y-358" target="K5DylDMR5U2sn6sFDK5y-360" edge="1">
                    <mxGeometry relative="1" as="geometry">
                        <mxPoint x="170" y="980" as="sourcePoint"/>
                        <mxPoint x="200.00000000000193" y="979.7" as="targetPoint"/>
                    </mxGeometry>
                </mxCell>
                <mxCell id="K5DylDMR5U2sn6sFDK5y-360" value="&lt;font data-font-src=&quot;https://fonts.googleapis.com/css?family=Abel&quot; face=&quot;Abel&quot; style=&quot;font-size: 16px;&quot;&gt;RelExpression&lt;/font&gt;" style="rounded=1;whiteSpace=wrap;html=1;arcSize=0;fillColor=#A8DADC;strokeColor=#457B9D;fontColor=#1D3557;align=center;" parent="1" vertex="1">
                    <mxGeometry x="200" y="960" width="120" height="40" as="geometry"/>
                </mxCell>
                <mxCell id="K5DylDMR5U2sn6sFDK5y-361" value="" style="endArrow=classic;html=1;rounded=1;fontFamily=Verdana;fontSize=15;strokeColor=#457B9D;fontColor=#1D3557;labelBackgroundColor=#F1FAEE;exitX=1;exitY=0.5;exitDx=0;exitDy=0;" parent="1" source="K5DylDMR5U2sn6sFDK5y-360" edge="1">
                    <mxGeometry width="50" height="50" relative="1" as="geometry">
                        <mxPoint x="480" y="980" as="sourcePoint"/>
                        <mxPoint x="600" y="500" as="targetPoint"/>
                        <Array as="points">
                            <mxPoint x="580" y="980"/>
                            <mxPoint x="600" y="960"/>
                        </Array>
                    </mxGeometry>
                </mxCell>
                <mxCell id="K5DylDMR5U2sn6sFDK5y-366" value="" style="endArrow=classic;html=1;rounded=1;fontFamily=Verdana;fontSize=15;strokeColor=#457B9D;fontColor=#1D3557;entryX=0;entryY=0.5;entryDx=0;entryDy=0;labelBackgroundColor=#F1FAEE;" parent="1" target="K5DylDMR5U2sn6sFDK5y-367" edge="1">
                    <mxGeometry width="50" height="50" relative="1" as="geometry">
                        <mxPoint x="60" y="500" as="sourcePoint"/>
                        <mxPoint x="80" y="1160" as="targetPoint"/>
                        <Array as="points">
                            <mxPoint x="60" y="1020"/>
                        </Array>
                    </mxGeometry>
                </mxCell>
                <mxCell id="K5DylDMR5U2sn6sFDK5y-367" value="&lt;font data-font-src=&quot;https://fonts.googleapis.com/css?family=Abel&quot; face=&quot;Abel&quot; style=&quot;font-size: 16px;&quot;&gt;Block&lt;/font&gt;" style="rounded=1;whiteSpace=wrap;html=1;arcSize=0;fillColor=#A8DADC;strokeColor=#457B9D;fontColor=#1D3557;align=center;" parent="1" vertex="1">
                    <mxGeometry x="80" y="1020" width="160" height="40" as="geometry"/>
                </mxCell>
                <mxCell id="K5DylDMR5U2sn6sFDK5y-371" value="&lt;span style=&quot;font-size: 16px;&quot;&gt;)&lt;/span&gt;" style="ellipse;whiteSpace=wrap;html=1;fillColor=#A8DADC;strokeColor=#457B9D;fontColor=#1D3557;rounded=1;fontFamily=Abel;" parent="1" vertex="1">
                    <mxGeometry x="440" y="780" width="40" height="40" as="geometry"/>
                </mxCell>
                <mxCell id="K5DylDMR5U2sn6sFDK5y-372" style="edgeStyle=elbowEdgeStyle;rounded=1;orthogonalLoop=1;jettySize=auto;elbow=vertical;html=1;entryX=0;entryY=0.5;entryDx=0;entryDy=0;fontFamily=Courier New;fontSize=16;fontColor=#1D3557;strokeColor=#457B9D;fillColor=#A8DADC;labelBackgroundColor=#F1FAEE;exitX=1;exitY=0.5;exitDx=0;exitDy=0;" parent="1" source="K5DylDMR5U2sn6sFDK5y-373" target="K5DylDMR5U2sn6sFDK5y-371" edge="1">
                    <mxGeometry relative="1" as="geometry">
                        <mxPoint x="410" y="800" as="sourcePoint"/>
                        <mxPoint x="440.00000000000546" y="799.7499999999999" as="targetPoint"/>
                    </mxGeometry>
                </mxCell>
                <mxCell id="K5DylDMR5U2sn6sFDK5y-373" value="&lt;font data-font-src=&quot;https://fonts.googleapis.com/css?family=Abel&quot; face=&quot;Abel&quot; style=&quot;font-size: 16px;&quot;&gt;RelExpression&lt;/font&gt;" style="rounded=1;whiteSpace=wrap;html=1;arcSize=0;fillColor=#A8DADC;strokeColor=#457B9D;fontColor=#1D3557;align=center;" parent="1" vertex="1">
                    <mxGeometry x="280" y="780" width="120" height="40" as="geometry"/>
                </mxCell>
                <mxCell id="K5DylDMR5U2sn6sFDK5y-374" style="edgeStyle=elbowEdgeStyle;rounded=1;orthogonalLoop=1;jettySize=auto;elbow=vertical;html=1;entryX=0;entryY=0.5;entryDx=0;entryDy=0;fontFamily=Courier New;fontSize=16;fontColor=#1D3557;strokeColor=#457B9D;fillColor=#A8DADC;labelBackgroundColor=#F1FAEE;exitX=1;exitY=0.5;exitDx=0;exitDy=0;" parent="1" target="K5DylDMR5U2sn6sFDK5y-373" edge="1">
                    <mxGeometry relative="1" as="geometry">
                        <mxPoint x="239.99999999999807" y="800" as="sourcePoint"/>
                        <mxPoint x="280.00000000000546" y="799.8199999999999" as="targetPoint"/>
                    </mxGeometry>
                </mxCell>
                <mxCell id="K5DylDMR5U2sn6sFDK5y-412" value="" style="endArrow=classic;html=1;rounded=1;fontFamily=Verdana;fontSize=15;strokeColor=#457B9D;fontColor=#1D3557;entryX=0;entryY=0.5;entryDx=0;entryDy=0;labelBackgroundColor=#F1FAEE;" parent="1" target="K5DylDMR5U2sn6sFDK5y-413" edge="1">
                    <mxGeometry width="50" height="50" relative="1" as="geometry">
                        <mxPoint x="60" y="500" as="sourcePoint"/>
                        <mxPoint x="80.00000000000011" y="1100" as="targetPoint"/>
                        <Array as="points">
                            <mxPoint x="60" y="1080"/>
                        </Array>
                    </mxGeometry>
                </mxCell>
                <mxCell id="K5DylDMR5U2sn6sFDK5y-413" value="&lt;span style=&quot;font-size: 16px;&quot;&gt;&lt;font data-font-src=&quot;https://fonts.googleapis.com/css?family=Abel&quot; face=&quot;Abel&quot;&gt;enquanto&lt;/font&gt;&lt;/span&gt;" style="ellipse;whiteSpace=wrap;html=1;fillColor=#A8DADC;strokeColor=#457B9D;fontColor=#1D3557;rounded=1;" parent="1" vertex="1">
                    <mxGeometry x="80" y="1080" width="80" height="40" as="geometry"/>
                </mxCell>
                <mxCell id="K5DylDMR5U2sn6sFDK5y-414" value="" style="endArrow=classic;html=1;rounded=1;fontFamily=Verdana;fontSize=15;strokeColor=#457B9D;fontColor=#1D3557;entryX=0;entryY=0.5;entryDx=0;entryDy=0;labelBackgroundColor=#F1FAEE;" parent="1" target="K5DylDMR5U2sn6sFDK5y-415" edge="1">
                    <mxGeometry width="50" height="50" relative="1" as="geometry">
                        <mxPoint x="60" y="500" as="sourcePoint"/>
                        <mxPoint x="80.00000000000011" y="1160" as="targetPoint"/>
                        <Array as="points">
                            <mxPoint x="60" y="1140"/>
                        </Array>
                    </mxGeometry>
                </mxCell>
                <mxCell id="K5DylDMR5U2sn6sFDK5y-415" value="&lt;span style=&quot;font-size: 16px;&quot;&gt;&lt;font data-font-src=&quot;https://fonts.googleapis.com/css?family=Abel&quot; face=&quot;Abel&quot;&gt;se&lt;/font&gt;&lt;/span&gt;" style="ellipse;whiteSpace=wrap;html=1;fillColor=#A8DADC;strokeColor=#457B9D;fontColor=#1D3557;rounded=1;" parent="1" vertex="1">
                    <mxGeometry x="80" y="1140" width="80" height="40" as="geometry"/>
                </mxCell>
                <mxCell id="K5DylDMR5U2sn6sFDK5y-416" style="edgeStyle=elbowEdgeStyle;rounded=1;orthogonalLoop=1;jettySize=auto;elbow=vertical;html=1;entryX=0;entryY=0.5;entryDx=0;entryDy=0;fontFamily=Courier New;fontSize=16;fontColor=#1D3557;strokeColor=#457B9D;fillColor=#A8DADC;labelBackgroundColor=#F1FAEE;exitX=1;exitY=0.5;exitDx=0;exitDy=0;" parent="1" source="K5DylDMR5U2sn6sFDK5y-413" target="K5DylDMR5U2sn6sFDK5y-418" edge="1">
                    <mxGeometry relative="1" as="geometry">
                        <mxPoint x="170" y="1100" as="sourcePoint"/>
                        <mxPoint x="200" y="1099.81" as="targetPoint"/>
                    </mxGeometry>
                </mxCell>
                <mxCell id="K5DylDMR5U2sn6sFDK5y-417" style="edgeStyle=elbowEdgeStyle;rounded=1;orthogonalLoop=1;jettySize=auto;elbow=vertical;html=1;entryX=0;entryY=0.5;entryDx=0;entryDy=0;fontFamily=Courier New;fontSize=16;fontColor=#1D3557;strokeColor=#457B9D;fillColor=#A8DADC;labelBackgroundColor=#F1FAEE;exitX=1;exitY=0.5;exitDx=0;exitDy=0;" parent="1" source="K5DylDMR5U2sn6sFDK5y-415" target="K5DylDMR5U2sn6sFDK5y-423" edge="1">
                    <mxGeometry relative="1" as="geometry">
                        <mxPoint x="170" y="1160" as="sourcePoint"/>
                        <mxPoint x="200" y="1159.73" as="targetPoint"/>
                    </mxGeometry>
                </mxCell>
                <mxCell id="K5DylDMR5U2sn6sFDK5y-418" value="&lt;span style=&quot;font-size: 16px;&quot;&gt;(&lt;/span&gt;" style="ellipse;whiteSpace=wrap;html=1;fillColor=#A8DADC;strokeColor=#457B9D;fontColor=#1D3557;rounded=1;fontFamily=Abel;" parent="1" vertex="1">
                    <mxGeometry x="200" y="1080" width="40" height="40" as="geometry"/>
                </mxCell>
                <mxCell id="K5DylDMR5U2sn6sFDK5y-419" value="&lt;span style=&quot;font-size: 16px;&quot;&gt;)&lt;/span&gt;" style="ellipse;whiteSpace=wrap;html=1;fillColor=#A8DADC;strokeColor=#457B9D;fontColor=#1D3557;rounded=1;fontFamily=Abel;" parent="1" vertex="1">
                    <mxGeometry x="440" y="1080" width="40" height="40" as="geometry"/>
                </mxCell>
                <mxCell id="K5DylDMR5U2sn6sFDK5y-420" style="edgeStyle=elbowEdgeStyle;rounded=1;orthogonalLoop=1;jettySize=auto;elbow=vertical;html=1;entryX=0;entryY=0.5;entryDx=0;entryDy=0;fontFamily=Courier New;fontSize=16;fontColor=#1D3557;strokeColor=#457B9D;fillColor=#A8DADC;labelBackgroundColor=#F1FAEE;exitX=1;exitY=0.5;exitDx=0;exitDy=0;" parent="1" source="K5DylDMR5U2sn6sFDK5y-421" target="K5DylDMR5U2sn6sFDK5y-419" edge="1">
                    <mxGeometry relative="1" as="geometry">
                        <mxPoint x="410" y="1100" as="sourcePoint"/>
                        <mxPoint x="440.00000000000546" y="1099.75" as="targetPoint"/>
                    </mxGeometry>
                </mxCell>
                <mxCell id="K5DylDMR5U2sn6sFDK5y-421" value="&lt;font data-font-src=&quot;https://fonts.googleapis.com/css?family=Abel&quot; face=&quot;Abel&quot; style=&quot;font-size: 16px;&quot;&gt;RelExpression&lt;/font&gt;" style="rounded=1;whiteSpace=wrap;html=1;arcSize=0;fillColor=#A8DADC;strokeColor=#457B9D;fontColor=#1D3557;align=center;" parent="1" vertex="1">
                    <mxGeometry x="280" y="1080" width="120" height="40" as="geometry"/>
                </mxCell>
                <mxCell id="K5DylDMR5U2sn6sFDK5y-422" style="edgeStyle=elbowEdgeStyle;rounded=1;orthogonalLoop=1;jettySize=auto;elbow=vertical;html=1;entryX=0;entryY=0.5;entryDx=0;entryDy=0;fontFamily=Courier New;fontSize=16;fontColor=#1D3557;strokeColor=#457B9D;fillColor=#A8DADC;labelBackgroundColor=#F1FAEE;exitX=1;exitY=0.5;exitDx=0;exitDy=0;" parent="1" target="K5DylDMR5U2sn6sFDK5y-421" edge="1">
                    <mxGeometry relative="1" as="geometry">
                        <mxPoint x="239.99999999999807" y="1100" as="sourcePoint"/>
                        <mxPoint x="280.00000000000546" y="1099.82" as="targetPoint"/>
                    </mxGeometry>
                </mxCell>
                <mxCell id="K5DylDMR5U2sn6sFDK5y-423" value="&lt;span style=&quot;font-size: 16px;&quot;&gt;(&lt;/span&gt;" style="ellipse;whiteSpace=wrap;html=1;fillColor=#A8DADC;strokeColor=#457B9D;fontColor=#1D3557;rounded=1;fontFamily=Abel;" parent="1" vertex="1">
                    <mxGeometry x="200" y="1140" width="40" height="40" as="geometry"/>
                </mxCell>
                <mxCell id="K5DylDMR5U2sn6sFDK5y-424" value="&lt;span style=&quot;font-size: 16px;&quot;&gt;)&lt;/span&gt;" style="ellipse;whiteSpace=wrap;html=1;fillColor=#A8DADC;strokeColor=#457B9D;fontColor=#1D3557;rounded=1;fontFamily=Abel;" parent="1" vertex="1">
                    <mxGeometry x="440" y="1140" width="40" height="40" as="geometry"/>
                </mxCell>
                <mxCell id="K5DylDMR5U2sn6sFDK5y-425" style="edgeStyle=elbowEdgeStyle;rounded=1;orthogonalLoop=1;jettySize=auto;elbow=vertical;html=1;entryX=0;entryY=0.5;entryDx=0;entryDy=0;fontFamily=Courier New;fontSize=16;fontColor=#1D3557;strokeColor=#457B9D;fillColor=#A8DADC;labelBackgroundColor=#F1FAEE;exitX=1;exitY=0.5;exitDx=0;exitDy=0;" parent="1" source="K5DylDMR5U2sn6sFDK5y-426" target="K5DylDMR5U2sn6sFDK5y-424" edge="1">
                    <mxGeometry relative="1" as="geometry">
                        <mxPoint x="410" y="1160" as="sourcePoint"/>
                        <mxPoint x="440.00000000000546" y="1159.75" as="targetPoint"/>
                    </mxGeometry>
                </mxCell>
                <mxCell id="K5DylDMR5U2sn6sFDK5y-426" value="&lt;font data-font-src=&quot;https://fonts.googleapis.com/css?family=Abel&quot; face=&quot;Abel&quot; style=&quot;font-size: 16px;&quot;&gt;RelExpression&lt;/font&gt;" style="rounded=1;whiteSpace=wrap;html=1;arcSize=0;fillColor=#A8DADC;strokeColor=#457B9D;fontColor=#1D3557;align=center;" parent="1" vertex="1">
                    <mxGeometry x="280" y="1140" width="120" height="40" as="geometry"/>
                </mxCell>
                <mxCell id="K5DylDMR5U2sn6sFDK5y-427" style="edgeStyle=elbowEdgeStyle;rounded=1;orthogonalLoop=1;jettySize=auto;elbow=vertical;html=1;entryX=0;entryY=0.5;entryDx=0;entryDy=0;fontFamily=Courier New;fontSize=16;fontColor=#1D3557;strokeColor=#457B9D;fillColor=#A8DADC;labelBackgroundColor=#F1FAEE;exitX=1;exitY=0.5;exitDx=0;exitDy=0;" parent="1" target="K5DylDMR5U2sn6sFDK5y-426" edge="1">
                    <mxGeometry relative="1" as="geometry">
                        <mxPoint x="239.99999999999807" y="1159.9999999999998" as="sourcePoint"/>
                        <mxPoint x="280.00000000000546" y="1159.82" as="targetPoint"/>
                    </mxGeometry>
                </mxCell>
                <mxCell id="K5DylDMR5U2sn6sFDK5y-428" style="edgeStyle=elbowEdgeStyle;rounded=1;orthogonalLoop=1;jettySize=auto;elbow=vertical;html=1;entryX=0;entryY=0.5;entryDx=0;entryDy=0;fontFamily=Courier New;fontSize=16;fontColor=#1D3557;strokeColor=#457B9D;fillColor=#A8DADC;labelBackgroundColor=#F1FAEE;exitX=1;exitY=0.5;exitDx=0;exitDy=0;" parent="1" source="K5DylDMR5U2sn6sFDK5y-419" target="K5DylDMR5U2sn6sFDK5y-430" edge="1">
                    <mxGeometry relative="1" as="geometry">
                        <mxPoint x="490" y="1100" as="sourcePoint"/>
                        <mxPoint x="520" y="1099.62" as="targetPoint"/>
                    </mxGeometry>
                </mxCell>
                <mxCell id="K5DylDMR5U2sn6sFDK5y-429" style="edgeStyle=elbowEdgeStyle;rounded=1;orthogonalLoop=1;jettySize=auto;elbow=vertical;html=1;entryX=0;entryY=0.5;entryDx=0;entryDy=0;fontFamily=Courier New;fontSize=16;fontColor=#1D3557;strokeColor=#457B9D;fillColor=#A8DADC;labelBackgroundColor=#F1FAEE;exitX=1;exitY=0.5;exitDx=0;exitDy=0;" parent="1" source="K5DylDMR5U2sn6sFDK5y-424" edge="1">
                    <mxGeometry relative="1" as="geometry">
                        <mxPoint x="490" y="1160" as="sourcePoint"/>
                        <mxPoint x="520" y="1159.62" as="targetPoint"/>
                    </mxGeometry>
                </mxCell>
                <mxCell id="K5DylDMR5U2sn6sFDK5y-430" value="&lt;font data-font-src=&quot;https://fonts.googleapis.com/css?family=Abel&quot; face=&quot;Abel&quot; style=&quot;font-size: 16px;&quot;&gt;Statement&lt;/font&gt;" style="rounded=1;whiteSpace=wrap;html=1;arcSize=0;fillColor=#A8DADC;strokeColor=#457B9D;fontColor=#1D3557;align=center;" parent="1" vertex="1">
                    <mxGeometry x="520" y="1080" width="80" height="40" as="geometry"/>
                </mxCell>
                <mxCell id="K5DylDMR5U2sn6sFDK5y-431" value="&lt;font data-font-src=&quot;https://fonts.googleapis.com/css?family=Abel&quot; face=&quot;Abel&quot; style=&quot;font-size: 16px;&quot;&gt;Statement&lt;/font&gt;" style="rounded=1;whiteSpace=wrap;html=1;arcSize=0;fillColor=#A8DADC;strokeColor=#457B9D;fontColor=#1D3557;align=center;" parent="1" vertex="1">
                    <mxGeometry x="520" y="1140" width="80" height="40" as="geometry"/>
                </mxCell>
                <mxCell id="K5DylDMR5U2sn6sFDK5y-432" value="" style="endArrow=classic;html=1;rounded=1;fontFamily=Verdana;fontSize=15;strokeColor=#457B9D;fontColor=#1D3557;labelBackgroundColor=#F1FAEE;exitX=1;exitY=0.5;exitDx=0;exitDy=0;" parent="1" source="K5DylDMR5U2sn6sFDK5y-367" edge="1">
                    <mxGeometry width="50" height="50" relative="1" as="geometry">
                        <mxPoint x="440" y="1040" as="sourcePoint"/>
                        <mxPoint x="720" y="500" as="targetPoint"/>
                        <Array as="points">
                            <mxPoint x="700" y="1040"/>
                            <mxPoint x="720" y="1020"/>
                        </Array>
                    </mxGeometry>
                </mxCell>
                <mxCell id="K5DylDMR5U2sn6sFDK5y-433" value="" style="endArrow=classic;html=1;rounded=1;fontFamily=Verdana;fontSize=15;strokeColor=#457B9D;fontColor=#1D3557;labelBackgroundColor=#F1FAEE;exitX=1;exitY=0.5;exitDx=0;exitDy=0;" parent="1" source="K5DylDMR5U2sn6sFDK5y-430" edge="1">
                    <mxGeometry width="50" height="50" relative="1" as="geometry">
                        <mxPoint x="680" y="1100" as="sourcePoint"/>
                        <mxPoint x="720" y="500" as="targetPoint"/>
                        <Array as="points">
                            <mxPoint x="700" y="1100"/>
                            <mxPoint x="720" y="1080"/>
                        </Array>
                    </mxGeometry>
                </mxCell>
                <mxCell id="K5DylDMR5U2sn6sFDK5y-434" value="" style="endArrow=classic;html=1;rounded=1;fontFamily=Verdana;fontSize=15;strokeColor=#457B9D;fontColor=#1D3557;labelBackgroundColor=#F1FAEE;exitX=1;exitY=0.5;exitDx=0;exitDy=0;" parent="1" source="K5DylDMR5U2sn6sFDK5y-431" edge="1">
                    <mxGeometry width="50" height="50" relative="1" as="geometry">
                        <mxPoint x="610" y="1160" as="sourcePoint"/>
                        <mxPoint x="720" y="500" as="targetPoint"/>
                        <Array as="points">
                            <mxPoint x="700" y="1160"/>
                            <mxPoint x="720" y="1140"/>
                        </Array>
                    </mxGeometry>
                </mxCell>
                <mxCell id="K5DylDMR5U2sn6sFDK5y-435" value="&lt;span style=&quot;font-size: 16px;&quot;&gt;&lt;font data-font-src=&quot;https://fonts.googleapis.com/css?family=Abel&quot; face=&quot;Abel&quot;&gt;senão&lt;/font&gt;&lt;/span&gt;" style="ellipse;whiteSpace=wrap;html=1;fillColor=#A8DADC;strokeColor=#457B9D;fontColor=#1D3557;rounded=1;" parent="1" vertex="1">
                    <mxGeometry x="760" y="1140" width="80" height="40" as="geometry"/>
                </mxCell>
                <mxCell id="K5DylDMR5U2sn6sFDK5y-436" value="&lt;font data-font-src=&quot;https://fonts.googleapis.com/css?family=Abel&quot; face=&quot;Abel&quot; style=&quot;font-size: 16px;&quot;&gt;Statement&lt;/font&gt;" style="rounded=1;whiteSpace=wrap;html=1;arcSize=0;fillColor=#A8DADC;strokeColor=#457B9D;fontColor=#1D3557;align=center;" parent="1" vertex="1">
                    <mxGeometry x="760" y="1080" width="80" height="40" as="geometry"/>
                </mxCell>
                <mxCell id="K5DylDMR5U2sn6sFDK5y-437" style="edgeStyle=elbowEdgeStyle;rounded=1;orthogonalLoop=1;jettySize=auto;elbow=vertical;html=1;entryX=0;entryY=0.5;entryDx=0;entryDy=0;fontFamily=Courier New;fontSize=16;fontColor=#1D3557;strokeColor=#457B9D;fillColor=#A8DADC;labelBackgroundColor=#F1FAEE;exitX=1;exitY=0.5;exitDx=0;exitDy=0;" parent="1" source="K5DylDMR5U2sn6sFDK5y-431" target="K5DylDMR5U2sn6sFDK5y-435" edge="1">
                    <mxGeometry relative="1" as="geometry">
                        <mxPoint x="699.9999999999936" y="1160.0099999999998" as="sourcePoint"/>
                        <mxPoint x="740" y="1159.6299999999999" as="targetPoint"/>
                    </mxGeometry>
                </mxCell>
                <mxCell id="K5DylDMR5U2sn6sFDK5y-438" style="edgeStyle=elbowEdgeStyle;rounded=1;orthogonalLoop=1;jettySize=auto;elbow=vertical;html=1;entryX=0.5;entryY=1;entryDx=0;entryDy=0;fontFamily=Courier New;fontSize=16;fontColor=#1D3557;strokeColor=#457B9D;fillColor=#A8DADC;labelBackgroundColor=#F1FAEE;exitX=0.5;exitY=0;exitDx=0;exitDy=0;" parent="1" source="K5DylDMR5U2sn6sFDK5y-435" target="K5DylDMR5U2sn6sFDK5y-436" edge="1">
                    <mxGeometry relative="1" as="geometry">
                        <mxPoint x="499.99999999999363" y="1179.9999999999998" as="sourcePoint"/>
                        <mxPoint x="540" y="1179.62" as="targetPoint"/>
                    </mxGeometry>
                </mxCell>
                <mxCell id="K5DylDMR5U2sn6sFDK5y-439" style="edgeStyle=elbowEdgeStyle;rounded=1;orthogonalLoop=1;jettySize=auto;elbow=vertical;html=1;fontFamily=Courier New;fontSize=16;fontColor=#1D3557;strokeColor=#457B9D;fillColor=#A8DADC;labelBackgroundColor=#F1FAEE;exitX=0.5;exitY=0;exitDx=0;exitDy=0;" parent="1" source="K5DylDMR5U2sn6sFDK5y-436" edge="1">
                    <mxGeometry relative="1" as="geometry">
                        <mxPoint x="810" y="1150" as="sourcePoint"/>
                        <mxPoint x="800" y="500" as="targetPoint"/>
                    </mxGeometry>
                </mxCell>
                <mxCell id="K5DylDMR5U2sn6sFDK5y-443" value="&lt;b&gt;RelExpression&lt;/b&gt;" style="text;html=1;strokeColor=none;fillColor=none;align=left;verticalAlign=middle;whiteSpace=wrap;rounded=0;fontFamily=Abel;fontSize=16;fontColor=#1D3557;" parent="1" vertex="1">
                    <mxGeometry y="1200" width="120" height="30" as="geometry"/>
                </mxCell>
                <mxCell id="K5DylDMR5U2sn6sFDK5y-444" style="edgeStyle=elbowEdgeStyle;rounded=1;sketch=0;orthogonalLoop=1;jettySize=auto;elbow=vertical;html=1;entryX=0;entryY=0.5;entryDx=0;entryDy=0;fontColor=#1D3557;strokeColor=#457B9D;fillColor=#A8DADC;labelBackgroundColor=#F1FAEE;" parent="1" target="K5DylDMR5U2sn6sFDK5y-446" edge="1">
                    <mxGeometry relative="1" as="geometry">
                        <mxPoint x="10" y="1260" as="sourcePoint"/>
                    </mxGeometry>
                </mxCell>
                <mxCell id="K5DylDMR5U2sn6sFDK5y-445" style="edgeStyle=elbowEdgeStyle;rounded=1;sketch=0;orthogonalLoop=1;jettySize=auto;elbow=vertical;html=1;exitX=1;exitY=0.5;exitDx=0;exitDy=0;fontColor=#1D3557;strokeColor=#457B9D;fillColor=#A8DADC;labelBackgroundColor=#F1FAEE;" parent="1" source="K5DylDMR5U2sn6sFDK5y-446" edge="1">
                    <mxGeometry relative="1" as="geometry">
                        <mxPoint x="160" y="1260" as="targetPoint"/>
                    </mxGeometry>
                </mxCell>
                <mxCell id="K5DylDMR5U2sn6sFDK5y-446" value="&lt;font data-font-src=&quot;https://fonts.googleapis.com/css?family=Abel&quot; face=&quot;Abel&quot; style=&quot;font-size: 16px;&quot;&gt;Expression&lt;/font&gt;" style="rounded=1;whiteSpace=wrap;html=1;arcSize=0;fillColor=#A8DADC;strokeColor=#457B9D;fontColor=#1D3557;align=center;" parent="1" vertex="1">
                    <mxGeometry x="40" y="1240" width="80" height="40" as="geometry"/>
                </mxCell>
                <mxCell id="K5DylDMR5U2sn6sFDK5y-447" value="&lt;span style=&quot;font-size: 16px;&quot;&gt;&lt;font data-font-src=&quot;https://fonts.googleapis.com/css?family=Abel&quot; face=&quot;Abel&quot;&gt;&amp;lt;&lt;/font&gt;&lt;/span&gt;" style="ellipse;whiteSpace=wrap;html=1;fillColor=#A8DADC;strokeColor=#457B9D;fontColor=#1D3557;rounded=1;" parent="1" vertex="1">
                    <mxGeometry x="60" y="1300" width="40" height="40" as="geometry"/>
                </mxCell>
                <mxCell id="K5DylDMR5U2sn6sFDK5y-448" value="&lt;span style=&quot;font-size: 16px;&quot;&gt;&lt;font data-font-src=&quot;https://fonts.googleapis.com/css?family=Abel&quot; face=&quot;Abel&quot;&gt;&amp;gt;&lt;/font&gt;&lt;/span&gt;" style="ellipse;whiteSpace=wrap;html=1;fillColor=#A8DADC;strokeColor=#457B9D;fontColor=#1D3557;rounded=1;" parent="1" vertex="1">
                    <mxGeometry x="60" y="1360" width="40" height="40" as="geometry"/>
                </mxCell>
                <mxCell id="K5DylDMR5U2sn6sFDK5y-449" value="" style="endArrow=classic;html=1;rounded=1;fontFamily=Verdana;fontSize=15;entryX=1;entryY=0.5;entryDx=0;entryDy=0;strokeColor=#457B9D;fontColor=#1D3557;labelBackgroundColor=#F1FAEE;" parent="1" target="K5DylDMR5U2sn6sFDK5y-447" edge="1">
                    <mxGeometry width="50" height="50" relative="1" as="geometry">
                        <mxPoint x="140" y="1260" as="sourcePoint"/>
                        <mxPoint x="160" y="1320" as="targetPoint"/>
                        <Array as="points">
                            <mxPoint x="140" y="1300"/>
                            <mxPoint x="120" y="1320"/>
                        </Array>
                    </mxGeometry>
                </mxCell>
                <mxCell id="K5DylDMR5U2sn6sFDK5y-450" value="" style="endArrow=classic;html=1;rounded=1;fontFamily=Verdana;fontSize=15;entryX=1;entryY=0.5;entryDx=0;entryDy=0;strokeColor=#457B9D;fontColor=#1D3557;labelBackgroundColor=#F1FAEE;" parent="1" target="K5DylDMR5U2sn6sFDK5y-448" edge="1">
                    <mxGeometry width="50" height="50" relative="1" as="geometry">
                        <mxPoint x="140" y="1260" as="sourcePoint"/>
                        <mxPoint x="120" y="1380" as="targetPoint"/>
                        <Array as="points">
                            <mxPoint x="140" y="1360"/>
                            <mxPoint x="120" y="1380"/>
                        </Array>
                    </mxGeometry>
                </mxCell>
                <mxCell id="K5DylDMR5U2sn6sFDK5y-451" value="" style="endArrow=classic;html=1;rounded=1;fontFamily=Verdana;fontSize=15;strokeColor=#457B9D;fontColor=#1D3557;labelBackgroundColor=#F1FAEE;exitX=0;exitY=0.5;exitDx=0;exitDy=0;" parent="1" source="K5DylDMR5U2sn6sFDK5y-447" edge="1">
                    <mxGeometry width="50" height="50" relative="1" as="geometry">
                        <mxPoint x="70" y="1320" as="sourcePoint"/>
                        <mxPoint x="20" y="1260" as="targetPoint"/>
                        <Array as="points">
                            <mxPoint x="40" y="1320"/>
                            <mxPoint x="20" y="1300"/>
                        </Array>
                    </mxGeometry>
                </mxCell>
                <mxCell id="K5DylDMR5U2sn6sFDK5y-452" value="" style="endArrow=classic;html=1;rounded=1;fontFamily=Verdana;fontSize=15;strokeColor=#457B9D;fontColor=#1D3557;labelBackgroundColor=#F1FAEE;exitX=0;exitY=0.5;exitDx=0;exitDy=0;" parent="1" source="K5DylDMR5U2sn6sFDK5y-448" edge="1">
                    <mxGeometry width="50" height="50" relative="1" as="geometry">
                        <mxPoint x="80" y="1380" as="sourcePoint"/>
                        <mxPoint x="20" y="1260" as="targetPoint"/>
                        <Array as="points">
                            <mxPoint x="40" y="1380"/>
                            <mxPoint x="20" y="1360"/>
                        </Array>
                    </mxGeometry>
                </mxCell>
                <mxCell id="K5DylDMR5U2sn6sFDK5y-453" value="&lt;span style=&quot;font-size: 16px;&quot;&gt;&lt;font data-font-src=&quot;https://fonts.googleapis.com/css?family=Abel&quot; face=&quot;Abel&quot;&gt;==&lt;/font&gt;&lt;/span&gt;" style="ellipse;whiteSpace=wrap;html=1;fillColor=#A8DADC;strokeColor=#457B9D;fontColor=#1D3557;rounded=1;" parent="1" vertex="1">
                    <mxGeometry x="60" y="1420" width="40" height="40" as="geometry"/>
                </mxCell>
                <mxCell id="K5DylDMR5U2sn6sFDK5y-454" value="" style="endArrow=classic;html=1;rounded=1;fontFamily=Verdana;fontSize=15;strokeColor=#457B9D;fontColor=#1D3557;labelBackgroundColor=#F1FAEE;entryX=1;entryY=0.5;entryDx=0;entryDy=0;" parent="1" target="K5DylDMR5U2sn6sFDK5y-453" edge="1">
                    <mxGeometry width="50" height="50" relative="1" as="geometry">
                        <mxPoint x="140" y="1260" as="sourcePoint"/>
                        <mxPoint x="110" y="1440" as="targetPoint"/>
                        <Array as="points">
                            <mxPoint x="140" y="1420"/>
                            <mxPoint x="120" y="1440"/>
                        </Array>
                    </mxGeometry>
                </mxCell>
                <mxCell id="K5DylDMR5U2sn6sFDK5y-455" value="" style="endArrow=classic;html=1;rounded=1;fontFamily=Verdana;fontSize=15;strokeColor=#457B9D;fontColor=#1D3557;labelBackgroundColor=#F1FAEE;exitX=0;exitY=0.5;exitDx=0;exitDy=0;" parent="1" source="K5DylDMR5U2sn6sFDK5y-453" edge="1">
                    <mxGeometry width="50" height="50" relative="1" as="geometry">
                        <mxPoint x="50" y="1440" as="sourcePoint"/>
                        <mxPoint x="20" y="1260" as="targetPoint"/>
                        <Array as="points">
                            <mxPoint x="40" y="1440"/>
                            <mxPoint x="20" y="1420"/>
                        </Array>
                    </mxGeometry>
                </mxCell>
                <mxCell id="K5DylDMR5U2sn6sFDK5y-456" value="&lt;span style=&quot;font-size: 16px;&quot;&gt;&lt;font data-font-src=&quot;https://fonts.googleapis.com/css?family=Abel&quot; face=&quot;Abel&quot;&gt;||&lt;/font&gt;&lt;/span&gt;" style="ellipse;whiteSpace=wrap;html=1;fillColor=#A8DADC;strokeColor=#457B9D;fontColor=#1D3557;rounded=1;" parent="1" vertex="1">
                    <mxGeometry x="300" y="1420" width="40" height="40" as="geometry"/>
                </mxCell>
                <mxCell id="K5DylDMR5U2sn6sFDK5y-457" value="&lt;span style=&quot;font-size: 16px;&quot;&gt;&lt;font data-font-src=&quot;https://fonts.googleapis.com/css?family=Abel&quot; face=&quot;Abel&quot;&gt;.&lt;/font&gt;&lt;/span&gt;" style="ellipse;whiteSpace=wrap;html=1;fillColor=#A8DADC;strokeColor=#457B9D;fontColor=#1D3557;rounded=1;" parent="1" vertex="1">
                    <mxGeometry x="300" y="1480" width="40" height="40" as="geometry"/>
                </mxCell>
                <mxCell id="K5DylDMR5U2sn6sFDK5y-458" value="" style="endArrow=classic;html=1;rounded=1;fontFamily=Verdana;fontSize=15;strokeColor=#457B9D;fontColor=#1D3557;labelBackgroundColor=#F1FAEE;entryX=1;entryY=0.5;entryDx=0;entryDy=0;" parent="1" target="K5DylDMR5U2sn6sFDK5y-456" edge="1">
                    <mxGeometry width="50" height="50" relative="1" as="geometry">
                        <mxPoint x="380" y="1260" as="sourcePoint"/>
                        <mxPoint x="350" y="1440" as="targetPoint"/>
                        <Array as="points">
                            <mxPoint x="380" y="1420"/>
                            <mxPoint x="360" y="1440"/>
                        </Array>
                    </mxGeometry>
                </mxCell>
                <mxCell id="K5DylDMR5U2sn6sFDK5y-459" value="" style="endArrow=classic;html=1;rounded=1;fontFamily=Verdana;fontSize=15;strokeColor=#457B9D;fontColor=#1D3557;labelBackgroundColor=#F1FAEE;entryX=1;entryY=0.5;entryDx=0;entryDy=0;" parent="1" target="K5DylDMR5U2sn6sFDK5y-457" edge="1">
                    <mxGeometry width="50" height="50" relative="1" as="geometry">
                        <mxPoint x="380" y="1260" as="sourcePoint"/>
                        <mxPoint x="350" y="1500" as="targetPoint"/>
                        <Array as="points">
                            <mxPoint x="380" y="1480"/>
                            <mxPoint x="360" y="1500"/>
                        </Array>
                    </mxGeometry>
                </mxCell>
                <mxCell id="K5DylDMR5U2sn6sFDK5y-460" value="" style="endArrow=classic;html=1;rounded=1;fontFamily=Verdana;fontSize=15;strokeColor=#457B9D;fontColor=#1D3557;labelBackgroundColor=#F1FAEE;exitX=0;exitY=0.5;exitDx=0;exitDy=0;" parent="1" source="K5DylDMR5U2sn6sFDK5y-456" edge="1">
                    <mxGeometry width="50" height="50" relative="1" as="geometry">
                        <mxPoint x="290" y="1440" as="sourcePoint"/>
                        <mxPoint x="260" y="1260" as="targetPoint"/>
                        <Array as="points">
                            <mxPoint x="280" y="1440"/>
                            <mxPoint x="260" y="1420"/>
                        </Array>
                    </mxGeometry>
                </mxCell>
                <mxCell id="K5DylDMR5U2sn6sFDK5y-461" value="" style="endArrow=classic;html=1;rounded=1;fontFamily=Verdana;fontSize=15;strokeColor=#457B9D;fontColor=#1D3557;labelBackgroundColor=#F1FAEE;exitX=0;exitY=0.5;exitDx=0;exitDy=0;" parent="1" source="K5DylDMR5U2sn6sFDK5y-457" edge="1">
                    <mxGeometry width="50" height="50" relative="1" as="geometry">
                        <mxPoint x="290" y="1500" as="sourcePoint"/>
                        <mxPoint x="260" y="1260" as="targetPoint"/>
                        <Array as="points">
                            <mxPoint x="280" y="1500"/>
                            <mxPoint x="260" y="1480"/>
                        </Array>
                    </mxGeometry>
                </mxCell>
                <mxCell id="K5DylDMR5U2sn6sFDK5y-462" value="" style="endArrow=classic;html=1;rounded=1;fontFamily=Verdana;fontSize=15;strokeColor=#457B9D;fontColor=#1D3557;labelBackgroundColor=#F1FAEE;entryX=1;entryY=0.5;entryDx=0;entryDy=0;" parent="1" target="K5DylDMR5U2sn6sFDK5y-463" edge="1">
                    <mxGeometry width="50" height="50" relative="1" as="geometry">
                        <mxPoint x="380" y="1260" as="sourcePoint"/>
                        <mxPoint x="350" y="1440" as="targetPoint"/>
                        <Array as="points">
                            <mxPoint x="380" y="1420"/>
                            <mxPoint x="360" y="1440"/>
                        </Array>
                    </mxGeometry>
                </mxCell>
                <mxCell id="K5DylDMR5U2sn6sFDK5y-463" value="&lt;span style=&quot;font-size: 16px;&quot;&gt;&lt;font data-font-src=&quot;https://fonts.googleapis.com/css?family=Abel&quot; face=&quot;Abel&quot;&gt;||&lt;/font&gt;&lt;/span&gt;" style="ellipse;whiteSpace=wrap;html=1;fillColor=#A8DADC;strokeColor=#457B9D;fontColor=#1D3557;rounded=1;" parent="1" vertex="1">
                    <mxGeometry x="300" y="1420" width="40" height="40" as="geometry"/>
                </mxCell>
                <mxCell id="K5DylDMR5U2sn6sFDK5y-464" value="" style="endArrow=classic;html=1;rounded=1;fontFamily=Verdana;fontSize=15;strokeColor=#457B9D;fontColor=#1D3557;labelBackgroundColor=#F1FAEE;exitX=0;exitY=0.5;exitDx=0;exitDy=0;" parent="1" edge="1">
                    <mxGeometry width="50" height="50" relative="1" as="geometry">
                        <mxPoint x="540" y="1440" as="sourcePoint"/>
                        <mxPoint x="500" y="1260" as="targetPoint"/>
                        <Array as="points">
                            <mxPoint x="520" y="1440"/>
                            <mxPoint x="500" y="1420"/>
                        </Array>
                    </mxGeometry>
                </mxCell>
                <mxCell id="K5DylDMR5U2sn6sFDK5y-465" value="" style="endArrow=classic;html=1;rounded=1;fontFamily=Verdana;fontSize=15;strokeColor=#457B9D;fontColor=#1D3557;labelBackgroundColor=#F1FAEE;entryX=1;entryY=0.5;entryDx=0;entryDy=0;" parent="1" target="K5DylDMR5U2sn6sFDK5y-466" edge="1">
                    <mxGeometry width="50" height="50" relative="1" as="geometry">
                        <mxPoint x="620" y="1260" as="sourcePoint"/>
                        <mxPoint x="590" y="1440" as="targetPoint"/>
                        <Array as="points">
                            <mxPoint x="620" y="1420"/>
                            <mxPoint x="600" y="1440"/>
                        </Array>
                    </mxGeometry>
                </mxCell>
                <mxCell id="K5DylDMR5U2sn6sFDK5y-466" value="&lt;span style=&quot;font-size: 16px;&quot;&gt;&lt;font data-font-src=&quot;https://fonts.googleapis.com/css?family=Abel&quot; face=&quot;Abel&quot;&gt;&amp;amp;&amp;amp;&lt;/font&gt;&lt;/span&gt;" style="ellipse;whiteSpace=wrap;html=1;fillColor=#A8DADC;strokeColor=#457B9D;fontColor=#1D3557;rounded=1;" parent="1" vertex="1">
                    <mxGeometry x="540" y="1420" width="40" height="40" as="geometry"/>
                </mxCell>
                <mxCell id="K5DylDMR5U2sn6sFDK5y-467" value="&lt;font face=&quot;Abel&quot;&gt;&lt;span style=&quot;font-size: 16px;&quot;&gt;Identifier&lt;/span&gt;&lt;/font&gt;" style="ellipse;whiteSpace=wrap;html=1;fillColor=#A8DADC;strokeColor=#457B9D;fontColor=#1D3557;rounded=1;" parent="1" vertex="1">
                    <mxGeometry x="800" y="1360" width="80" height="40" as="geometry"/>
                </mxCell>
                <mxCell id="K5DylDMR5U2sn6sFDK5y-468" value="" style="endArrow=classic;html=1;rounded=1;fontFamily=Verdana;fontSize=15;strokeColor=#457B9D;fontColor=#1D3557;labelBackgroundColor=#F1FAEE;entryX=0;entryY=0.5;entryDx=0;entryDy=0;" parent="1" target="K5DylDMR5U2sn6sFDK5y-467" edge="1">
                    <mxGeometry width="50" height="50" relative="1" as="geometry">
                        <mxPoint x="780" y="1260" as="sourcePoint"/>
                        <mxPoint x="790" y="1380" as="targetPoint"/>
                        <Array as="points">
                            <mxPoint x="780" y="1360"/>
                        </Array>
                    </mxGeometry>
                </mxCell>
                <mxCell id="K5DylDMR5U2sn6sFDK5y-471" value="&lt;span style=&quot;font-size: 16px;&quot;&gt;(&lt;/span&gt;" style="ellipse;whiteSpace=wrap;html=1;fillColor=#A8DADC;strokeColor=#457B9D;fontColor=#1D3557;rounded=1;fontFamily=Abel;" parent="1" vertex="1">
                    <mxGeometry x="920" y="1420" width="40" height="40" as="geometry"/>
                </mxCell>
                <mxCell id="K5DylDMR5U2sn6sFDK5y-472" value="" style="endArrow=classic;html=1;rounded=1;fontFamily=Verdana;fontSize=15;strokeColor=#457B9D;fontColor=#1D3557;labelBackgroundColor=#F1FAEE;entryX=0;entryY=0.5;entryDx=0;entryDy=0;" parent="1" target="K5DylDMR5U2sn6sFDK5y-471" edge="1">
                    <mxGeometry width="50" height="50" relative="1" as="geometry">
                        <mxPoint x="900" y="1380" as="sourcePoint"/>
                        <mxPoint x="910" y="1440" as="targetPoint"/>
                        <Array as="points">
                            <mxPoint x="900" y="1420"/>
                        </Array>
                    </mxGeometry>
                </mxCell>
                <mxCell id="K5DylDMR5U2sn6sFDK5y-473" value="&lt;font data-font-src=&quot;https://fonts.googleapis.com/css?family=Abel&quot; face=&quot;Abel&quot; style=&quot;font-size: 16px;&quot;&gt;RelExpression&lt;/font&gt;" style="rounded=1;whiteSpace=wrap;html=1;arcSize=0;fillColor=#A8DADC;strokeColor=#457B9D;fontColor=#1D3557;align=center;" parent="1" vertex="1">
                    <mxGeometry x="1040" y="1480" width="120" height="40" as="geometry"/>
                </mxCell>
                <mxCell id="K5DylDMR5U2sn6sFDK5y-474" value="&lt;span style=&quot;font-size: 16px;&quot;&gt;)&lt;/span&gt;" style="ellipse;whiteSpace=wrap;html=1;fillColor=#A8DADC;strokeColor=#457B9D;fontColor=#1D3557;rounded=1;fontFamily=Abel;" parent="1" vertex="1">
                    <mxGeometry x="1241" y="1420" width="40" height="40" as="geometry"/>
                </mxCell>
                <mxCell id="K5DylDMR5U2sn6sFDK5y-475" style="edgeStyle=elbowEdgeStyle;rounded=1;sketch=0;orthogonalLoop=1;jettySize=auto;elbow=vertical;html=1;exitX=1;exitY=0.5;exitDx=0;exitDy=0;entryX=0;entryY=0.5;entryDx=0;entryDy=0;fontColor=#1D3557;strokeColor=#457B9D;fillColor=#A8DADC;labelBackgroundColor=#F1FAEE;" parent="1" source="K5DylDMR5U2sn6sFDK5y-471" target="K5DylDMR5U2sn6sFDK5y-474" edge="1">
                    <mxGeometry relative="1" as="geometry">
                        <mxPoint x="1040" y="1439.63" as="sourcePoint"/>
                        <mxPoint x="1080" y="1439.63" as="targetPoint"/>
                    </mxGeometry>
                </mxCell>
                <mxCell id="K5DylDMR5U2sn6sFDK5y-477" value="" style="endArrow=classic;html=1;rounded=1;fontFamily=Verdana;fontSize=15;strokeColor=#457B9D;fontColor=#1D3557;labelBackgroundColor=#F1FAEE;entryX=0;entryY=0.5;entryDx=0;entryDy=0;" parent="1" target="K5DylDMR5U2sn6sFDK5y-473" edge="1">
                    <mxGeometry width="50" height="50" relative="1" as="geometry">
                        <mxPoint x="980" y="1439.9999999999998" as="sourcePoint"/>
                        <mxPoint x="1030" y="1500" as="targetPoint"/>
                        <Array as="points">
                            <mxPoint x="980" y="1480"/>
                            <mxPoint x="1000" y="1500"/>
                        </Array>
                    </mxGeometry>
                </mxCell>
                <mxCell id="K5DylDMR5U2sn6sFDK5y-478" value="" style="endArrow=classic;html=1;rounded=1;fontFamily=Verdana;fontSize=15;strokeColor=#457B9D;fontColor=#1D3557;labelBackgroundColor=#F1FAEE;exitX=1;exitY=0.5;exitDx=0;exitDy=0;" parent="1" source="K5DylDMR5U2sn6sFDK5y-473" edge="1">
                    <mxGeometry width="50" height="50" relative="1" as="geometry">
                        <mxPoint x="1180" y="1500" as="sourcePoint"/>
                        <mxPoint x="1220" y="1440" as="targetPoint"/>
                        <Array as="points">
                            <mxPoint x="1200" y="1500"/>
                            <mxPoint x="1220" y="1480"/>
                        </Array>
                    </mxGeometry>
                </mxCell>
                <mxCell id="K5DylDMR5U2sn6sFDK5y-479" value="" style="endArrow=classic;html=1;rounded=1;fontFamily=Verdana;fontSize=15;strokeColor=#457B9D;fontColor=#1D3557;labelBackgroundColor=#F1FAEE;exitX=1;exitY=0.5;exitDx=0;exitDy=0;" parent="1" source="K5DylDMR5U2sn6sFDK5y-467" edge="1">
                    <mxGeometry width="50" height="50" relative="1" as="geometry">
                        <mxPoint x="1200" y="1380" as="sourcePoint"/>
                        <mxPoint x="1320" y="1260" as="targetPoint"/>
                        <Array as="points">
                            <mxPoint x="1300" y="1380"/>
                            <mxPoint x="1320" y="1360"/>
                        </Array>
                    </mxGeometry>
                </mxCell>
                <mxCell id="K5DylDMR5U2sn6sFDK5y-480" value="" style="endArrow=classic;html=1;rounded=1;fontFamily=Verdana;fontSize=15;strokeColor=#457B9D;fontColor=#1D3557;labelBackgroundColor=#F1FAEE;exitX=1;exitY=0.5;exitDx=0;exitDy=0;" parent="1" source="K5DylDMR5U2sn6sFDK5y-474" edge="1">
                    <mxGeometry width="50" height="50" relative="1" as="geometry">
                        <mxPoint x="880" y="1440" as="sourcePoint"/>
                        <mxPoint x="1320" y="1260" as="targetPoint"/>
                        <Array as="points">
                            <mxPoint x="1300" y="1440"/>
                            <mxPoint x="1320" y="1420"/>
                        </Array>
                    </mxGeometry>
                </mxCell>
                <mxCell id="K5DylDMR5U2sn6sFDK5y-481" value="&lt;span style=&quot;font-size: 16px;&quot;&gt;,&lt;/span&gt;" style="ellipse;whiteSpace=wrap;html=1;fillColor=#A8DADC;strokeColor=#457B9D;fontColor=#1D3557;rounded=1;fontFamily=Abel;" parent="1" vertex="1">
                    <mxGeometry x="1080" y="1540" width="40" height="40" as="geometry"/>
                </mxCell>
                <mxCell id="K5DylDMR5U2sn6sFDK5y-482" value="" style="endArrow=classic;html=1;rounded=1;fontFamily=Verdana;fontSize=15;entryX=1;entryY=0.5;entryDx=0;entryDy=0;strokeColor=#457B9D;fontColor=#1D3557;labelBackgroundColor=#F1FAEE;" parent="1" target="K5DylDMR5U2sn6sFDK5y-481" edge="1">
                    <mxGeometry width="50" height="50" relative="1" as="geometry">
                        <mxPoint x="1180" y="1500" as="sourcePoint"/>
                        <mxPoint x="1140" y="1560" as="targetPoint"/>
                        <Array as="points">
                            <mxPoint x="1180" y="1540"/>
                            <mxPoint x="1160" y="1560"/>
                        </Array>
                    </mxGeometry>
                </mxCell>
                <mxCell id="K5DylDMR5U2sn6sFDK5y-483" value="" style="endArrow=classic;html=1;rounded=1;fontFamily=Verdana;fontSize=15;strokeColor=#457B9D;fontColor=#1D3557;labelBackgroundColor=#F1FAEE;exitX=0;exitY=0.5;exitDx=0;exitDy=0;" parent="1" source="K5DylDMR5U2sn6sFDK5y-481" edge="1">
                    <mxGeometry width="50" height="50" relative="1" as="geometry">
                        <mxPoint x="1060" y="1560" as="sourcePoint"/>
                        <mxPoint x="1020" y="1500" as="targetPoint"/>
                        <Array as="points">
                            <mxPoint x="1040" y="1560"/>
                            <mxPoint x="1020" y="1540"/>
                        </Array>
                    </mxGeometry>
                </mxCell>
                <mxCell id="K5DylDMR5U2sn6sFDK5y-484" value="&lt;span style=&quot;font-size: 16px;&quot;&gt;&lt;font data-font-src=&quot;https://fonts.googleapis.com/css?family=Abel&quot; face=&quot;Abel&quot;&gt;!&lt;/font&gt;&lt;/span&gt;" style="ellipse;whiteSpace=wrap;html=1;fillColor=#A8DADC;strokeColor=#457B9D;fontColor=#1D3557;rounded=1;" parent="1" vertex="1">
                    <mxGeometry x="800" y="1720" width="40" height="40" as="geometry"/>
                </mxCell>
                <mxCell id="K5DylDMR5U2sn6sFDK5y-485" value="" style="endArrow=classic;html=1;rounded=1;fontFamily=Verdana;fontSize=15;strokeColor=#457B9D;fontColor=#1D3557;labelBackgroundColor=#F1FAEE;exitX=1;exitY=0.5;exitDx=0;exitDy=0;" parent="1" source="K5DylDMR5U2sn6sFDK5y-484" edge="1">
                    <mxGeometry width="50" height="50" relative="1" as="geometry">
                        <mxPoint x="850" y="1760" as="sourcePoint"/>
                        <mxPoint x="860" y="1620" as="targetPoint"/>
                        <Array as="points">
                            <mxPoint x="850" y="1740"/>
                            <mxPoint x="860" y="1730"/>
                        </Array>
                    </mxGeometry>
                </mxCell>
                <mxCell id="K5DylDMR5U2sn6sFDK5y-486" value="" style="endArrow=classic;html=1;rounded=1;fontFamily=Verdana;fontSize=15;strokeColor=#457B9D;fontColor=#1D3557;labelBackgroundColor=#F1FAEE;entryX=0;entryY=0.5;entryDx=0;entryDy=0;" parent="1" target="K5DylDMR5U2sn6sFDK5y-484" edge="1">
                    <mxGeometry width="50" height="50" relative="1" as="geometry">
                        <mxPoint x="780" y="1260" as="sourcePoint"/>
                        <mxPoint x="790" y="1750" as="targetPoint"/>
                        <Array as="points">
                            <mxPoint x="780" y="1720"/>
                        </Array>
                    </mxGeometry>
                </mxCell>
                <mxCell id="K5DylDMR5U2sn6sFDK5y-487" value="" style="endArrow=classic;html=1;rounded=1;fontFamily=Verdana;fontSize=15;strokeColor=#457B9D;fontColor=#1D3557;labelBackgroundColor=#F1FAEE;entryX=0;entryY=0.5;entryDx=0;entryDy=0;" parent="1" target="K5DylDMR5U2sn6sFDK5y-489" edge="1">
                    <mxGeometry width="50" height="50" relative="1" as="geometry">
                        <mxPoint x="780" y="1260" as="sourcePoint"/>
                        <mxPoint x="790" y="1800" as="targetPoint"/>
                        <Array as="points">
                            <mxPoint x="780" y="1780"/>
                        </Array>
                    </mxGeometry>
                </mxCell>
                <mxCell id="K5DylDMR5U2sn6sFDK5y-488" value="" style="endArrow=classic;html=1;rounded=1;fontFamily=Verdana;fontSize=15;strokeColor=#457B9D;fontColor=#1D3557;labelBackgroundColor=#F1FAEE;entryX=0;entryY=0.5;entryDx=0;entryDy=0;" parent="1" target="K5DylDMR5U2sn6sFDK5y-494" edge="1">
                    <mxGeometry width="50" height="50" relative="1" as="geometry">
                        <mxPoint x="780" y="1260" as="sourcePoint"/>
                        <mxPoint x="790" y="1860" as="targetPoint"/>
                        <Array as="points">
                            <mxPoint x="780" y="1840"/>
                        </Array>
                    </mxGeometry>
                </mxCell>
                <mxCell id="K5DylDMR5U2sn6sFDK5y-489" value="&lt;span style=&quot;font-size: 16px;&quot;&gt;&lt;font data-font-src=&quot;https://fonts.googleapis.com/css?family=Abel&quot; face=&quot;Abel&quot;&gt;(&lt;/font&gt;&lt;/span&gt;" style="ellipse;whiteSpace=wrap;html=1;fillColor=#A8DADC;strokeColor=#457B9D;fontColor=#1D3557;rounded=1;" parent="1" vertex="1">
                    <mxGeometry x="800" y="1780" width="40" height="40" as="geometry"/>
                </mxCell>
                <mxCell id="K5DylDMR5U2sn6sFDK5y-494" value="&lt;font face=&quot;Abel&quot;&gt;&lt;span style=&quot;font-size: 16px;&quot;&gt;entrada&lt;/span&gt;&lt;/font&gt;" style="ellipse;whiteSpace=wrap;html=1;fillColor=#A8DADC;strokeColor=#457B9D;fontColor=#1D3557;rounded=1;" parent="1" vertex="1">
                    <mxGeometry x="800" y="1840" width="80" height="40" as="geometry"/>
                </mxCell>
                <mxCell id="K5DylDMR5U2sn6sFDK5y-495" value="&lt;span style=&quot;font-size: 16px;&quot;&gt;&lt;font data-font-src=&quot;https://fonts.googleapis.com/css?family=Abel&quot; face=&quot;Abel&quot;&gt;(&lt;/font&gt;&lt;/span&gt;" style="ellipse;whiteSpace=wrap;html=1;fillColor=#A8DADC;strokeColor=#457B9D;fontColor=#1D3557;rounded=1;" parent="1" vertex="1">
                    <mxGeometry x="920" y="1840" width="40" height="40" as="geometry"/>
                </mxCell>
                <mxCell id="K5DylDMR5U2sn6sFDK5y-496" value="&lt;span style=&quot;font-size: 16px;&quot;&gt;&lt;font data-font-src=&quot;https://fonts.googleapis.com/css?family=Abel&quot; face=&quot;Abel&quot;&gt;)&lt;/font&gt;&lt;/span&gt;" style="ellipse;whiteSpace=wrap;html=1;fillColor=#A8DADC;strokeColor=#457B9D;fontColor=#1D3557;rounded=1;" parent="1" vertex="1">
                    <mxGeometry x="1000" y="1840" width="40" height="40" as="geometry"/>
                </mxCell>
                <mxCell id="K5DylDMR5U2sn6sFDK5y-497" style="edgeStyle=elbowEdgeStyle;rounded=1;sketch=0;orthogonalLoop=1;jettySize=auto;elbow=vertical;html=1;fontColor=#1D3557;strokeColor=#457B9D;fillColor=#A8DADC;labelBackgroundColor=#F1FAEE;exitX=1;exitY=0.5;exitDx=0;exitDy=0;entryX=0;entryY=0.5;entryDx=0;entryDy=0;" parent="1" source="K5DylDMR5U2sn6sFDK5y-494" target="K5DylDMR5U2sn6sFDK5y-495" edge="1">
                    <mxGeometry relative="1" as="geometry">
                        <mxPoint x="890" y="1860" as="sourcePoint"/>
                        <mxPoint x="910" y="1860" as="targetPoint"/>
                    </mxGeometry>
                </mxCell>
                <mxCell id="K5DylDMR5U2sn6sFDK5y-498" style="edgeStyle=elbowEdgeStyle;rounded=1;sketch=0;orthogonalLoop=1;jettySize=auto;elbow=vertical;html=1;fontColor=#1D3557;strokeColor=#457B9D;fillColor=#A8DADC;labelBackgroundColor=#F1FAEE;exitX=1;exitY=0.5;exitDx=0;exitDy=0;entryX=0;entryY=0.5;entryDx=0;entryDy=0;" parent="1" source="K5DylDMR5U2sn6sFDK5y-495" target="K5DylDMR5U2sn6sFDK5y-496" edge="1">
                    <mxGeometry relative="1" as="geometry">
                        <mxPoint x="970" y="1860" as="sourcePoint"/>
                        <mxPoint x="990" y="1860" as="targetPoint"/>
                    </mxGeometry>
                </mxCell>
                <mxCell id="K5DylDMR5U2sn6sFDK5y-499" value="" style="endArrow=classic;html=1;rounded=1;fontFamily=Verdana;fontSize=15;strokeColor=#457B9D;fontColor=#1D3557;labelBackgroundColor=#F1FAEE;exitX=1;exitY=0.5;exitDx=0;exitDy=0;" parent="1" source="O7eM3cRz2Qc7sRw92bNk-211" edge="1">
                    <mxGeometry width="50" height="50" relative="1" as="geometry">
                        <mxPoint x="1100" y="1800" as="sourcePoint"/>
                        <mxPoint x="1320" y="1260" as="targetPoint"/>
                        <Array as="points">
                            <mxPoint x="1300" y="1800"/>
                            <mxPoint x="1320" y="1780"/>
                        </Array>
                    </mxGeometry>
                </mxCell>
                <mxCell id="K5DylDMR5U2sn6sFDK5y-500" value="" style="endArrow=classic;html=1;rounded=1;fontFamily=Verdana;fontSize=15;strokeColor=#457B9D;fontColor=#1D3557;labelBackgroundColor=#F1FAEE;exitX=1;exitY=0.5;exitDx=0;exitDy=0;" parent="1" source="K5DylDMR5U2sn6sFDK5y-496" edge="1">
                    <mxGeometry width="50" height="50" relative="1" as="geometry">
                        <mxPoint x="960" y="1860" as="sourcePoint"/>
                        <mxPoint x="1320" y="1260" as="targetPoint"/>
                        <Array as="points">
                            <mxPoint x="1300" y="1860"/>
                            <mxPoint x="1320" y="1840"/>
                        </Array>
                    </mxGeometry>
                </mxCell>
            </root>
        </mxGraphModel>
    </diagram>
</mxfile>